<svg xmlns="http://www.w3.org/2000/svg" width="341.69" height="162.546"><path d="M171.327 87.716v74.83" fill="none" stroke="#fff" stroke-dasharray="2 4"/><path d="M28.98 50.4H0v-4.95l29.52-42.2h5.22v42.3h8.82v4.86h-8.82v15.66h-5.76zm-23.3-4.86h23.3V11.88zm48.78 20.52V1.26h6.12v33.57l33.2-33.57h6.93L75.15 27.1l30.06 38.97h-7.47l-27-35.2-10.17 10.17v25.02z" fill="#fff"/><path d="M160.07 18.18c-.503-2.936-1.884-5.65-3.96-7.785a11.04 11.04 0 0 0-8.1-2.925q-5.85 0-9.225 2.8c-2.277 1.896-4.054 4.322-5.175 7.065-1.234 2.98-2.052 6.113-2.43 9.315q-.63 5.04-1 9.54 1.35-1.8 2.835-3.6c1-1.2 2.123-2.273 3.375-3.195a16.05 16.05 0 0 1 4.41-2.25 18.85 18.85 0 0 1 6.03-.855q9.63 0 14.895 5.445Q167 37.17 167 46.7q0 9.63-5.3 15.12-5.3 5.5-15.03 5.5a24.13 24.13 0 0 1-8.82-1.575c-2.75-1.086-5.17-2.87-7.02-5.175-2.177-2.788-3.77-5.987-4.68-9.405a50.75 50.75 0 0 1-1.71-14.175c.013-3.935.344-7.863 1-11.745.6-3.867 1.8-7.617 3.555-11.115 1.644-3.282 4.05-6.12 7.02-8.28Q140.45 2.6 147.47 2.6a19.77 19.77 0 0 1 12.6 3.96q5.04 3.96 5.94 11.6zm-13.4 12.96a13.79 13.79 0 0 0-5.985 1.26c-1.726.807-3.26 1.973-4.5 3.42a15.45 15.45 0 0 0-2.835 5 18.3 18.3 0 0 0-.99 6.075 20.21 20.21 0 0 0 .765 5.445 14.28 14.28 0 0 0 2.52 4.995 13.79 13.79 0 0 0 4.455 3.69c2.068 1.02 4.355 1.515 6.66 1.44a14.9 14.9 0 0 0 6.795-1.395A12.53 12.53 0 0 0 158 57.38c1.143-1.537 1.983-3.278 2.475-5.13.506-1.863.764-3.785.765-5.715q0-7.38-3.555-11.385-3.555-4.005-11.025-4zm64.8 3.7a84.68 84.68 0 0 0-.585-10.035c-.325-3.023-1.098-5.98-2.295-8.775a15.38 15.38 0 0 0-4.815-6.21c-2.384-1.655-5.246-2.477-8.145-2.34a12.17 12.17 0 0 0-7.785 2.385 15.98 15.98 0 0 0-4.725 6.345 34.04 34.04 0 0 0-2.385 9 77.21 77.21 0 0 0-.675 10.26c-.025 3.72.23 7.435.765 11.115a27.86 27.86 0 0 0 2.565 8.505 13.76 13.76 0 0 0 4.815 5.445c2.295 1.366 4.936 2.038 7.605 1.935a12.67 12.67 0 0 0 8.235-2.52 15.95 15.95 0 0 0 4.725-6.48c1.133-2.855 1.86-5.854 2.16-8.9a89.6 89.6 0 0 0 .54-9.72zM195.8 2.6c2.765-.062 5.516.414 8.1 1.4 2.177.862 4.154 2.164 5.805 3.825 1.61 1.65 2.92 3.57 3.87 5.67a34.36 34.36 0 0 1 2.295 6.885 50.94 50.94 0 0 1 1.08 7.515q.27 3.87.27 7.56c.012 4.037-.29 8.07-.9 12.06-.506 3.553-1.617 6.992-3.285 10.17a18.6 18.6 0 0 1-6.525 7.02q-4.14 2.6-10.7 2.6a20.04 20.04 0 0 1-10.755-2.61 18.4 18.4 0 0 1-6.57-7.065c-1.676-3.238-2.787-6.738-3.285-10.35a82.6 82.6 0 0 1-.9-12.465c-.005-3.944.265-7.884.8-11.8a32.86 32.86 0 0 1 3.1-10.3c1.486-2.985 3.74-5.52 6.53-7.345q4.23-2.8 11.07-2.8zm26.82 21.33v-4.5h6.93v-7.38q0-5.58 2.25-8.82Q234.05 0 239.45 0q1.26 0 2.34.1 1.08.1 2.16.27V5.3a13.5 13.5 0 0 0-3.24-.45 5.88 5.88 0 0 0-3.24.765c-.76.487-1.357 1.193-1.7 2.025a9.14 9.14 0 0 0-.675 2.835q-.135 1.575-.135 3.195v5.76h9v4.5h-9v42.12h-5.4V23.94zm35.73 19c-.014 2.545.35 5.077 1.08 7.515a19.46 19.46 0 0 0 3.105 6.21c1.326 1.75 3.015 3.193 4.95 4.23a13.73 13.73 0 0 0 6.615 1.575 15.1 15.1 0 0 0 7.245-1.665c2.038-1.08 3.783-2.64 5.085-4.545 1.37-2.036 2.347-4.3 2.88-6.705.613-2.7.856-5.47.72-8.235a22.93 22.93 0 0 0-1.215-7.785 16.59 16.59 0 0 0-3.375-5.715 14.42 14.42 0 0 0-5.04-3.555c-1.997-.825-4.14-1.238-6.3-1.215-2.34-.04-4.656.484-6.75 1.53a14.21 14.21 0 0 0-4.95 4.185 19.2 19.2 0 0 0-3.015 6.3 28.73 28.73 0 0 0-1.035 7.875zm0 41.5h-5.4V19.44h5.4v8.2h.18c.782-1.503 1.8-2.87 3.015-4.05 1.2-1.18 2.565-2.18 4.05-2.97 1.442-.77 2.967-1.373 4.545-1.8a17.61 17.61 0 0 1 4.59-.63c3.31-.095 6.6.55 9.63 1.9 2.55 1.19 4.786 2.962 6.525 5.175a21.11 21.11 0 0 1 3.735 7.785c.798 3.147 1.19 6.383 1.17 9.63a34.55 34.55 0 0 1-1.26 9.36c-.764 2.844-2.062 5.516-3.825 7.875-1.727 2.264-3.942 4.1-6.48 5.4-2.867 1.408-6.032 2.103-9.225 2.025-3.292.003-6.54-.75-9.495-2.2-2.977-1.423-5.467-3.695-7.155-6.53zm52.1-32.94q1.26 6.03 4.545 8.5 3.285 2.47 9.405 2.48a16.28 16.28 0 0 0 5.13-.72 10.3 10.3 0 0 0 3.555-1.935c.89-.757 1.6-1.692 2.115-2.745.478-1.013.724-2.12.72-3.24.146-1.953-.676-3.854-2.2-5.085a16.64 16.64 0 0 0-5.535-2.61c-2.37-.664-4.774-1.205-7.2-1.62a35.22 35.22 0 0 1-7.2-2.025 14.42 14.42 0 0 1-5.535-3.87q-2.2-2.52-2.2-7.1a12.15 12.15 0 0 1 4.275-9.585q4.265-3.735 12.095-3.735 7.56 0 12.285 3.375 4.725 3.375 5.715 11.295h-5.5q-.72-5.4-4.1-7.6a15.25 15.25 0 0 0-8.5-2.205q-5.13 0-7.83 2.205a7.13 7.13 0 0 0-2.7 5.805c-.106 1.87.72 3.673 2.205 4.815a17.97 17.97 0 0 0 5.535 2.7q3.33 1.035 7.2 1.845c2.475.508 4.89 1.28 7.2 2.3a15.76 15.76 0 0 1 5.535 4 10.31 10.31 0 0 1 2.2 7.02c.04 2.055-.453 4.085-1.435 5.9-.966 1.716-2.322 3.18-3.96 4.275a18.42 18.42 0 0 1-5.985 2.56c-2.5.6-5.04.877-7.6.855-2.5.047-4.987-.363-7.34-1.2-2.025-.745-3.877-1.893-5.445-3.375-1.493-1.43-2.686-3.144-3.5-5.04a17.75 17.75 0 0 1-1.44-6.21z" fill="#d3d3d3"/></svg>