<svg xmlns="http://www.w3.org/2000/svg" width="329.213" height="130.415" viewBox="0 0 329.213 130.415">
  <g id="Group_1750" data-name="Group 1750" transform="translate(0.001 4.864)">
    <path id="Path_3787" data-name="Path 3787" d="M.009,59.115.447,62.94l.412-.048L.421,59.067l-.412.048m0-.692L.02,58.5l.415-.031-.006-.079-.415.031M0,58.98l.007.122.415-.024-.007-.122L0,58.98m.422.1,0-.031-.415.031,0,.031.415-.031M0,58.011,0,58.1v0l0,.082.415-.017,0-.083-.207.009.208,0,0-.089L0,58.011H0m.019.169v0L.392,58v0l-.372.186m-.013,0,0,.23L.428,58.4l-.006-.23-.415.01m0,.225v0H.428v0H.012m.877,3.98V62.3l-.416,0v.082l.416-.006M0,58.7v.265H.415V58.7H0m0-.489V58.7H.415v-.489H0m0-.132v.132H.415V58.08H0m38.631-.363.006.9.416,0-.006-.9-.416,0M.152,57.489l-.083.173-.012.031-.025.082,0,.019-.009.048v.007l-.007.043v.01l0,.042v.01l0,.036v.1H.42v-.048H.212l.208.007v-.033L.212,58l.207.014,0-.031,0-.037-.206-.023.2.033.007-.043-.2-.033.2.041.007-.037.018-.06.076-.157L.155,57.49h0M155.739,73.277h7.724v-.416h-7.724v.416m10.011,0h4v-.416h-4v.416M.66,62.514h327.89V62.1H.66v.417M328.289,56.98l-47.117-5h-.012l-56.211-2.438h-.007l-60.289-.392-60.294.389h-.007L48.132,51.971h-.013L.924,56.98l.043.413,47.188-5.007,56.211-2.435,60.286-.389,60.284.392,56.2,2.436,47.111,5,.043-.413v0m-327.4,0L.7,57.033l-.08.041-.417.345.264.321.383-.316L1,57.386l-.1-.4v0M329,57.416l-.426-.346-.08-.041-.152-.038-.1.4.108.028.392.318.262-.323h0m-38.835.3-.006.9.416,0,.006-.9-.416,0m38.976-.056-.084-.174-.375.181.085.174.374-.181m.07.359v-.047l0-.035-.414.042,0,.035.208-.021L328.8,58v.033l.417-.014h0m0,.1v-.037l-.415.013v.037l.415-.013m-.417.372v.481h.416v-.481h-.416m-.472,3.817v.143l.416,0v-.143l-.416,0m.888-4.214v-.073l-.415.017v.037l.415.019m-.428.314v0h.416v0h-.416m.415.006,0-.234V58.1l-.415-.012v.078l-.006.234.416.011m.007-.312,0-.091L328.792,58v.091l.413.011m0-.01V58.08h-.416v.007l.416,0M329.2,59.1l.007-.122-.415-.024-.007.122.415.024m-.407-.148-.006.091.415.026.006-.091-.415-.026m.4-.453.006-.079-.415-.031-.006.08.415.03m-.43,4.452.44-3.839-.412-.048-.44,3.838.412.049m.443-5.014,0-.04,0-.021-.009-.043v0l-.01-.048,0-.018-.024-.078-.4.119.019.066.009.04.2-.041-.2.037.006.036v.029l.415-.037v0m-164.6-.647q-8.458,0-16.917,0-54.426,0-108.852.222l0,.416q54.422-.224,108.85-.222,8.458,0,16.917.006v-.417m0,.888q-7.777,0-15.557,0-55.106,0-110.206.234l0,.416q55.1-.235,110.2-.234,7.777,0,15.557,0v-.416m125.769-.669q-54.428-.224-108.852-.222-8.458,0-16.917,0v.417q8.459-.007,16.917-.006,54.425,0,108.85.222l0-.416m-.006.9q-55.1-.235-110.207-.234-7.777,0-15.556,0V58.6q7.777,0,15.556,0,55.1,0,110.2.234l0-.416M321.38,62.3l0,.124.417.016,0-.124-.416-.016M7.828,62.428v-.052l-.415.007v.052l.415-.007m0-.058,0-.072-.415.019,0,.073.415-.02m320.961-4.234v.328h.415v-.328h-.415m0,.329v.228l.415,0v-.228l-.415,0m0,.227v.257h.415v-.257h-.415m0,.257v0h.415v0h-.415m0,0v.107l.415,0v-.107l-.415,0M.417,59.061v-.368H0v.368H.417m0-.368v-.558H0v.109H.21L0,58.235l0,.159,0,.3H.417m-.4-.183L.45,62.332l.413-.048L.433,58.463l-.416.048M329.19,58.5l.011-.352-.415-.014-.012.352.415.014m-.415-.031-.435,3.82.413.048.435-3.821-.413-.047M.992,57.327a1.061,1.061,0,0,0-.934.756l.4.119a.647.647,0,0,1,.213-.317.657.657,0,0,1,.354-.143l-.033-.415h0m-.942.787-.036.263.412.056.036-.263L.05,58.114m17.715-.78-.185.087-.048.029a.942.942,0,0,0-.275.446,1.663,1.663,0,0,0-.075.5l0,.082.415-.033v-.048a1.269,1.269,0,0,1,.055-.372.541.541,0,0,1,.143-.252l-.133-.159.088.189.185-.087-.174-.377h0M164.4,57.5v.887h.416V57.5H164.4m146.873.21.184.085.087-.187-.132.16a.52.52,0,0,1,.143.251,1.2,1.2,0,0,1,.055.372v.065h.416v-.065a1.664,1.664,0,0,0-.075-.5.915.915,0,0,0-.275-.446l-.048-.029-.184-.087-.176.377h0m16.916.03a.67.67,0,0,1,.357.143.655.655,0,0,1,.211.316l.4-.117a1.068,1.068,0,0,0-.35-.523,1.082,1.082,0,0,0-.585-.234l-.033.415h0m.561.43.037.263.412-.059-.037-.263-.412.059m-.341-.6.065-.35-.408-.076L328,57.5l.408.076m-17.046.159q1.843-.024,3.686-.042,1.658-.014,3.319-.021h1.079c.607,0,1.213,0,1.82,0,.427,0,.854,0,1.281.009.386,0,.773.007,1.159.012l1.031.014.9.016.769.016.637.012.5.009.2,0h.3l.092,0h.012l.058-.006.067-.018.019-.01-.176-.376-.02.01.089.187-.022-.207-.048,0-.084,0h-.285l-.195,0c-.166,0-.335,0-.5-.009l-.637-.012-.769-.016-.9-.016c-.344,0-.687-.011-1.032-.014-.386,0-.774-.01-1.159-.012-.428,0-.855-.007-1.283-.009q-.908-.005-1.822,0h-1.08q-1.663.005-3.321.021-1.846.018-3.687.042l0,.416h0m-20.988.195q1.116.005,2.23,0,1.657,0,3.313-.01c5.15-.03,10.3-.121,15.444-.191l0-.416c-5.149.068-10.3.16-15.444.191q-1.657.009-3.31.01-1.115,0-2.228,0l0,.416h0M17.85,57.731q2.417.032,4.836.068c4.638.067,9.276.131,13.914.131q1.119,0,2.239,0l0-.416q-1.117.005-2.236,0c-4.638,0-9.271-.064-13.907-.131l-4.837-.068,0,.416h0m-16.923,0,.022.009.058.014.055.006h.013l.093,0h.5l.5-.01.635-.012.769-.016.9-.016c.342,0,.687-.011,1.031-.014.386,0,.773-.01,1.159-.012q.64-.006,1.28-.009.909-.006,1.82,0h1.082q1.658.005,3.316.021,1.845.018,3.687.042l.006-.416q-1.845-.024-3.69-.042-1.658-.014-3.319-.021H9.766q-.909,0-1.823,0c-.427,0-.853,0-1.281.009-.386,0-.774.007-1.159.012l-1.032.014-.9.016-.77.016-.635.012-.5.01H1.18l-.082,0-.048,0-.022.207.08-.191-.022-.009-.16.383v0m-.92,1.357L.318,61.8l.412-.048L.419,59.036l-.412.049M.318,61.8l.061.541.413-.048L.73,61.755.318,61.8m.061.539.016.14.413-.044L.792,62.3l-.413.044m.016.143.022.176.412-.048-.022-.176-.412.048m.021.175.033.281.413-.048-.033-.28-.413.047m16.977-3.993q2.473.029,4.944.061c4.425.055,8.851.109,13.278.109q1.614,0,3.23-.01l0-.416q-1.614.009-3.227.01c-4.424,0-8.848-.054-13.273-.109L17.4,58.251l0,.416h0m311.4.372-.311,2.718.412.048.31-2.719-.411-.046m-.311,2.718-.061.538.413.048.061-.538-.413-.048m-.061.537-.016.143.412.048.017-.143-.413-.048m-.017.143-.019.176.414.048.019-.176-.414-.048m-.019.176-.033.3.412.048.033-.3-.412-.046M311.82,58.666q1.88-.019,3.763-.035,1.693-.014,3.385-.017h.726q1.115,0,2.234.006c.435,0,.87.006,1.3.011.394,0,.787.007,1.181.013l1.051.016.917.017.784.014.647.014.508.009h.507l.093,0h.012l.058-.006.066-.019.019-.009L328.9,58.3l-.019.009.088.189-.021-.207-.052,0-.085,0h-.485l-.506-.009-.646-.014-.783-.014-.918-.017-1.052-.016c-.4-.006-.788-.01-1.182-.013-.435,0-.871-.007-1.306-.011q-1.12-.007-2.236-.006h-.727q-1.693,0-3.387.017-1.883.012-3.764.035l0,.416h0m-21.453.161q1.626.011,3.255.01,1.2,0,2.41,0c5.264-.021,10.526-.106,15.787-.166l0-.416c-5.263.06-10.523.143-15.785.166q-1.206.005-2.408,0-1.626,0-3.251-.01l0,.416h0M.741,57.222l.063.35.41-.075-.064-.35-.409.075m-.6,1.453.019.009.066.019.056.006H.293l.093,0H.894l.508-.009.646-.014.782-.014.918-.017L4.8,58.644c.393-.006.787-.01,1.18-.013.435,0,.87-.007,1.3-.011q1.115-.006,2.234-.006h.724q1.694,0,3.386.017,1.881.012,3.763.035l0-.416q-1.881-.019-3.764-.035Q11.94,58.2,10.245,58.2H9.517q-1.117,0-2.236.006c-.435,0-.871.006-1.306.011-.394,0-.788.007-1.181.013l-1.052.016-.919.017-.783.014-.645.014L.889,58.3H.4l-.084,0-.048,0L.246,58.5l.087-.189L.316,58.3l-.176.376h0m8.422,52.338,1.7,5.109.394-.132-1.705-5.109-.393.132m-2.5-8.676.961,3.534v.007l1.537,5.13.4-.12-1.538-5.13-.2.06.2-.054-.96-3.537-.4.109h0M.662,67.325l.148,2.539v0l.3,3.873v0l.412,4.117v.006l.532,4.272v0l.484,3.291.411-.06-.482-3.293-.206.03.207-.025-.534-4.272-.206.025.207-.021L1.52,73.7l-.207.021.207-.016-.3-3.873-.207.016.207-.012L1.075,67.3l-.415.025h0m44.261,51.568-.985-1.973-.372.186.986,1.972.372-.185M38.376,67.32l.175-5.007-.416-.014-.175,5.007.416.014m279.065,49.9.536-.1-.08-.408-.535.1.079.408M41.247,99.953l-4.59-32.669-.412.059,4.59,32.669.412-.059M37.961,67.344l4.524,32.184.411-.058L38.373,67.284l-.412.059m9.156,51.96v1.431h.417V119.3h-.417m.43-3.691v1.4h.416v-1.4h-.416m269.765,1.2h-.006v.416h.006v-.416M48.184,121.8h36.9v-.416h-36.9v.416m195.942,0h36.9v-.416h-36.9v.416m-196.8-.858H85.941v-.416H47.327l0,.416m195.942,0h38.618v-.416H243.27l0,.416m40.694-1.847h-42.77v.416h42.773l0-.416m-195.942,0H45.248v.416H88.021l0-.416m196.453-.316H256.412v.416h28.063l0-.416m-28.071,0H240.68v.416H256.4l0-.416m-167.87,0H72.81v.416H88.533l0-.416m-15.733,0H44.737v.416H72.8l0-.416M70,119.3v1.431h.415V119.3H70m-58.194-2.08H317.4v-.416H11.81l0,.416m259.647-2.92H57.756v.416h213.7l0-.416M57.986,113h213.24v-.416H57.988l0,.416m124.068-2.99h-.717v.416h.717v-.416m-3.576,0h-4.288v.416h4.291l0-.416m-5.244,0h-1.074v.416h1.074v-.416m-4.053,0h-.717v.416h.717v-.416m-1.669,0h-.834v.416h.834v-.416m-3.814,0h-.717v.416h.717v-.416m-1.668,0h-4.289v.416h4.292l0-.416m-5.246,0h-.711v.416h.712v-.416m-4.052,0h-.717v.416h.717v-.416m-3.575,0h-.717v.416h.717v-.416m-3.576,0h-4.288v.416h4.291l0-.416m-3.575-.315h3.575v-.416H142.01l0,.416m16.448,0h3.576v-.416h-3.573l0,.416m16.448,0h3.576v-.416H174.9v.416m69.456-1.363h-2.038v.416h2.038v-.416m-3.068,0h-2.2v.416h2.2v-.416m-4.259,0h-2.158v.416h2.158v-.416m-4.216,0h-2.227v.416h2.227v-.416m-4.728,0h-6.84v.416h6.841v-.416m-7.537,0h-2.474v.416h2.474v-.416m-6.684,0H211.8v.416h2.063v-.416m-48.139-.88H163.7v.416h2.026v-.416M178,107.333h-3.1v.417H178v-.417m-16.448,0h-3.1v.417h3.1v-.417m-5.481,0h-3.338v.417h3.338v-.417m-10.964,0h-3.1v.417h3.1v-.417m78.342.388h4.115V107.3h-4.115v.416m-59.75-.58h2.263v-.416H163.7l0,.416m-21.691-.121h3.1V106.6h-3.1v.416m10.725,0h3.338V106.6h-3.338v.416m5.722,0h3.1V106.6h-3.1v.416m16.448,0h3.1V106.6h-3.1v.416m43.173-.691h-4.211v.416h4.211v-.416m-39.6-1.307h-3.576v.416h3.576v-.416m-16.448,0h-3.576v.416h3.576v-.416m-16.448,0H142.01v.416h3.575v-.416m68.282.358h4.211v-.416h-4.211v.416m7.371,0h2.2v-.416h-2.2v.416m-37.275-.478h-1.906v.416h1.906V104.9m-2.621,0h-1.908v.416h1.908V104.9m-15.376,0H163.7v.416h2.263l0-.416m-14.9,0h-1.907v.416h1.907V104.9m-2.622,0h-1.908v.416h1.908V104.9m-7.152-.191h4.291v-.416h-4.293l0,.416m5.244,0h4.53v-.416h-4.53v.416m5.483,0h.717v-.416h-.717v.416m4.053,0h.71v-.416h-.712l0,.416m1.668,0h4.292v-.416h-4.293v.416m5.244,0h2.861v-.416h-2.861v.416m5.484,0h1.073v-.416H168.47v.416m4.052,0h.717v-.416h-.717v.416m1.67,0h4.29v-.416h-4.293l0,.416m5.243,0h4.528v-.416h-4.528v.416m59.658-.833h-2.056v.416h2.056v-.416m-4.216,0h-2.056v.416h2.056v-.416m-7.309,0h-6.321v.416h6.318l0-.416m-15.762-.845h2.063v-.416h-2.063v.416m6.274,0h2.474v-.416h-2.474v.416m3.171,0h6.841v-.416h-6.844l0,.416m9.343,0h8.979v-.416h-8.979v.416m11.732-.454h2.038v-.416h-2.038v.416m-235.935-.5H6.257v.416h.132v-.416m173.948-.143H145.155v.416H180.34l0-.416M165.8,104.7l.6.121.083-.408-.6-.121-.083.407M85.733,119.3v1.431h.416V119.3h-.416m59.422-18.1H180.34v-.416H145.155v.416m-139.21-.989H5.791v.415h.154v-.415m241.615-.858H208.945v.416H247.56v-.416M208.944,99.2h38.615v-.416H208.945V99.2m0-1.43h38.615v-.416H208.945v.416m70.228-2.133h-4.614v.416h4.614v-.416m-72.516-1.43h-.574v.416h.574v-.416m43.192.13h.574v-.416h-.574v.416M3.229,87.056H3.051v.416h.178v-.416m163.159,17.978-.356-.121-.134.393.357.121.133-.394M95.448,77.545v-.861h-.417v.861h.417m0-2.579v-.861h-.417v.861h.417m3.016,1.721v.861h.416v-.861h-.416m.988.861v-.861h-.416v.861h.416m3.017-.861v.861h.416v-.861h-.416m.986.861v-.861h-.414v.861h.414M2.743,85.614H2.9V85.2h-.16v.416M242.519,84.34H213.985v.416h28.534V84.34m0-1.431H213.985v.416h28.534v-.416m-28.534-.156h28.534v-.416H213.985v.416m65.2-1.417H274.6v.416h4.59v-.416m-98.847,0h-8.583v.416h8.583v-.416m-26.6,0h-8.582v.416h8.582v-.416m-8.582-.728h6.293v-.416h-6.293v.416m28.891,0h6.294v-.416h-6.294v.416M280.169,78.19h-.956v.416h.956V78.19m-3.814,0h-.718v.416h.718V78.19m-4.053,0h-.717v.416h.718V78.19m-165.621-.854h-3.433v.416h3.433v-.416m-4,0H99.246v.416h3.432v-.416m-4,0H95.241v.416h3.432v-.416m176.491-.608h-2.385v.416h2.385v-.416m-179.925.164H98.67v-.416H95.239v.416m4,0h3.432v-.416H99.244v.416m4,0h3.433v-.416h-3.433v.416M272.9,76.657h2.145v-.416H272.9v.416m-101.142-.471h-3.146V76.6h3.146v-.416m-14.874,0h-3.146V76.6h3.146v-.416m-3.146-.728h.858v-.416h-.858v.416m17.162,0h.858v-.416H170.9v.416m-64.217-.7H95.24v.415h11.441l0-.415m-11.441-.443h11.441V73.9H95.24l0,.416m74.515-.986H155.738v.416h14.016l0-.416m-6.293-.443h2.288v-.416h-2.288v.416m110.032,0h.956v-.416h-.956v.416m3.814,0h.717v-.416h-.717v.416m4.052,0h.717v-.416h-.717v.416M155.736,72.6h14.016v-.415H155.738l0,.415m10.576,32.187.478.365.252-.329-.478-.365-.252.329m.394.542-.239-.244-.3.292.239.244.3-.292M106.471,74.1v.861h.416V74.1h-.416m0,2.579v.861h.416V76.68h-.416M.868,67.521h37.3v-.416H.868v.416m290.177,0h37.3v-.416h-37.3v.416m-252.7-5.007H290.869V62.1H38.343v.417M248.1,88.578l-2.046-.705-.136.393,2.046.705.136-.393m-1.716-1.664,2.046.7.136-.394-2.047-.7-.135.393m.186-.542,2.046.705.136-.393-2.046-.705-.136.393m-79.819,18.737.357.487.335-.246-.358-.487-.333.246m2.612-.5,2.979,4.869.354-.216-2.979-4.87-.354.217m2.977,5.506-2.98-4.99-.357.213,2.98,4.991.357-.214m-99.358,8.966.988-1.972-.372-.186-.986,1.972.371.186m93.265-11.584,1.072,2.8.388-.149-1.073-2.8-.387.15m.627,2.652-.956-2.555-.389.143.956,2.556.389-.144m-25.374.073V104.5h-.416v5.72h.416m.3-4.99v1.583h.416v-1.583H141.8m0,2.313v1.947h.416v-1.947H141.8M144.218,101V81.544H143.8V101h.416m.681,5.816v.731h.415v-.731H144.9m.463-5.816V81.544h-.415V101h.415m.014,3.5v.731h.416V104.5h-.416m0,4.99v.731h.416v-.731h-.416m1.368-4.381V104.5h-.416v.609h.416m1.908,5.111v-5.111h-.416v5.111h.416m.3-5.111v5.111h.416v-5.111h-.416m1.9-.609v.609h.415V104.5h-.415m-62.138,14.58.985-1.972-.372-.186-.985,1.973.372.185m78.159-13.305-.118-.365-.4.129.119.365.395-.129m.2-.239.12.365.4-.129-.12-.365-.4.129m-14.85,4.682V104.5h-.415v5.72l.415,0m.574-30.963v-2.86h-.416v2.861h.416m-.274,25.243v2.313h.416V104.5h-.416m0,3.044v2.678h.416V107.54h-.416m1.418-26V76.393h-.416v5.149h.416m2-7.438V72.387h-.416V74.1h.416m.335,36.114v-2.678h-.416v2.678h.416m0-3.408V104.5h-.416v2.313h.416m.3-2.313v5.72H157V104.5l-.416,0m.512-28.1v-2.86h-.416v2.861h.416m.858,33.824V104.5h-.415v5.72l.415,0m.3-4.99v1.582h.416v-1.582h-.416m0,2.313v1.947h.416v-1.947h-.416m3.1-.731v.731h.416v-.731h-.416m.478-2.313v.731h.415V104.5h-.415m0,4.99v.731h.415v-.731h-.415m1.367.731V104.5h-.416v5.72l.416,0m.478-36.684v-.861h-.416v.861h.416M163.5,105.1v1.825h.415V105.1H163.5m0,2.556v2.556h.415v-2.553l-.415,0m2.05-34.988v.861h.416v-.861h-.416m1.346,33.526v-.364h-.415v.364h.415m.3-.364v.489h.415v-.485l-.415,0m1.489,4.381V104.5h-.416v5.72l.416,0m.143-33.824v-2.86h-.416v2.861h.416m.156,28.832v4.99h.416v-4.985l-.416-.005m.574-32.839V74.1h.415V72.385h-.415m2,4v5.149h.416V76.393l-.416,0m1.179,32.973V104.5h-.416v4.869l.416-.005M172.7,76.39V79.25h.416V76.393l-.416,0m.335,28.1v5.72h.416V104.5l-.416-.005m1.368,5.72V104.5h-.416v5.72l.416-.006m.3-4.99v1.582h.416v-1.582H174.7m0,2.313v1.947h.416v-1.947H174.7m3.1-.731v.731h.416v-.731H177.8m.478-2.313v.731h.416v-.731h-.416m0,4.99v.73h.416v-.73h-.416m1.368-4.381v-.609h-.416v.609h.416m.492-23.564V100.99h.416V81.544l-.416-.005m1.417,28.675V105.1h-.416v5.111h.416m-.274-28.675V100.99h.416V81.544l-.416-.005m.574,23.564v5.111h.417V105.1h-.417m1.907-.609v.609h.415v-.609h-.415m-17,2.133.119-.364-.4-.129-.118.365.394.127m.44-.372-.12.365.4.129.12-.365-.4-.13m76.837-19.906L242.7,84.423l-.34.239,1.348,1.926.341-.24m-.518-2.508,1.349,1.926.34-.239L243.867,83.6l-.34.238m.468-.328,1.349,1.926.341-.239-1.349-1.926-.341.239m-3.121,35.374-.987-1.972-.371.186.986,1.972.372-.186M206.3,96.7V89.645h-.415V96.7l.415-.005m.157-8.648V96.7h.416V88.056l-.416-.005m1.43,1.588V96.7h.416V89.645l-.416-.005m4.134,18.9v-5.716H211.6v5.72l.416,0m44.587,10.35-.986-1.972-.372.186.988,1.972.371-.186M243.671,99.493l-.191-.573-.395.131.191.574.4-.131m-20.441,5.679.012,2.343.416,0-.012-2.343-.416,0m-1.775,3.368-.011-3.369h-.416l.011,3.369h.416m-7.8-5.719v2.35h.416v-2.35h-.416m0,3.715v2h.416v-2h-.416m3.251-7.544v.574h.416v-.574h-.416m1.373,9.548v-2h-.416v2h.416m0-3.37v-2.35h-.416v2.35h.416m2.056-2.35v5.72h.416v-5.72h-.416m1.113,1.26v-1.26h-.416v1.26h.416m6.318,3.432v-3.432h-.417v3.432h.417m-60.665-.947-.358.487.335.246.358-.488-.335-.245m62.128-2.324v2.8h.416v-2.8h-.416m1.562,4.3v-5.721h-.416v5.72h.416m1.81-4.46v4.46h.416v-4.46H232.6m2.473,4.46v-4.46h-.415v4.46h.415m1.743-4.46v4.46h.416v-4.46h-.416m2.474,4.46v-4.46h-.416v4.46h.416m-.383-9.549v.574h.416v-.574h-.416m2.17,5.089v4.46h.416v-4.46h-.416m1.446,4.46v-6.175h-.416v6.174h.416m.532,10.758v1.431h.416V119.3h-.416M211.14,85.487l.738-1.443-.371-.189L210.77,85.3l.37.19m.51.26.738-1.443-.372-.189-.736,1.443.37.189m1.64-.982-.736,1.443.371.189.736-1.443-.371-.189m-46.82,22.192.239-.244-.3-.291-.239.243.3.291m77.45-7.964v.574h.415v-.574h-.415m.232,3.374v6.175h.416v-6.175h-.416m2.186-2.8v-.574h-.416v.574h.416m2.288-2.862v-7.39h-.416V96.7h.416m1.43,0V87.722h-.415V96.7h.415m.157-7.389V96.7h.416v-7.39h-.416m8.582,29.988v1.431h.416V119.3h-.416m-91.971-12.308-.478.243.189.37.478-.243-.189-.37m41-19.563,1.968-.739-.147-.389-1.968.738.147.39m.2.536L210,87.228l-.147-.389-1.969.739.147.389m2.325.21-1.969.738.147.39,1.969-.739-.147-.389m-44.32,18.955.357-.121-.133-.394-.357.121.133.394m111.8-34.388,1.668,4.991.394-.132-1.668-4.99-.394.131m-3.576,0,1.907,5.72.394-.131-1.905-5.723-.4.134m5.161,5.59-1.907-5.72-.394.131,1.907,5.72.394-.131m-3.575,0-.478-1.46-.4.129.478,1.46.4-.129m-.6-1.948L274.169,73.1l-.4.129,1.073,3.288.4-.128m16.011-9.078-.175-5.007-.416.014.175,5.007.416-.014m-10.007,48.3v1.4h.416v-1.4h-.416m.43,3.691v1.431h.416V119.3h-.416m-7.9-46.2L272.7,76.385l.394.13,1.073-3.288-.395-.128m-1.19,3.772-.478,1.46.394.129.478-1.46-.394-.129m-.8,1.59,1.907-5.72-.394-.131-1.907,5.72.394.131m14.941,21.064L291.25,67.34l-.412-.059-4.524,32.187.413.056m5.828-32.243-4.59,32.67.411.059,4.59-32.67-.411-.059m-10.676,5.329-1.906,5.72.394.131,1.907-5.72-.395-.131m-1.988,5.121,1.667-4.991-.394-.131L279.5,77.6l.395.132m4.769,41.345.988-1.972-.372-.186-.986,1.972.371.186m34.289-2.956,1.7-5.109v-.006l1.536-5.13,0-.006,1.339-5.017v-.006l1.153-4.892v-.007l.979-4.752v-.006l.818-4.6v0l.67-4.441v0l.531-4.272v-.006l.412-4.117v0l.3-3.873v0l.148-2.539-.415-.024-.148,2.539.208.012-.208-.016-.3,3.873.208.016-.208-.021-.412,4.118.208.021-.207-.025-.531,4.272.206.025-.206-.03-.669,4.44.206.031-.206-.036-.817,4.6.2.036-.2-.042-.981,4.752.2.042-.2-.048-1.153,4.891.2.048-.2-.054-1.339,5.008-1.537,5.133.2.059-.2-.065-1.7,5.108.4.132h.011m-.9.961.463-.3.058-.055.314-.458.023-.044.037-.1-.388-.149-.028.07-.278.4-.428.279.227.349h0M47.758,115.4q-10.324.061-20.647.162l0,.416q10.322-.1,20.646-.162l0-.416h0m-6.922-15.388a17.084,17.084,0,0,0,16.918,14.707V114.3a16.671,16.671,0,0,1-16.507-14.35l-.411.059m1.649-.485A15.653,15.653,0,0,0,57.986,113v-.416A15.24,15.24,0,0,1,42.9,99.47l-.411.058m-32.22,16.6a1.637,1.637,0,0,0,1.545,1.1v-.416a1.223,1.223,0,0,1-1.153-.818l-.392.137h0m.022-.059a1.638,1.638,0,0,0,1.564,1.156v-.416a1.221,1.221,0,0,1-1.167-.86l-.4.121h0M69.352,121.8a1.067,1.067,0,0,0,1.066-1.066H70a.652.652,0,0,1-.651.65v.416h0m-22.234-1.066a1.066,1.066,0,0,0,1.066,1.066v-.416a.651.651,0,0,1-.649-.651h-.417m-2.567-1.654a.78.78,0,0,0,.7.431V119.1a.362.362,0,0,1-.326-.2l-.371.187h0m27.737.431a.78.78,0,0,0,.7-.431l-.372-.185a.364.364,0,0,1-.325.2v.416h0M90.948,91.557H90.74a10.22,10.22,0,1,0,10.221-10.219A10.22,10.22,0,0,0,90.74,91.557h.416a9.8,9.8,0,1,1,2.872,6.933,9.8,9.8,0,0,1-2.872-6.933h-.208m1.431,0h-.208a8.79,8.79,0,1,0,8.79-8.79,8.79,8.79,0,0,0-8.79,8.79v0h.416a8.374,8.374,0,1,1,2.452,5.921,8.373,8.373,0,0,1-2.452-5.921h-.208M143.8,101a1.352,1.352,0,0,0,1.353,1.351h0v-.415a.935.935,0,0,1-.937-.933H143.8M85.086,121.8a1.065,1.065,0,0,0,1.065-1.065h-.418a.651.651,0,0,1-.649.651v.416h0m2.935-2.289a.778.778,0,0,0,.7-.43l-.372-.185a.365.365,0,0,1-.326.2v.416h0m230.9-3.443a231.361,231.361,0,0,0,9.467-48.736l-.413-.035a231.037,231.037,0,0,1-9.45,48.648l.4.123h0M153.737,75.045a1.351,1.351,0,0,0-1.351,1.348h.416a.937.937,0,0,1,.936-.936v-.412m-8.582,5.149a1.353,1.353,0,0,0-1.353,1.352h.417a.936.936,0,0,1,.936-.936v-.416m9.439-4.734a1.352,1.352,0,0,0,1.352-1.352h-.416a.938.938,0,0,1-.936.937v.416h0m-3.147,5.149a1.353,1.353,0,0,0,1.353-1.352h-.416a.938.938,0,0,1-.937.936v.416M302.1,115.566q-10.322-.1-20.647-.162l0,.416q10.322.063,20.646.162l0-.416h0m-91.6-27a4.5,4.5,0,0,0,2.426-2.167l-.37-.189a4.084,4.084,0,0,1-2.2,1.967l.147.389h0m-.5-1.339a3.072,3.072,0,0,0,1.653-1.479l-.37-.189a2.658,2.658,0,0,1-1.43,1.279l.147.389h0m-4.12,9.478a3.067,3.067,0,0,0,3.065,3.069h0v-.416A2.654,2.654,0,0,1,206.29,96.7h-.415m8.109-14.367a2.78,2.78,0,0,0-2.479,1.519l.371.189a2.364,2.364,0,0,1,2.108-1.291v-.416h0m-6.306,4.7a2.78,2.78,0,0,0-1.8,2.6h.416a2.364,2.364,0,0,1,1.534-2.216l-.143-.389h0M206.447,96.7a2.5,2.5,0,0,0,2.5,2.5h0v-.416a2.08,2.08,0,0,1-2.081-2.079v0h-.416m3.347-10.014a2.489,2.489,0,0,0,1.346-1.2l-.37-.189a2.076,2.076,0,0,1-1.122,1l.147.389h0m-1.912.886a2.207,2.207,0,0,0-1.435,2.069h.416a1.791,1.791,0,0,1,1.163-1.682l-.143-.389v0m6.1-4.667a2.209,2.209,0,0,0-1.969,1.206l.372.189a1.792,1.792,0,0,1,1.6-.979V82.91m30.343.372a2.21,2.21,0,0,0-1.81-.943v.416a1.792,1.792,0,0,1,1.468.765l.341-.239h0m-.469.328a1.638,1.638,0,0,0-1.338-.7v.416a1.225,1.225,0,0,1,1,.522l.34-.239h0M180.34,102.347A1.35,1.35,0,0,0,181.69,101v0h-.416a.936.936,0,0,1-.935.935v.416h0m62.722,18.386a1.063,1.063,0,0,0,1.059,1.066h.007v-.416a.649.649,0,0,1-.65-.646v0h-.416M207.877,96.7a1.065,1.065,0,0,0,1.062,1.067h0v-.416a.65.65,0,0,1-.651-.65h-.416m6.108-12.364a.781.781,0,0,0-.7.424l.371.191a.364.364,0,0,1,.325-.2V84.34h0m-5.6,4.574a.781.781,0,0,0-.5.731h.416a.365.365,0,0,1,.236-.341l-.147-.389h0m32.112,30.165a.777.777,0,0,0,.7.43v-.416a.364.364,0,0,1-.326-.2l-.371.185h0M5.768,101.189l.155.609.4-.1-.155-.607-.4.1h0M.821,67.33a231.354,231.354,0,0,0,9.467,48.736l.4-.121A230.918,230.918,0,0,1,1.236,67.3l-.415.035h0M2.728,86.581l.119.717.411-.067c-.041-.241-.08-.48-.119-.717l-.41.067h0M5.59,100.474c.06.239.119.478.179.717l.4-.1c-.06-.239-.119-.478-.179-.717l-.4.1h0M3.026,87.3q1.125,6.633,2.718,13.173l.4-.1Q4.557,93.853,3.435,87.23l-.41.07h0m-.179,0q1.12,6.639,2.743,13.174l.4-.1Q4.373,93.856,3.254,87.23l-.408.07h0m169.848-8.043a1.352,1.352,0,0,0,1.352,1.352v-.416a.935.935,0,0,1-.936-.934v0h-.416m-3.147-5.15a1.352,1.352,0,0,0,1.35,1.353h0v-.416a.935.935,0,0,1-.936-.934v0h-.416m12.145,7.438a1.352,1.352,0,0,0-1.351-1.352v.416a.935.935,0,0,1,.935.936h.416m-8.583-5.151a1.354,1.354,0,0,0-1.353-1.352v.416a.937.937,0,0,1,.937.936h.416m98.347,38.323a17.082,17.082,0,0,0,16.917-14.7l-.411-.059a16.669,16.669,0,0,1-16.506,14.35v.412M271.226,113a15.654,15.654,0,0,0,15.5-13.476l-.41-.058a15.241,15.241,0,0,1-15.09,13.122V113M269.3,88.693h-.208a7.788,7.788,0,1,0,7.788-7.788,7.788,7.788,0,0,0-7.788,7.788v0h.416a7.372,7.372,0,1,1,2.159,5.212,7.372,7.372,0,0,1-2.159-5.212H269.3m.428,0h-.208a7.36,7.36,0,1,0,7.36-7.36,7.359,7.359,0,0,0-7.36,7.36h.416a6.944,6.944,0,1,1,2.034,4.913,6.944,6.944,0,0,1-2.034-4.913l-.207,0m2.147,0h-.209a5.212,5.212,0,1,0,5.212-5.215,5.212,5.212,0,0,0-5.212,5.215v0h.416a4.8,4.8,0,1,1,1.406,3.391,4.8,4.8,0,0,1-1.406-3.391h-.207m-28.178-2.1a4.5,4.5,0,0,0,2.221,1.673l.136-.393a4.079,4.079,0,0,1-2.015-1.519l-.341.239h0m12.445,1.53h-.208a3.211,3.211,0,1,0,3.211-3.211,3.211,3.211,0,0,0-3.211,3.211h.416a2.8,2.8,0,1,1,2.8,2.8,2.8,2.8,0,0,1-2.8-2.8h-.208m-11.273-2.35a3.072,3.072,0,0,0,1.515,1.141l.136-.393a2.657,2.657,0,0,1-1.311-.988l-.34.239h0m2.691,14a3.068,3.068,0,0,0,3.069-3.069h-.416a2.654,2.654,0,0,1-2.653,2.653v.416h0m3.069-10.458a2.782,2.782,0,0,0-1.877-2.63l-.134.393a2.366,2.366,0,0,1,1.6,2.237h.415M247.559,99.2a2.494,2.494,0,0,0,2.5-2.494v0h-.415a2.082,2.082,0,0,1-2.081,2.081V99.2h0m-2.222-13.757a2.49,2.49,0,0,0,1.234.928l.134-.393a2.073,2.073,0,0,1-1.028-.773l-.34.239h0m4.719,3.87a2.213,2.213,0,0,0-1.49-2.089l-.136.394a1.8,1.8,0,0,1,1.21,1.7h.415m67.305,27.908a1.64,1.64,0,0,0,1.565-1.155l-.4-.124a1.225,1.225,0,0,1-1.169.861v.418M281.027,121.8a1.067,1.067,0,0,0,1.066-1.066h-.415a.654.654,0,0,1-.191.459.647.647,0,0,1-.459.191v.416h0m-22.234-1.066a1.065,1.065,0,0,0,1.064,1.066h0v-.416a.651.651,0,0,1-.65-.65h-.416M247.557,97.77a1.067,1.067,0,0,0,1.066-1.067h-.416a.65.65,0,0,1-.649.651h0v.416m1.066-8.457a.778.778,0,0,0-.526-.737l-.133.394a.362.362,0,0,1,.245.343h.414m7.6,29.764a.781.781,0,0,0,.7.43v-.416a.364.364,0,0,1-.326-.2l-.372.185h0m27.738.43a.781.781,0,0,0,.7-.43l-.372-.185a.363.363,0,0,1-.324.2v.416h0m-54.726-12.466a1.487,1.487,0,0,1-.065.463,1.153,1.153,0,0,1-.243.422,1.261,1.261,0,0,1-.4.293,1.015,1.015,0,0,1-.441.116v.416a1.463,1.463,0,0,0,.622-.156,1.726,1.726,0,0,0,.526-.391,1.573,1.573,0,0,0,.328-.574,1.919,1.919,0,0,0,.085-.591l-.413,0m-1.148-4.011a1.165,1.165,0,0,1,.82.364,1.271,1.271,0,0,1,.327.85h.416a1.679,1.679,0,0,0-.44-1.133,1.572,1.572,0,0,0-1.124-.5v.416h0m11.481,0a1.779,1.779,0,0,1,1,.239,1.313,1.313,0,0,1,.513.85l.411-.067a1.727,1.727,0,0,0-.689-1.125,2.169,2.169,0,0,0-1.24-.31v.413m-228.9,13.025H10.46l.191.077v0l-.191-.076.189.087,0-.008-.189-.087.18.1,0-.009.014-.031,0-.009-.195-.072.184.1.006-.011-.184-.1.181.1.006-.011-.364-.2-.006.011,0,0-.006.011-.01.024,0,.01.195.072-.181-.1,0,.009-.007.017,0,.007,0,.01v0l-.014.077h.416m307.872.04.024.051.375-.18-.025-.052-.373.181M2.709,85.483l0,.01.191-.078-.2.043.006.028.009.037.012.065.031.173.042.23.048.281.055.321q.061.353.121.707l.41-.07q-.059-.354-.121-.708L3.258,86.2,3.21,85.92l-.041-.233-.033-.175-.012-.064v0l-.01-.044-.006-.029L3.1,85.337l0-.009-.383.154h0m.43,1.03c-.025-.143-.048-.291-.072-.437-.037-.231-.072-.465-.114-.7l-.408.073c.04.228.075.461.113.694.023.147.048.293.072.441l.41-.07h0m3.325,15.719-.137-.537-.4.1.137.536.4-.1m-.72-1.759c.056.234.114.469.171.7l.078.319.068.283.055.233.041.174.014.061.01.042,0,.021.01.038,0,.01.389-.143,0-.01-.195.073.206-.035,0-.028,0-.013-.011-.048-.013-.06-.042-.178-.056-.234L6.4,101.4l-.078-.319c-.056-.234-.114-.469-.171-.7l-.4.1v0M10.569,116.2l.009,0L10.5,116l.011.206.044,0,.061,0,.087,0-.016-.416-.089,0h-.063l-.048,0-.071.016-.009,0,.164.383v0m.129.006c.579-.019,1.157-.029,1.738-.038l3.44-.055q2.489-.034,4.977-.061,3.131-.036,6.264-.067l0-.416q-3.132.031-6.264.067-2.489.028-4.978.063l-3.44.053c-.581.01-1.162.019-1.745.038l.013.416h0m291.4-.221,3.643.037,3.277.037,2.869.034,1.265.017,1.145.017,1.019.016.892.014.761.012.626.013c.162,0,.326.006.488.011l.191.005.16,0,.121,0,.085,0,.044,0h.01l.065-.41-.019,0-.017,0-.055,0h-.008l-.089,0-.125,0-.161,0-.191-.005-.49-.011-.627-.013-.761-.012c-.3-.005-.595-.011-.893-.014l-1.018-.016-1.146-.017-1.265-.017-2.869-.034-3.277-.037-3.644-.037,0,.416v0m-254.342-.156q14.7-.007,29.4-.009H87.819q38.392,0,76.787.009v-.416q-38.395,0-76.787-.009H77.157q-14.7,0-29.4.009v.416m254.136-.068a2.282,2.282,0,0,1-.077.443,1.455,1.455,0,0,1-.154.35l.175.11-.153-.141-.206.222-.227.075.131.4.278-.091.088-.056.241-.262.023-.032a1.816,1.816,0,0,0,.2-.451,2.43,2.43,0,0,0,.1-.53l-.413-.033h0m-274.99.031a2.444,2.444,0,0,0,.1.531,1.845,1.845,0,0,0,.2.45l.024.033.243.262.087.056.279.091.13-.394-.228-.076-.206-.222-.153.141.176-.11a1.368,1.368,0,0,1-.153-.349,2.053,2.053,0,0,1-.079-.443l-.415.03h0m137.7.037q14.563,0,29.127,0,23.883,0,47.766,0,19.977,0,39.955.009v-.416q-19.979-.011-39.956-.009-23.883,0-47.766,0-14.563,0-29.127,0v.416h0M.5,63.407l.016.055.4-.11L.9,63.3l-.4.11M.481,63.3l.01.079L.9,63.324l-.01-.079L.481,63.3m.427-.388-.031-.478-.415.026.03.478.416-.026M.626,66.65l.026.529.415-.021-.025-.529-.416.021m-.09-2.244.036.978.054,1.265.416-.017L.988,65.368l-.036-.977-.416.016h0M.489,62.924v.026L.9,62.932v-.026l-.416.018m0,.024.006.191.038,1.267.416-.013L.91,63.126.9,62.934l-.416.013h0m7.536-.5v-.143H7.609v.143h.416m-7.548.3v.522H.892v-.522H.477m21.5-.3v-.143h-.412v.143h.412m16.225,0v-.143h-.416v.143H38.2m.082,4.864V67.17h-.416v.143h.416m-.108-.137.164-4.72-.416-.014-.164,4.72.416.014m-.208-.215H.863v.416H37.975l-.006-.416m253.265.416h37.113v-.416H291.239l0,.416m37.309-5.137H290.869v.416h37.674V62.24M.67,62.656H38.343V62.24H.672l0,.416m290.776,4.5-.164-4.72-.416.014.164,4.72.416-.014m-.107.152v-.143h-.415v.143h.415m.08-4.864V62.3H291v.143h.416m16.226,0V62.3h-.415v.143h.415m20.67.3,0,.522.416,0,0-.52h-.416m-6.715-.3V62.3h-.416v.143h.416m7.094,1.4.026-.913-.416-.013-.026.914.416.012m.026-.919v-.017H328.3v.017h.416m-.136,3.719.055-1.264.036-.979.018-.557-.415-.013-.018.555-.036.977-.055,1.263.415.019h0m-.026.53.026-.529-.415-.021-.025.529.415.021m.162-4.242.03-.478-.415-.026-.031.478.415.026m-.4.3-.012.079.411.06.012-.078-.411-.062m.379.22.016-.055-.4-.11-.014.055.4.11M7.349,67.16a.637.637,0,0,0-.461-.2v.416l.161.068.3-.287h0m321.054.028q.179-2.123.316-4.249l-.415-.026q-.139,2.122-.316,4.24l.415.035M.494,62.939q.138,2.124.316,4.249l.415-.035q-.176-2.12-.315-4.24l-.416.028h0m321.832,4.023a.629.629,0,0,0-.463.2l.3.287.16-.068v-.418M.911,63.321l-.024-.1-.4.1.025.1.4-.1m20.668,3.873-.036-.058-.073-.068-.136-.077-.2.361.09.052.009.013.351-.223h0M328.7,63.425l.025-.1-.4-.106-.026.1.4.106M307.98,67.417l.009-.013.09-.052-.2-.361-.136.077-.073.068-.036.058.351.223h0" transform="translate(0 -24.114)" fill="#fff"/>
    <path id="Path_3788" data-name="Path 3788" d="M575.956,125.947a2.723,2.723,0,1,1-2.722,2.724h0a2.722,2.722,0,0,1,2.722-2.723" transform="translate(-299.147 -64.192)" fill="#fff" fill-rule="evenodd"/>
    <path id="Path_3789" data-name="Path 3789" d="M208.156,137.544a2.723,2.723,0,1,0-2.722-2.724v0a2.722,2.722,0,0,0,2.722,2.721" transform="translate(-107.208 -67.402)" fill="#fff" fill-rule="evenodd"/>
    <path id="Path_3790" data-name="Path 3790" d="M340.36,49.17l-.661,0h0l.661,0" transform="translate(-177.275 -24.125)" fill="#fff"/>
    <path id="Path_3791" data-name="Path 3791" d="M339.7,57.751h0m1.091-7.722-.451,0,.451,0h0" transform="translate(-177.275 -24.573)" fill="#fff"/>
    <path id="Path_3792" data-name="Path 3792" d="M339.7,67.521h0m0-.471h0" transform="translate(-177.275 -33.456)" fill="#fff"/>
    <path id="Path_3793" data-name="Path 3793" d="M339.922,68.9h0" transform="translate(-177.392 -34.423)" fill="#fff"/>
    <path id="Path_3794" data-name="Path 3794" d="M340.735,98.187H339.7v.265h.833v-.189h.2v-.076" transform="translate(-177.275 -49.705)" fill="#fff"/>
    <path id="Path_3795" data-name="Path 3795" d="M340.532,99.611H339.7v.049h.833v-.049" transform="translate(-177.275 -50.448)" fill="#fff"/>
    <g id="Group_1748" data-name="Group 1748" transform="translate(162.424 20.288)" opacity="0.1">
      <path id="Path_3796" data-name="Path 3796" d="M340.79,39.221H339.7v4.762l.661,0,.43,0V39.221" transform="translate(-339.699 -39.221)" fill="#fff"/>
      <path id="Path_3797" data-name="Path 3797" d="M340.79,50.029l-.451,0-.64,0v7.715h1.091V50.029" transform="translate(-339.699 -44.861)" fill="#fff"/>
      <path id="Path_3798" data-name="Path 3798" d="M339.7,67.05v.471h1.091V67.05H339.7" transform="translate(-339.699 -53.744)" fill="#fff"/>
      <path id="Path_3799" data-name="Path 3799" d="M339.7,68.9v3.5h1.091V68.9H339.7" transform="translate(-339.699 -54.711)" fill="#fff"/>
      <path id="Path_3800" data-name="Path 3800" d="M340.79,77.1H339.7v9.667h1.091V77.1" transform="translate(-339.699 -58.989)" fill="#fff"/>
      <path id="Path_3801" data-name="Path 3801" d="M340.79,100.584H339.7v15.342h1.091V100.584" transform="translate(-339.699 -71.243)" fill="#fff"/>
    </g>
    <path id="Path_3802" data-name="Path 3802" d="M340.79,72.188H339.7V72.6h1.036v.076h-.2v.189H339.7v.416h.833v.049H339.7v.416h1.091V72.188m0-10.084H339.7v.417h1.091V62.1M339.7,58.187V58.6h1.091v-.415H339.7m0-.888v.416h1.091V57.3H339.7m1.091-8.136-1.091.007v.414l1.091-.007v-.414" transform="translate(-177.275 -24.122)" fill="#fff"/>
    <path id="Path_3803" data-name="Path 3803" d="M474.4,131.473a2.722,2.722,0,1,1-2.723,2.722h0a2.722,2.722,0,0,1,2.722-2.722h0" transform="translate(-246.15 -67.075)" fill="#fff" fill-rule="evenodd"/>
    <path id="Path_3804" data-name="Path 3804" d="M578.845,39.221h-1.091v7.363l.711.031.38.016V39.221" transform="translate(-301.506 -18.933)" fill="#fff" opacity="0.1"/>
    <path id="Path_3805" data-name="Path 3805" d="M577.754,54.621h0l.711.031-.711-.031" transform="translate(-301.506 -26.969)" fill="#fff"/>
    <path id="Path_3806" data-name="Path 3806" d="M577.754,55.484v5.279h.116l.631,0h.344V55.532l-1.091-.047" transform="translate(-301.506 -27.42)" fill="#fff" opacity="0.1"/>
    <path id="Path_3807" data-name="Path 3807" d="M578.5,60.766h0m-.747,0h0m0-5.279h0l1.091.048h0l-1.091-.048" transform="translate(-301.506 -27.42)" fill="#fff"/>
    <path id="Path_3808" data-name="Path 3808" d="M577.754,67.394v.482l.946,0h.145V67.4l-.657,0h-.434" transform="translate(-301.506 -33.635)" fill="#fff"/>
    <path id="Path_3809" data-name="Path 3809" d="M579.03,67.881h0m-.644-.485h0" transform="translate(-301.836 -33.636)" fill="#fff"/>
    <path id="Path_3810" data-name="Path 3810" d="M577.754,69.271V72.6h1.091V69.275h-.328l-.764,0" transform="translate(-301.506 -34.615)" fill="#fff" opacity="0.1"/>
    <path id="Path_3811" data-name="Path 3811" d="M577.754,69.271h0l.764,0-.764,0" transform="translate(-301.506 -34.615)" fill="#fff"/>
    <path id="Path_3812" data-name="Path 3812" d="M578.845,77.1h-1.091V92.006l.3.915-.2.065v.206h-.108v2.324c.1-.008.2-.014.3-.019h.11l.155,0h.088c.145,0,.29,0,.433.013V88.014l-.228-.682.194-.065v-.214h.034V77.1" transform="translate(-301.506 -38.701)" fill="#fff" opacity="0.1"/>
    <path id="Path_3813" data-name="Path 3813" d="M578.061,95.5h0m.025,0h0m.032,0h0m.026,0h0m.023,0h0m.157,0-.155,0,.155,0m.019,0h0m.067,0h0m-.046,0h0m-.5-2.3h0m.2-.272h0m.559-5.589h0l.228.682h0l-.228-.682m.194-.278h0v.214l-.194.065.194-.065v-.214m.034-9.953h0" transform="translate(-301.506 -38.701)" fill="#fff"/>
    <path id="Path_3814" data-name="Path 3814" d="M578.551,116.433h-.025q-.226,0-.448.015h.305l.168,0h0l.168,0h.291q-.2-.012-.411-.014h-.048" transform="translate(-301.671 -59.227)" fill="#fff"/>
    <path id="Path_3815" data-name="Path 3815" d="M578.075,116.448h0m.476,0,.168,0-.168,0m0,0-.168,0h0l.168,0m.049-.013q.207,0,.411.014h0q-.2-.012-.411-.014m-.023,0h0m-.05,0q-.226,0-.448.015.222-.014.448-.015m.025,0h0" transform="translate(-301.671 -59.227)" fill="#fff"/>
    <path id="Path_3816" data-name="Path 3816" d="M578.388,117.337h-.115c-.175,0-.348.012-.519.028V119.1c.076-.009.154-.017.231-.023h.049l.082,0h0l.083,0h.27c.126,0,.252.009.376.02v-1.731q-.227-.015-.457-.015h0" transform="translate(-301.506 -59.699)" fill="#fff" opacity="0.1"/>
    <path id="Path_3817" data-name="Path 3817" d="M577.985,119.078c-.077.006-.155.014-.231.023h0c.076-.009.154-.017.231-.023m.017,0h0m.017,0h0m.015,0h0m.082,0h0m.083,0h0m.018,0h0m.018,0h0m.019,0h0m.213,0h0m-.166,0h0m.147,0h0m-.128,0h0m.112,0h0m-.093,0h0m.077,0h0m-.057,0h0m.041,0h0m-.016,0h0m-.111-1.726c-.175,0-.347.012-.519.028h0c.171-.015.344-.025.519-.028m.021,0h0m.021,0h0m.022,0h0m.022,0h0m.026,0h0m0,0h0q.23,0,.457.015h0q-.227-.015-.457-.015" transform="translate(-301.506 -59.699)" fill="#fff"/>
    <path id="Path_3818" data-name="Path 3818" d="M578.386,121.817h0l-.17,0h-.023c-.132.005-.264.016-.393.032l-.046.006v1.991a2.737,2.737,0,0,1,.56-.058h.153a2.654,2.654,0,0,1,.378.047v-2c-.141-.013-.285-.021-.43-.022h-.029" transform="translate(-301.506 -62.036)" fill="#fff" opacity="0.1"/>
    <path id="Path_3819" data-name="Path 3819" d="M577.8,121.852l-.046.006h0l.046-.006m.4-.032h0m.019,0h0m.2,0h0m-.025,0h0m0,0h0l-.17,0,.17,0h0" transform="translate(-301.506 -62.036)" fill="#fff"/>
    <path id="Path_3820" data-name="Path 3820" d="M579.08,125.951a2.716,2.716,0,0,1,.378.047h0a2.654,2.654,0,0,0-.378-.047m-.016,0h0m-.009,0h0m-.008,0h0m-.008,0h0m-.009,0h0m-.009,0h0m-.008,0h0m-.009,0h0m-.009,0h0m-.009,0h0m-.009,0h0m-.008,0h0m-.009,0h0m-.009,0h0m-.009,0h0m-.009,0h0m-.009,0h0" transform="translate(-302.119 -64.192)" fill="#fff"/>
    <path id="Path_3821" data-name="Path 3821" d="M578.384,86.334a5.273,5.273,0,0,0-.63.038v.419a4.825,4.825,0,0,1,.631-.041h0c.154,0,.308.007.459.022v-.417c-.152-.013-.306-.02-.461-.02m0-2.574h0c-.212,0-.424.009-.632.025v.851q.312-.028.631-.028h0q.23,0,.457.015v-.432h-.291l-.169,0-.168,0h-.312c.158-.011.318-.015.479-.015h0q.231,0,.459.014v-.416c-.152-.009-.305-.013-.459-.013m-.633-3.485v1.186h.108v-.206l.2-.066-.3-.915m1.091-4.953h-.034v.214l-.194.065.227.682v-.96m0-10.37h-1.091v.417h1.091v-.417m-1.091-3.742v.416l1.091,0v-.416l-1.091,0m0-.9v.416l1.091,0v-.416l-1.091,0m0-5.692v.413l1.091.047v-.414l-1.091-.047" transform="translate(-301.506 -26.97)" fill="#fff" opacity="0.1"/>
    <path id="Path_3822" data-name="Path 3822" d="M578.315,125.947h0a2.737,2.737,0,0,0-.56.058v1.276h1.091V126a2.723,2.723,0,0,0-.53-.052" transform="translate(-301.506 -64.192)" fill="#fff"/>
    <path id="Path_3823" data-name="Path 3823" d="M338.114,133.92a2.723,2.723,0,1,0-2.722-2.724h0a2.725,2.725,0,0,0,2.722,2.723" transform="translate(-175.028 -65.51)" fill="#fff" fill-rule="evenodd"/>
    <path id="Path_3824" data-name="Path 3824" d="M476.764,142.8h0m.04,0h0m-.455-.033h0m-.118-.022h0c.039.008.077.015.116.021-.039-.006-.077-.013-.116-.021" transform="translate(-248.526 -72.958)" fill="#fff"/>
    <path id="Path_3825" data-name="Path 3825" d="M477.322,153.829h-1.091v.156h1.091v-.156" transform="translate(-248.526 -78.742)" fill="#fff"/>
    <path id="Path_3826" data-name="Path 3826" d="M477.177,157.981a1.6,1.6,0,0,1,.145.067h0a1.6,1.6,0,0,0-.145-.067m-.009,0,.007,0-.007,0m-.007,0h0m-.009,0h0m-.539-.1h0m.709-2.842h0" transform="translate(-248.526 -79.367)" fill="#fff"/>
    <path id="Path_3827" data-name="Path 3827" d="M476.614,167.145h0v.416h0a1.463,1.463,0,0,0,.622-.156l.087-.045h0l-.087.045a1.463,1.463,0,0,1-.622.156h0v-.416m.551-.174a1.206,1.206,0,0,1-.11.058,1.206,1.206,0,0,0,.11-.058m.006,0-.005,0,.005,0m-.875-.646h0m.779-4.375h0m-.006,0h0m-.006,0h0m-.007,0,.005,0-.005,0m-.438-.1h0m0,0h0a1.173,1.173,0,0,1,.437.1,1.173,1.173,0,0,0-.437-.1" transform="translate(-248.526 -82.923)" fill="#fff"/>
    <path id="Path_3828" data-name="Path 3828" d="M477.322,186.967h0m0-.681h0" transform="translate(-248.526 -95.68)" fill="#fff"/>
    <path id="Path_3829" data-name="Path 3829" d="M477.322,188.58h0" transform="translate(-248.526 -96.877)" fill="#fff"/>
    <g id="Group_1749" data-name="Group 1749" transform="translate(227.705 69.788)" opacity="0.1">
      <path id="Path_3830" data-name="Path 3830" d="M477.322,142.746a2.688,2.688,0,0,1-.518.055h-.04a2.75,2.75,0,0,1-.41-.032h-.007c-.039-.006-.077-.013-.116-.021V146.2h1.091v-3.453" transform="translate(-476.231 -142.746)" fill="#fff"/>
      <path id="Path_3831" data-name="Path 3831" d="M477.322,150.838h-1.091v1.014h1.091v-1.014" transform="translate(-476.231 -146.969)" fill="#fff"/>
      <path id="Path_3832" data-name="Path 3832" d="M477.322,155.026h-1.091v2.843h.382a1.567,1.567,0,0,1,.539.1h0l.008,0h.007l.007,0h0a1.6,1.6,0,0,1,.145.067v-3.023" transform="translate(-476.231 -149.154)" fill="#fff"/>
      <path id="Path_3833" data-name="Path 3833" d="M477.322,167.359l-.087.045a1.463,1.463,0,0,1-.622.156h-.383V171.4h1.091v-4.037m-.706-5.519h-.385v1.049h.064v3.432h-.064v.823h.382v0h0a1.015,1.015,0,0,0,.441-.116h0a1.206,1.206,0,0,0,.11-.058h0l.005,0a1.343,1.343,0,0,0,.152-.107V162.1a1.177,1.177,0,0,0-.248-.154h0l0,0h-.011l-.005,0h0a1.173,1.173,0,0,0-.437-.1" transform="translate(-476.231 -152.71)" fill="#fff"/>
      <path id="Path_3834" data-name="Path 3834" d="M477.322,182.7h-1.091V184h1.091v-1.3" transform="translate(-476.231 -163.594)" fill="#fff"/>
      <path id="Path_3835" data-name="Path 3835" d="M477.322,186.286h-1.091v.681h1.091v-.681" transform="translate(-476.231 -165.468)" fill="#fff"/>
      <path id="Path_3836" data-name="Path 3836" d="M477.322,188.58h-1.091v.991h1.091v-.991" transform="translate(-476.231 -166.665)" fill="#fff"/>
      <path id="Path_3837" data-name="Path 3837" d="M477.322,191.523h-1.091v14.058h1.091V191.523" transform="translate(-476.231 -168.201)" fill="#fff"/>
      <path id="Path_3838" data-name="Path 3838" d="M477.322,169.421h-1.091v.416h1.091v-.416m0-1.407h-1.091v.416h1.091v-.416m0-1.1h-1.091v.416h1.091v-.416m0-1.716h-1.091v.416h1.091V165.2m0-4.536a1.277,1.277,0,0,1-.268.169,1.02,1.02,0,0,1-.441.115v0h-.382v.416h.383a1.463,1.463,0,0,0,.622-.156l.087-.045v-.5m-1.027-3.97h-.064v3.432h.064v-3.432m.318-1.466h-.382v.416h.385a1.167,1.167,0,0,1,.706.26v-.5a1.576,1.576,0,0,0-.709-.181m.709-3.259h-1.091v.416h1.091v-.416m0-.572h-1.091v.416h1.091V151.4m0-1.43h-1.091v.416h1.091v-.416" transform="translate(-476.231 -146.515)" fill="#fff"/>
    </g>
    <path id="Path_3839" data-name="Path 3839" d="M477.322,137.261h-1.091v2.623a2.758,2.758,0,0,0,1.091,0v-2.623" transform="translate(-248.526 -70.096)" fill="#fff"/>
    <path id="Path_3840" data-name="Path 3840" d="M211.1,143.488h-1.091v5.657q.161.011.322.015h.256c.172,0,.343-.007.513-.018v-5.657" transform="translate(-109.598 -73.346)" fill="#fff" opacity="0.1"/>
    <path id="Path_3841" data-name="Path 3841" d="M210.928,155.353h0m.015,0h0m-.19,0h0m-.022,0h0m-.022,0h0m-.023,0h0" transform="translate(-109.949 -79.536)" fill="#fff"/>
    <path id="Path_3842" data-name="Path 3842" d="M211.1,156.191q-.212.013-.426.016h-.189c-.16,0-.319-.007-.477-.016v1.015q.27.015.542.015h.146c.135,0,.269-.007.4-.014v-1.015" transform="translate(-109.598 -79.975)" fill="#fff" opacity="0.1"/>
    <path id="Path_3843" data-name="Path 3843" d="M210.574,157.221h0m.019,0h0m.018,0h0m.016,0h0m.017,0h0m.017,0h0m.018,0h0m.017,0h0m-.682-.014h0c.18.01.361.015.542.015q-.272,0-.542-.015m1.091,0c-.134.008-.268.012-.4.014.135,0,.27-.007.4-.014h0m-.562-1h0m.048,0h0m-.065,0h0m.081,0h0m-.1,0h0m.117,0h0m-.135,0h0m.188,0h0m-.666-.016h0c.158.01.317.015.477.016-.16,0-.319-.007-.477-.016m1.091,0q-.212.013-.426.016.214,0,.426-.016h0" transform="translate(-109.598 -79.975)" fill="#fff"/>
    <path id="Path_3844" data-name="Path 3844" d="M211.1,159.188l-.123.006c-.135.006-.271.008-.407.009h-.017q-.171,0-.341-.006l-.2-.009v10.825H211.1V159.188" transform="translate(-109.598 -81.539)" fill="#fff" opacity="0.1"/>
    <path id="Path_3845" data-name="Path 3845" d="M210.574,159.2h0m-.561-.014h0l.2.009-.2-.009m1.091,0-.123.006.123-.006h0" transform="translate(-109.598 -81.539)" fill="#fff"/>
    <path id="Path_3846" data-name="Path 3846" d="M211.1,182.7h-1.091V184H211.1v-1.3" transform="translate(-109.598 -93.807)" fill="#fff" opacity="0.1"/>
    <path id="Path_3847" data-name="Path 3847" d="M211.1,186.286h-1.091v.683H211.1v-.683" transform="translate(-109.598 -95.68)" fill="#fff" opacity="0.1"/>
    <path id="Path_3848" data-name="Path 3848" d="M210.187,186.969h0m.918-.683h0" transform="translate(-109.598 -95.68)" fill="#fff"/>
    <path id="Path_3849" data-name="Path 3849" d="M210.013,188.58v.991H211.1v-.991h-1.091" transform="translate(-109.598 -96.877)" fill="#fff" opacity="0.1"/>
    <path id="Path_3850" data-name="Path 3850" d="M210.013,188.579h0" transform="translate(-109.598 -96.877)" fill="#fff"/>
    <path id="Path_3851" data-name="Path 3851" d="M211.1,191.523h-1.091v14.06H211.1v-14.06" transform="translate(-109.598 -98.413)" fill="#fff" opacity="0.1"/>
    <path id="Path_3852" data-name="Path 3852" d="M211.1,172.214h-1.091v.416H211.1v-.416m-1.091-1.405v.414H211.1v-.414h-1.091m1.091-1.1h-1.091v.416H211.1v-.416m0-1.716h-1.091v.415H211.1v-.415m0-11.242c-.182.01-.365.015-.549.015s-.362-.005-.542-.015v.417q.27.014.544.014t.547-.014v-.417m-1.091-1.433v.417q.271.017.546.017t.546-.017v-.417c-.181.012-.363.018-.547.018s-.363-.006-.544-.018" transform="translate(-109.598 -79.52)" fill="#fff" opacity="0.1"/>
    <path id="Path_3853" data-name="Path 3853" d="M536.384,4.083h-.812l3.3,8.854h.715l3.3-8.854h-.823l-2.784,7.76-.054.19-.049-.19Zm-4.89.91,1.776,4.826h-3.553Zm2.93,7.945h.779l-3.351-8.854h-.715l-3.347,8.854h.785l.909-2.48H533.5Z" transform="translate(-275.432 -3.057)" fill="#fff"/>
    <path id="Path_3854" data-name="Path 3854" d="M591.862,6.11l-.8.8.8.8.8-.8Zm-3.5,7.544h1.176a8.381,8.381,0,0,0,1.586-.152,12.894,12.894,0,0,0,1.54-.393q.75-.24,1.438-.539t1.273-.585l.314-.16c.079-.042.154-.079.225-.114s.144-.069.222-.1.18-.077.306-.128c-.029-.152-.057-.291-.087-.42s-.058-.272-.087-.431c-.223-.082-.425-.164-.6-.244s-.351-.16-.517-.241-.335-.165-.506-.254-.362-.181-.572-.279q-.286-.135-.566-.263t-.549-.225a4.492,4.492,0,0,0-.533-.157,2.3,2.3,0,0,0-.517-.06,1.991,1.991,0,0,0-.95.244,2.916,2.916,0,0,0-.864.736,3.957,3.957,0,0,0-.317.431c-.074.121-.13.223-.171.307l.726.433c.029-.051.069-.119.122-.2s.114-.176.184-.273a3.182,3.182,0,0,1,.241-.292,2.156,2.156,0,0,1,.3-.265,1.478,1.478,0,0,1,.343-.192,1.051,1.051,0,0,1,.39-.073,1.449,1.449,0,0,1,.384.056,4.278,4.278,0,0,1,.436.149c.154.062.312.129.477.2s.333.147.506.219l1.614.672q-.665.335-1.378.65t-1.447.558a12.275,12.275,0,0,1-1.481.392,7.524,7.524,0,0,1-1.478.149h-1.176Zm-1.034-.552a1.134,1.134,0,0,0,.3.32,1.273,1.273,0,0,0,.33.165,1.2,1.2,0,0,0,.3.059c.089.005.16.008.21.008h.109v-.845h-.109a1.015,1.015,0,0,1-.506-.132,1.582,1.582,0,0,1-.454-.412,3.639,3.639,0,0,1-.423-.715,10.25,10.25,0,0,1-.408-1.043l-.813.249.155.512q.089.294.178.62c.06.216.113.435.162.655a5.867,5.867,0,0,1,.106.623c.007.079.011.157.011.232a2.065,2.065,0,0,1-.071.536,2.771,2.771,0,0,1-.314.718,4.2,4.2,0,0,1-.506.661,6.238,6.238,0,0,1-.637.593,8.387,8.387,0,0,1-.706.515q-.366.238-.712.428.1.206.187.374c.06.112.124.24.193.384a9.777,9.777,0,0,0,.855-.5,7.578,7.578,0,0,0,.8-.6,7.153,7.153,0,0,0,.7-.682,4.868,4.868,0,0,0,.557-.755,3.817,3.817,0,0,0,.368-.821,2.9,2.9,0,0,0,.132-.869Zm-5.875-2.84a1.44,1.44,0,0,1,.365.339,2.519,2.519,0,0,1,.3.487,3.98,3.98,0,0,1,.217.569,4.654,4.654,0,0,1,.133.582,3.4,3.4,0,0,1,.046.534h-.476q-.265,0-.544-.019a4.441,4.441,0,0,1-.547-.071,1.835,1.835,0,0,1-.485-.16,1.062,1.062,0,0,1-.357-.282.8.8,0,0,1-.168-.439,1.781,1.781,0,0,1,.094-.552,2.441,2.441,0,0,1,.25-.542,1.658,1.658,0,0,1,.349-.412.611.611,0,0,1,.395-.162A.794.794,0,0,1,581.449,10.261Zm-2.491,7.178a6.5,6.5,0,0,0,1.121-.284,5.734,5.734,0,0,0,1.034-.482,5.227,5.227,0,0,0,.893-.666,4.132,4.132,0,0,0,1.157-1.843,3.952,3.952,0,0,0,.165-1.154,5.435,5.435,0,0,0-.06-.779,5.683,5.683,0,0,0-.183-.832,5.17,5.17,0,0,0-.314-.8,3.085,3.085,0,0,0-.447-.674,2.1,2.1,0,0,0-.582-.469,1.5,1.5,0,0,0-.725-.176,1.229,1.229,0,0,0-.537.116,1.7,1.7,0,0,0-.444.309,2.105,2.105,0,0,0-.352.45,3.5,3.5,0,0,0-.257.539,3.627,3.627,0,0,0-.163.572,3.236,3.236,0,0,0-.062.549,1.968,1.968,0,0,0,.119.725,1.413,1.413,0,0,0,.336.512,1.6,1.6,0,0,0,.517.33,3.19,3.19,0,0,0,.666.184,5.453,5.453,0,0,0,.7.075c.221.009.415.014.585.014.116,0,.232,0,.352-.005a2.354,2.354,0,0,1-.344.888,3.6,3.6,0,0,1-.753.848,5.454,5.454,0,0,1-1.135.717,6.625,6.625,0,0,1-1.484.5Zm-4.982-2.55-.8.8.8.8.8-.8Zm-4.467-1.235h1.176a8.372,8.372,0,0,0,1.586-.152,12.9,12.9,0,0,0,1.541-.393q.75-.24,1.438-.539t1.272-.585l.314-.16c.079-.042.154-.079.225-.114s.144-.069.222-.1.179-.077.306-.128c-.029-.152-.058-.291-.087-.42s-.058-.272-.087-.431c-.224-.082-.425-.164-.6-.244s-.351-.16-.517-.241-.335-.165-.507-.254-.362-.181-.572-.279q-.287-.135-.566-.263t-.55-.225a4.439,4.439,0,0,0-.533-.157,2.3,2.3,0,0,0-.517-.06,2,2,0,0,0-.951.244,2.916,2.916,0,0,0-.864.736,3.973,3.973,0,0,0-.317.431,3.453,3.453,0,0,0-.171.307l.726.433c.028-.051.069-.119.122-.2s.114-.176.184-.273a3.172,3.172,0,0,1,.241-.292,2.2,2.2,0,0,1,.3-.265,1.48,1.48,0,0,1,.343-.192,1.049,1.049,0,0,1,.39-.073,1.441,1.441,0,0,1,.384.056,4.236,4.236,0,0,1,.437.149q.23.093.476.2c.164.074.333.147.506.219l1.614.672q-.665.335-1.378.65t-1.446.558a12.271,12.271,0,0,1-1.481.392,7.521,7.521,0,0,1-1.478.149h-1.176Zm-3.9,3.484a6.511,6.511,0,0,0,.87-.154,6.129,6.129,0,0,0,.858-.281,3.168,3.168,0,0,0,.744-.428,2.122,2.122,0,0,0,.526-.6,1.545,1.545,0,0,0,.205-.78.946.946,0,0,0-.034-.235,1.136,1.136,0,0,0-.131-.289,2.468,2.468,0,0,0-.251-.339,3.344,3.344,0,0,0-.4-.382h1.732v-.845l-4.175,0-.059.855c.065.011.144.027.235.049s.194.047.309.075.232.062.357.1.252.079.382.122a3.863,3.863,0,0,1,.552.246,2.532,2.532,0,0,1,.368.244.9.9,0,0,1,.2.222.371.371,0,0,1,.063.181.747.747,0,0,1-.187.5,1.661,1.661,0,0,1-.479.374,3.573,3.573,0,0,1-.653.266,6.742,6.742,0,0,1-.709.173c-.233.043-.448.074-.647.092s-.352.027-.46.027l-.409,0q-.224,0-.468-.024a4.428,4.428,0,0,1-.49-.073,2.513,2.513,0,0,1-.479-.152,2.207,2.207,0,0,1-.438-.251,1.6,1.6,0,0,1-.363-.38,2.5,2.5,0,0,1-.352-1.4,6.5,6.5,0,0,1,.209-1.514,14.093,14.093,0,0,1,.6-1.843l-.384-.157c-.123-.051-.257-.1-.4-.163a14.178,14.178,0,0,0-.623,1.839,8.05,8.05,0,0,0-.249,1.557l-.006.132v.128a3.287,3.287,0,0,0,.5,1.9,1.933,1.933,0,0,0,.617.652,3.123,3.123,0,0,0,.834.379,5.026,5.026,0,0,0,.948.179q.493.046.953.046A7.374,7.374,0,0,0,565.607,17.138Z" transform="translate(-288.933 -3.882)" fill="#fff"/>
    <path id="Path_3855" data-name="Path 3855" d="M348.685,7.821a1.366,1.366,0,0,1,.341.318,2.364,2.364,0,0,1,.276.457,3.73,3.73,0,0,1,.2.534,4.4,4.4,0,0,1,.124.546,3.209,3.209,0,0,1,.043.5h-.445c-.165,0-.334-.006-.508-.018a4.054,4.054,0,0,1-.511-.066,1.712,1.712,0,0,1-.453-.15,1,1,0,0,1-.334-.265.757.757,0,0,1-.157-.412,1.7,1.7,0,0,1,.088-.519,2.346,2.346,0,0,1,.233-.509,1.569,1.569,0,0,1,.326-.387.572.572,0,0,1,.369-.153A.74.74,0,0,1,348.685,7.821Zm-2.327,6.742a6.042,6.042,0,0,0,1.047-.267,5.392,5.392,0,0,0,.966-.453,4.872,4.872,0,0,0,.835-.626,3.917,3.917,0,0,0,.653-.788,3.869,3.869,0,0,0,.427-.944,3.705,3.705,0,0,0,.155-1.083,5.138,5.138,0,0,0-.056-.732,5.346,5.346,0,0,0-.171-.781,4.816,4.816,0,0,0-.294-.748,2.906,2.906,0,0,0-.417-.633,1.964,1.964,0,0,0-.544-.44,1.388,1.388,0,0,0-.678-.165,1.14,1.14,0,0,0-.5.109,1.589,1.589,0,0,0-.414.29,1.938,1.938,0,0,0-.329.422,3.258,3.258,0,0,0-.24.506,3.366,3.366,0,0,0-.152.536,3.075,3.075,0,0,0-.058.516,1.86,1.86,0,0,0,.111.681,1.336,1.336,0,0,0,.313.481,1.5,1.5,0,0,0,.483.31,2.977,2.977,0,0,0,.622.173,5,5,0,0,0,.651.071c.206.009.387.013.546.013.108,0,.217,0,.329-.005a2.2,2.2,0,0,1-.321.834,3.376,3.376,0,0,1-.7.8,5.108,5.108,0,0,1-1.06.673,6.186,6.186,0,0,1-1.386.468ZM343.586,8.17q.091.3.192.621c.068.213.13.428.187.643s.1.426.142.633a3.331,3.331,0,0,1,.056.585,2.159,2.159,0,0,1-.233.971,3.761,3.761,0,0,1-.618.882,5.736,5.736,0,0,1-.88.768,8.478,8.478,0,0,1-1.027.628l.349.712a9.219,9.219,0,0,0,.807-.466,7.225,7.225,0,0,0,.751-.557,6.552,6.552,0,0,0,.656-.639,4.537,4.537,0,0,0,.519-.706,3.64,3.64,0,0,0,.341-.771,2.783,2.783,0,0,0,.124-.824,4.227,4.227,0,0,0-.063-.7q-.063-.369-.155-.728t-.2-.692l-.184-.6Zm-4.093-.348a1.356,1.356,0,0,1,.341.318,2.367,2.367,0,0,1,.276.457,3.733,3.733,0,0,1,.2.534,4.393,4.393,0,0,1,.124.546,3.21,3.21,0,0,1,.043.5h-.446q-.247,0-.508-.018a4.031,4.031,0,0,1-.51-.066,1.709,1.709,0,0,1-.453-.15,1,1,0,0,1-.334-.265.756.756,0,0,1-.157-.412,1.685,1.685,0,0,1,.089-.519,2.3,2.3,0,0,1,.233-.509,1.555,1.555,0,0,1,.326-.387.573.573,0,0,1,.369-.153A.74.74,0,0,1,339.492,7.821Zm-2.327,6.742a6.042,6.042,0,0,0,1.047-.267,5.357,5.357,0,0,0,.966-.453,4.871,4.871,0,0,0,.835-.626,3.882,3.882,0,0,0,1.081-1.732,3.721,3.721,0,0,0,.154-1.083,5.138,5.138,0,0,0-.056-.732,5.358,5.358,0,0,0-.171-.781,4.825,4.825,0,0,0-.294-.748,2.885,2.885,0,0,0-.417-.633,1.974,1.974,0,0,0-.544-.44,1.387,1.387,0,0,0-.678-.165,1.142,1.142,0,0,0-.5.109,1.59,1.59,0,0,0-.415.29,1.958,1.958,0,0,0-.329.422,3.252,3.252,0,0,0-.24.506,3.428,3.428,0,0,0-.152.536,3.071,3.071,0,0,0-.058.516,1.858,1.858,0,0,0,.111.681,1.335,1.335,0,0,0,.313.481,1.506,1.506,0,0,0,.484.31,2.958,2.958,0,0,0,.622.173,4.976,4.976,0,0,0,.65.071c.206.009.388.013.546.013.108,0,.217,0,.329-.005a2.2,2.2,0,0,1-.321.834,3.374,3.374,0,0,1-.7.8,5.092,5.092,0,0,1-1.06.673,6.166,6.166,0,0,1-1.386.468Zm-3.053-3.6a2.956,2.956,0,0,0,.566-.14,2.418,2.418,0,0,0,.506-.249,1.843,1.843,0,0,0,.417-.372,1.063,1.063,0,0,0,.187-.313,1.26,1.26,0,0,0,.081-.31c.009-.093.015-.174.015-.242s0-.106-.005-.158a2.776,2.776,0,0,0-.05-.351,3.374,3.374,0,0,0-.218-.623,5.231,5.231,0,0,0-.349-.641,6.493,6.493,0,0,0-.453-.623q-.251-.3-.524-.577a6.067,6.067,0,0,0-.559-.494,4.422,4.422,0,0,0-.564-.374l-.329.743a3.776,3.776,0,0,1,.5.357,6.778,6.778,0,0,1,.589.551,7.453,7.453,0,0,1,.567.669,4.353,4.353,0,0,1,.438.7,1.812,1.812,0,0,1,.189.521c.013.117.021.189.021.216a.682.682,0,0,1-.152.442,1,1,0,0,1-.248.23,1.4,1.4,0,0,1-.306.147,1.78,1.78,0,0,1-.344.079,2.934,2.934,0,0,1-.367.023,3.233,3.233,0,0,1-.536-.046,5.086,5.086,0,0,1-.531-.12,4.548,4.548,0,0,1-.491-.17,3.441,3.441,0,0,1-.414-.2l-.339.778a1.622,1.622,0,0,0,.392.213,4.763,4.763,0,0,0,.567.191,5.751,5.751,0,0,0,.617.135,3.332,3.332,0,0,0,.539.051A4.06,4.06,0,0,0,334.112,10.959Zm-5.485-3.924a3.017,3.017,0,0,0-.693.315,3.351,3.351,0,0,0-1.1,1.106,3.215,3.215,0,0,0-.321.72,2.672,2.672,0,0,0-.116.783,1.783,1.783,0,0,0,.122.7,1.244,1.244,0,0,0,.354.478,2.078,2.078,0,0,0,.567.325,6.742,6.742,0,0,0,.759.245c.118.03.234.064.349.1a2.053,2.053,0,0,1,.309.122.712.712,0,0,1,.212.153.274.274,0,0,1,.076.191V12.3a.913.913,0,0,1-.265.534,2.178,2.178,0,0,1-.666.462,4.412,4.412,0,0,1-1.022.326,6.722,6.722,0,0,1-1.34.122,4.169,4.169,0,0,1-1.058-.127,2.463,2.463,0,0,1-.842-.389,1.834,1.834,0,0,1-.559-.663,2.075,2.075,0,0,1-.2-.946c0-.071,0-.141.008-.208s.011-.131.018-.188q.05-.331.124-.687t.165-.714c.061-.24.125-.475.192-.709s.136-.46.207-.677c-.125-.044-.251-.09-.38-.137s-.259-.1-.394-.143c-.021.061-.049.149-.086.264s-.078.251-.124.407-.094.328-.145.514-.1.38-.147.58-.092.4-.134.608-.077.4-.1.6a3.987,3.987,0,0,0-.031.494,3,3,0,0,0,.263,1.3,2.571,2.571,0,0,0,.731.926,3.184,3.184,0,0,0,1.105.557,4.941,4.941,0,0,0,1.391.186q.4,0,.87-.046a6.874,6.874,0,0,0,.92-.155,5.432,5.432,0,0,0,.875-.29,2.944,2.944,0,0,0,.741-.453,2.112,2.112,0,0,0,.514-.643,1.852,1.852,0,0,0,.192-.86,1.024,1.024,0,0,0-.13-.541,1.068,1.068,0,0,0-.336-.346,1.771,1.771,0,0,0-.479-.214c-.18-.052-.363-.1-.549-.15-.145-.034-.293-.072-.446-.115a1.746,1.746,0,0,1-.417-.175.974.974,0,0,1-.311-.288.782.782,0,0,1-.122-.455,1.459,1.459,0,0,1,.084-.471,2.207,2.207,0,0,1,.233-.483,2.632,2.632,0,0,1,.356-.448,2.7,2.7,0,0,1,.453-.372,2.066,2.066,0,0,1,.5-.242,1.73,1.73,0,0,1,.516-.081h.061a1.929,1.929,0,0,1,.424.043,2.454,2.454,0,0,1,.3.084l.094-.2.084-.175c.027-.057.055-.116.086-.178s.062-.127.1-.2l-.182-.064c-.074-.025-.158-.048-.253-.071s-.2-.041-.311-.056a2.692,2.692,0,0,0-.356-.023A2.479,2.479,0,0,0,328.627,7.035ZM313,11.008h1.447a3,3,0,0,0,.974-.153,2.409,2.409,0,0,0,.777-.427,1.955,1.955,0,0,0,.514-.659,1.923,1.923,0,0,0,.185-.841,2.6,2.6,0,0,0-.061-.536,3.056,3.056,0,0,0-.2-.606,4.761,4.761,0,0,0-.372-.667,6.234,6.234,0,0,0-.569-.724,6.994,6.994,0,0,0-.619-.626q-.327-.29-.615-.534l3.683-1.556q-.076-.183-.157-.364c-.053-.12-.107-.245-.162-.374l-4.007,1.724-.106.926q.5.453.941.867a9.347,9.347,0,0,1,.779.811,4.175,4.175,0,0,1,.531.786,1.733,1.733,0,0,1,.2.79,1.337,1.337,0,0,1-.106.565,1.089,1.089,0,0,1-.288.381,1.327,1.327,0,0,1-.428.237,3.06,3.06,0,0,1-.526.128,4.54,4.54,0,0,1-.582.05c-.2.006-.4.008-.594.008H313Zm.2,0v-.794h-.146a2.356,2.356,0,0,1-.536-.051.694.694,0,0,1-.341-.18A.721.721,0,0,1,312,9.64a2.309,2.309,0,0,1-.053-.544q0-.387.005-.773V7.931q0-.58-.005-1.205,0-.437-.008-.892c0-.3-.014-.6-.027-.877s-.03-.544-.051-.788-.045-.456-.076-.636l-.79.143q.046.341.076.773t.045.918q.015.485.023,1c.005.342.008.68.008,1.012s0,.653,0,.961,0,.589,0,.839a2.369,2.369,0,0,0,.134.847,1.4,1.4,0,0,0,.387.567,1.548,1.548,0,0,0,.617.318,3.158,3.158,0,0,0,.825.1Zm-5.342,1.17-.744.748.744.748.744-.748Zm-1.634-1.17h.8a4.8,4.8,0,0,0,.741-.053,2.31,2.31,0,0,0,.62-.183,1.621,1.621,0,0,0,.488-.348,1.917,1.917,0,0,0,.356-.544,1.407,1.407,0,0,0,.124-.44c.012-.134.018-.244.018-.328,0-.1-.005-.206-.015-.311a4.245,4.245,0,0,0-.107-.592c-.05-.2-.108-.4-.171-.593s-.132-.381-.205-.562-.141-.35-.2-.506l-.713.362c.05.132.107.277.169.435s.122.32.177.488.107.336.155.506a3.965,3.965,0,0,1,.1.455,2.387,2.387,0,0,1,.03.354l-.006.1a.677.677,0,0,1-.086.32,1.171,1.171,0,0,1-.29.346,1.245,1.245,0,0,1-.375.2,1.979,1.979,0,0,1-.465.089q-.256.02-.559.02h-.587Zm-6.456-1.9a2.217,2.217,0,0,0-.149.315,4.663,4.663,0,0,0-.182.554,7.242,7.242,0,0,0-.155.725,5.1,5.1,0,0,0-.066.827,2.974,2.974,0,0,0,.131.915,2.707,2.707,0,0,0,.352.72,2.4,2.4,0,0,0,.516.536,3.154,3.154,0,0,0,.622.369,3.115,3.115,0,0,0,.665.211,3.416,3.416,0,0,0,.653.066,3.72,3.72,0,0,0,.691-.069,3.363,3.363,0,0,0,.716-.223,3.268,3.268,0,0,0,.673-.4,2.608,2.608,0,0,0,.561-.595,2.966,2.966,0,0,0,.387-.817,3.575,3.575,0,0,0,.144-1.061v-.223c0-.079,0-.159,0-.244.024.017.062.041.114.073a1.177,1.177,0,0,0,.2.1,1.982,1.982,0,0,0,.291.087,1.851,1.851,0,0,0,.4.038h.1v-.794h-.1a1.185,1.185,0,0,1-.38-.061.874.874,0,0,1-.326-.2,1.04,1.04,0,0,1-.235-.353,1.55,1.55,0,0,1-.106-.527q-.036-.7-.056-1.4t-.038-1.4q-.018-.7-.045-1.409t-.074-1.437q-.212.01-.389.023c-.119.008-.252.014-.4.017,0,.1.009.252.018.468s.019.477.033.779.028.636.043,1,.031.75.048,1.147.032.8.045,1.2.026.8.038,1.175.021.732.028,1.063.011.619.011.867a2.6,2.6,0,0,1-.106.77,2.2,2.2,0,0,1-.288.606,2.069,2.069,0,0,1-.423.45,2.509,2.509,0,0,1-1.057.489,2.8,2.8,0,0,1-.539.056,2.3,2.3,0,0,1-.8-.14,2.043,2.043,0,0,1-.67-.4,1.988,1.988,0,0,1-.465-.638,2.073,2.073,0,0,1-.185-.841v-.1a4.722,4.722,0,0,1,.026-.514,3.437,3.437,0,0,1,.1-.519,4.719,4.719,0,0,1,.157-.478c.06-.155.13-.319.207-.488Zm-5.7,1.948q.057-.839.076-1.584t.021-1.432q0-.442-.008-.832c0-.26-.01-.507-.018-.745q-.005-.132-.015-.366c-.007-.156-.016-.331-.028-.526s-.025-.4-.038-.621-.028-.434-.043-.646-.033-.413-.053-.6-.04-.357-.061-.5l-.794.123q.02.162.063.559t.088,1q.046.6.079,1.4t.033,1.746q0,.7-.023,1.422t-.073,1.559Zm-3.2.977-.739.743.749.753.734-.743Zm-1.8-.01-.739.748.749.748.739-.743ZM288,11.008h1.159a6.366,6.366,0,0,0,.844-.053,3.064,3.064,0,0,0,.726-.183,1.916,1.916,0,0,0,.572-.348,1.6,1.6,0,0,0,.392-.544,1.4,1.4,0,0,0,.124-.44c.012-.134.018-.244.018-.328q0-.153-.015-.311a4.315,4.315,0,0,0-.106-.592q-.076-.3-.172-.593t-.206-.562q-.108-.272-.2-.506l-.713.362c.051.132.107.277.17.435s.122.32.177.488.107.336.155.506a4.112,4.112,0,0,1,.1.455,2.459,2.459,0,0,1,.03.354l-.006.1a.689.689,0,0,1-.085.32.949.949,0,0,1-.342.346,1.84,1.84,0,0,1-.485.2,3.173,3.173,0,0,1-.58.089q-.308.02-.612.02H288Zm-1.958-6.175-.744.748.744.748.744-.748Zm2.059,5.381a.813.813,0,0,1-.47-.125.917.917,0,0,1-.289-.315,1.446,1.446,0,0,1-.151-.417,3.343,3.343,0,0,1-.061-.429c-.014-.166-.027-.318-.041-.453s-.028-.26-.043-.374-.033-.222-.053-.326-.044-.206-.071-.308c-.132.037-.255.074-.372.11s-.246.072-.387.109a4.666,4.666,0,0,1,.139.646,4.3,4.3,0,0,1,.038.56,1.2,1.2,0,0,1-.41.989,2.074,2.074,0,0,1-1.311.333h-.187v.794h.187a3.931,3.931,0,0,0,1.23-.168,2.156,2.156,0,0,0,.855-.514,1.872,1.872,0,0,0,.571.491,1.657,1.657,0,0,0,.825.191h.1v-.794Zm-4.731-5.483-.739.743.749.753.734-.743Zm-1.8-.01-.739.748.749.748.739-.743Zm2.965,5.493a.816.816,0,0,1-.471-.125.92.92,0,0,1-.288-.315,1.444,1.444,0,0,1-.152-.417,3.543,3.543,0,0,1-.06-.429c-.013-.166-.027-.318-.04-.453s-.028-.26-.043-.374-.033-.222-.053-.326-.044-.206-.071-.308c-.131.037-.255.074-.372.11s-.245.072-.387.109a4.754,4.754,0,0,1,.139.646,4.211,4.211,0,0,1,.038.56,1.511,1.511,0,0,1-.1.577.955.955,0,0,1-.326.412,1.587,1.587,0,0,1-.587.25,3.963,3.963,0,0,1-.878.084h-.759v.794h.759a6.256,6.256,0,0,0,.782-.043,3.565,3.565,0,0,0,.612-.128,2.115,2.115,0,0,0,.48-.211,1.983,1.983,0,0,0,.382-.3,1.869,1.869,0,0,0,.572.491,1.652,1.652,0,0,0,.825.191h.1v-.794Zm-5.378.275a1.047,1.047,0,0,0,.284.3,1.2,1.2,0,0,0,.308.155,1.178,1.178,0,0,0,.279.056c.084.005.15.008.2.008h.1v-.794h-.1a.94.94,0,0,1-.473-.125,1.467,1.467,0,0,1-.424-.386,3.414,3.414,0,0,1-.4-.671,9.827,9.827,0,0,1-.382-.979l-.759.234q.061.2.145.481t.167.582q.083.306.152.616a5.554,5.554,0,0,1,.1.585c.007.074.01.147.01.218a1.97,1.97,0,0,1-.066.5,2.608,2.608,0,0,1-.293.673,3.952,3.952,0,0,1-.473.621,5.827,5.827,0,0,1-.595.557q-.319.259-.66.484t-.665.4c.061.129.119.246.175.351s.116.226.18.361a9.051,9.051,0,0,0,.8-.465,7.285,7.285,0,0,0,.749-.56,6.688,6.688,0,0,0,.655-.641,4.581,4.581,0,0,0,.521-.71,3.556,3.556,0,0,0,.344-.77,2.721,2.721,0,0,0,.124-.816Zm-5.206-6.515-.744.748.744.748.744-.748Zm-1.614,7.034h.805a4.788,4.788,0,0,0,.74-.053,2.308,2.308,0,0,0,.621-.183,1.61,1.61,0,0,0,.488-.348,1.93,1.93,0,0,0,.357-.544,1.406,1.406,0,0,0,.124-.44c.012-.134.018-.244.018-.328,0-.1-.006-.206-.015-.311a4.314,4.314,0,0,0-.107-.592q-.076-.3-.171-.593t-.206-.562q-.108-.272-.2-.506l-.713.362c.05.132.108.277.17.435s.122.32.177.488.108.336.155.506a4.106,4.106,0,0,1,.1.455,2.463,2.463,0,0,1,.03.354l-.006.1a.683.683,0,0,1-.086.32,1.172,1.172,0,0,1-.291.346,1.235,1.235,0,0,1-.374.2,1.986,1.986,0,0,1-.465.089q-.256.02-.559.02h-.587Zm-5.1-5.635-.739.743.749.752.733-.743Zm-1.8-.011-.739.748.749.748.739-.743Zm6.917,4.852a1.588,1.588,0,0,1-.511-.091,1.52,1.52,0,0,1-.488-.275A1.449,1.449,0,0,1,271,9.406a1.232,1.232,0,0,1-.137-.585V8.775a1.8,1.8,0,0,1,.015-.218c.01-.082.022-.165.035-.252s.029-.171.048-.255.037-.155.054-.216l-.769-.214c-.03.1-.073.232-.126.4a2.573,2.573,0,0,1-.255.539,3.109,3.109,0,0,1-.471.583,3.024,3.024,0,0,1-.759.534,4.765,4.765,0,0,1-1.128.39,7.271,7.271,0,0,1-1.576.149,7.866,7.866,0,0,1-1.143-.076,4.91,4.91,0,0,1-.931-.221,3.159,3.159,0,0,1-.708-.346,1.767,1.767,0,0,1-.476-.456.818.818,0,0,1-.166-.407c-.011-.129-.016-.227-.016-.295a2.271,2.271,0,0,1,.03-.367,3.8,3.8,0,0,1,.131-.559c.058-.18.109-.331.157-.453q-.187-.1-.349-.2t-.355-.2a4.266,4.266,0,0,0-.451,1.76v.066a2.108,2.108,0,0,0,.5,1.376,3.074,3.074,0,0,0,1.434.873,7.821,7.821,0,0,0,2.34.31,10.04,10.04,0,0,0,1.4-.1,6.121,6.121,0,0,0,1.146-.28,4.36,4.36,0,0,0,.933-.463,4.539,4.539,0,0,0,.771-.649,1.9,1.9,0,0,0,.321.649,1.987,1.987,0,0,0,.5.46,2.3,2.3,0,0,0,.63.275,2.691,2.691,0,0,0,.7.091h.213v-.794Z" transform="translate(-142.084 -7.805)" fill="#fff"/>
    <path id="Path_3856" data-name="Path 3856" d="M212.8,238.723a1.375,1.375,0,0,1,.347.321,2.441,2.441,0,0,1,.28.462,3.9,3.9,0,0,1,.205.539,4.417,4.417,0,0,1,.126.551,3.3,3.3,0,0,1,.043.506h-.452c-.168,0-.339-.006-.516-.019a4.144,4.144,0,0,1-.518-.066,1.735,1.735,0,0,1-.459-.151,1.017,1.017,0,0,1-.339-.267.761.761,0,0,1-.159-.416,1.706,1.706,0,0,1,.089-.523,2.337,2.337,0,0,1,.237-.513,1.573,1.573,0,0,1,.331-.39.581.581,0,0,1,.374-.154A.75.75,0,0,1,212.8,238.723Zm-2.361,6.8a6.153,6.153,0,0,0,1.063-.269,5.485,5.485,0,0,0,.98-.457,4.941,4.941,0,0,0,.847-.631,3.956,3.956,0,0,0,.662-.8,3.892,3.892,0,0,0,.433-.952,3.718,3.718,0,0,0,.156-1.093,5.233,5.233,0,0,0-.056-.739,5.382,5.382,0,0,0-.174-.788,4.8,4.8,0,0,0-.3-.754,2.931,2.931,0,0,0-.423-.639,1.99,1.99,0,0,0-.551-.444,1.417,1.417,0,0,0-.688-.167,1.162,1.162,0,0,0-.508.11,1.594,1.594,0,0,0-.42.293,1.959,1.959,0,0,0-.334.426,3.28,3.28,0,0,0-.244.511,3.386,3.386,0,0,0-.154.541,3.029,3.029,0,0,0-.059.521,1.865,1.865,0,0,0,.114.688,1.339,1.339,0,0,0,.318.485,1.52,1.52,0,0,0,.49.313,3,3,0,0,0,.631.174,5.079,5.079,0,0,0,.66.072c.209.009.393.013.554.013.11,0,.221,0,.334-.005a2.219,2.219,0,0,1-.326.842,3.4,3.4,0,0,1-.713.8,5.154,5.154,0,0,1-1.075.68,6.309,6.309,0,0,1-1.407.473Zm-2.812-6.452q.093.3.2.627c.069.215.132.432.19.649s.106.43.144.639a3.329,3.329,0,0,1,.056.59,2.161,2.161,0,0,1-.236.98,3.775,3.775,0,0,1-.626.89,5.755,5.755,0,0,1-.893.775,8.6,8.6,0,0,1-1.042.634l.354.719a9.374,9.374,0,0,0,.819-.47,7.458,7.458,0,0,0,.762-.562,6.63,6.63,0,0,0,.665-.645,4.54,4.54,0,0,0,.526-.713,3.636,3.636,0,0,0,.347-.778,2.794,2.794,0,0,0,.125-.831,4.24,4.24,0,0,0-.064-.711q-.064-.373-.157-.734t-.2-.7l-.187-.6Zm-4.152-.351a1.383,1.383,0,0,1,.346.321,2.443,2.443,0,0,1,.28.462,3.9,3.9,0,0,1,.205.539,4.423,4.423,0,0,1,.126.551,3.225,3.225,0,0,1,.043.506h-.452c-.168,0-.339-.006-.516-.019a4.143,4.143,0,0,1-.518-.066,1.742,1.742,0,0,1-.459-.151,1.023,1.023,0,0,1-.339-.267.761.761,0,0,1-.159-.416,1.706,1.706,0,0,1,.089-.523,2.337,2.337,0,0,1,.237-.513,1.573,1.573,0,0,1,.331-.39.582.582,0,0,1,.374-.154A.754.754,0,0,1,203.479,238.723Zm-2.362,6.8a6.153,6.153,0,0,0,1.063-.269,5.484,5.484,0,0,0,.98-.457,4.939,4.939,0,0,0,.847-.631,3.954,3.954,0,0,0,.662-.8,3.892,3.892,0,0,0,.433-.952,3.718,3.718,0,0,0,.157-1.093,5.238,5.238,0,0,0-.057-.739,5.311,5.311,0,0,0-.174-.788,4.8,4.8,0,0,0-.3-.754,2.934,2.934,0,0,0-.423-.639,1.991,1.991,0,0,0-.551-.444,1.415,1.415,0,0,0-.688-.167,1.162,1.162,0,0,0-.508.11,1.594,1.594,0,0,0-.42.293,1.96,1.96,0,0,0-.334.426,3.336,3.336,0,0,0-.244.511,3.444,3.444,0,0,0-.154.541,3.026,3.026,0,0,0-.058.521,1.866,1.866,0,0,0,.113.688,1.346,1.346,0,0,0,.318.485,1.52,1.52,0,0,0,.49.313,3,3,0,0,0,.631.174,5.079,5.079,0,0,0,.66.072c.209.009.393.013.554.013.11,0,.221,0,.334-.005a2.21,2.21,0,0,1-.326.842,3.409,3.409,0,0,1-.713.8,5.183,5.183,0,0,1-1.075.68,6.327,6.327,0,0,1-1.406.473Zm-3.1-3.637a3.01,3.01,0,0,0,.575-.141,2.469,2.469,0,0,0,.513-.251,1.878,1.878,0,0,0,.423-.375,1.072,1.072,0,0,0,.19-.316,1.263,1.263,0,0,0,.083-.313c.01-.094.015-.175.015-.244s0-.107-.006-.159a2.778,2.778,0,0,0-.051-.354,3.437,3.437,0,0,0-.22-.629,5.269,5.269,0,0,0-.354-.647,6.542,6.542,0,0,0-.46-.629,7.857,7.857,0,0,0-.531-.582,6.076,6.076,0,0,0-.567-.5,4.374,4.374,0,0,0-.572-.377l-.334.749a3.726,3.726,0,0,1,.505.359,6.793,6.793,0,0,1,.6.557,7.539,7.539,0,0,1,.575.675,4.351,4.351,0,0,1,.444.708,1.809,1.809,0,0,1,.193.526c.013.118.02.191.02.218a.691.691,0,0,1-.153.447,1.025,1.025,0,0,1-.252.231,1.421,1.421,0,0,1-.31.148,1.774,1.774,0,0,1-.349.08,3,3,0,0,1-.372.023,3.294,3.294,0,0,1-.544-.046,5.155,5.155,0,0,1-.539-.121,4.548,4.548,0,0,1-.5-.172,3.5,3.5,0,0,1-.42-.205l-.344.785a1.619,1.619,0,0,0,.4.215,4.838,4.838,0,0,0,.575.192,5.877,5.877,0,0,0,.627.136,3.4,3.4,0,0,0,.546.052A4.14,4.14,0,0,0,198.02,241.889Zm-5.564-3.96a3.061,3.061,0,0,0-.7.319,3.387,3.387,0,0,0-1.114,1.116,3.208,3.208,0,0,0-.326.726,2.684,2.684,0,0,0-.118.79,1.8,1.8,0,0,0,.123.708,1.263,1.263,0,0,0,.359.482,2.094,2.094,0,0,0,.575.328,6.865,6.865,0,0,0,.77.247c.12.03.238.064.354.1a2.053,2.053,0,0,1,.313.123.724.724,0,0,1,.216.154.275.275,0,0,1,.077.192v.026a.924.924,0,0,1-.27.539,2.2,2.2,0,0,1-.675.467,4.471,4.471,0,0,1-1.037.329,6.848,6.848,0,0,1-1.36.123,4.25,4.25,0,0,1-1.073-.128,2.494,2.494,0,0,1-.854-.393,1.853,1.853,0,0,1-.567-.67,2.085,2.085,0,0,1-.205-.955c0-.072,0-.142.007-.21s.011-.132.019-.19q.051-.334.125-.694t.167-.721c.061-.242.126-.48.2-.716s.138-.464.21-.683c-.127-.044-.255-.09-.385-.138s-.264-.1-.4-.144q-.031.092-.087.267t-.126.41c-.047.157-.095.331-.146.518s-.1.383-.149.585-.093.406-.136.613-.078.408-.105.6a4.133,4.133,0,0,0-.03.5,3.013,3.013,0,0,0,.266,1.309,2.6,2.6,0,0,0,.742.934,3.237,3.237,0,0,0,1.122.562,5.034,5.034,0,0,0,1.411.188q.411,0,.883-.046a7.025,7.025,0,0,0,.934-.157,5.533,5.533,0,0,0,.888-.292,2.989,2.989,0,0,0,.752-.457,2.133,2.133,0,0,0,.521-.649,1.861,1.861,0,0,0,.194-.867,1.03,1.03,0,0,0-.131-.546,1.083,1.083,0,0,0-.341-.349,1.823,1.823,0,0,0-.485-.216c-.183-.053-.369-.1-.557-.151-.147-.034-.3-.073-.452-.116a1.767,1.767,0,0,1-.423-.177.985.985,0,0,1-.315-.291.782.782,0,0,1-.124-.459,1.479,1.479,0,0,1,.085-.475,2.274,2.274,0,0,1,.236-.487,2.785,2.785,0,0,1,.821-.827,2.108,2.108,0,0,1,.51-.244,1.769,1.769,0,0,1,.524-.082h.061a1.968,1.968,0,0,1,.431.043,2.41,2.41,0,0,1,.3.085l.1-.2c.029-.06.057-.119.084-.177s.057-.118.088-.18l.1-.2-.186-.065c-.075-.025-.161-.049-.257-.071s-.2-.042-.315-.057a2.751,2.751,0,0,0-.362-.023A2.526,2.526,0,0,0,192.456,237.93Zm-12.624,5.189-.754.754.754.754.754-.754Zm-1.658-1.181h.816a4.881,4.881,0,0,0,.752-.054,2.354,2.354,0,0,0,.629-.185,1.645,1.645,0,0,0,.5-.351,1.947,1.947,0,0,0,.362-.549,1.41,1.41,0,0,0,.125-.444c.012-.135.018-.246.018-.331,0-.1-.005-.207-.015-.314a4.339,4.339,0,0,0-.108-.6q-.077-.306-.174-.6t-.208-.567q-.111-.275-.208-.511l-.723.365c.051.133.108.28.171.439s.124.323.18.492.108.34.157.51a4.02,4.02,0,0,1,.1.459,2.462,2.462,0,0,1,.03.357l-.005.1a.686.686,0,0,1-.088.323,1.182,1.182,0,0,1-.295.349,1.259,1.259,0,0,1-.38.2,2.018,2.018,0,0,1-.472.09q-.259.02-.567.02h-.6Zm-.98-.524a1.06,1.06,0,0,0,.288.3,1.216,1.216,0,0,0,.313.157,1.173,1.173,0,0,0,.283.056c.085.005.152.008.2.008h.1v-.8h-.1a.962.962,0,0,1-.48-.125,1.5,1.5,0,0,1-.431-.39,3.44,3.44,0,0,1-.4-.677,9.888,9.888,0,0,1-.387-.988l-.77.236q.062.2.147.485c.056.187.112.382.169.587s.108.413.155.621a5.714,5.714,0,0,1,.1.591c.006.075.01.148.01.22a1.978,1.978,0,0,1-.067.508,2.627,2.627,0,0,1-.3.68,4.045,4.045,0,0,1-.48.626,5.9,5.9,0,0,1-.6.562q-.324.261-.67.488t-.676.405c.062.13.121.248.178.354s.117.228.182.364a9.182,9.182,0,0,0,.811-.469,7.335,7.335,0,0,0,.76-.565,6.83,6.83,0,0,0,.665-.646,4.659,4.659,0,0,0,.528-.716,3.579,3.579,0,0,0,.349-.777,2.733,2.733,0,0,0,.126-.824Zm-5.589-6.344-.749.749.76.76.744-.749Zm-1.827-.01-.749.754.759.754.749-.749Zm2.094,7.907a2.488,2.488,0,0,1-.6.783,2.611,2.611,0,0,1-.872.5,3.4,3.4,0,0,1-1.119.175,3.49,3.49,0,0,1-.908-.105,2.4,2.4,0,0,1-.662-.283,1.71,1.71,0,0,1-.454-.41,2.082,2.082,0,0,1-.28-.492,2.339,2.339,0,0,1-.141-.524,3.445,3.445,0,0,1-.038-.5,3.683,3.683,0,0,1,.071-.737,4.482,4.482,0,0,1,.18-.646,4.8,4.8,0,0,1,.225-.526c.079-.154.149-.279.211-.375l-.657-.482q-.164.272-.315.585a5.808,5.808,0,0,0-.27.659,5.446,5.446,0,0,0-.19.721,4.087,4.087,0,0,0-.072.77,3.653,3.653,0,0,0,.227,1.332,2.622,2.622,0,0,0,.652.983,2.9,2.9,0,0,0,1.034.616,4.346,4.346,0,0,0,1.373.231,4.6,4.6,0,0,0,1.5-.234,3.041,3.041,0,0,0,1.168-.713,3.236,3.236,0,0,0,.757-1.216,5.1,5.1,0,0,0,.269-1.748,5.317,5.317,0,0,0-.056-.739,5.456,5.456,0,0,0-.175-.788,4.8,4.8,0,0,0-.3-.754,2.955,2.955,0,0,0-.424-.639,1.991,1.991,0,0,0-.551-.444,1.415,1.415,0,0,0-.688-.167,1.16,1.16,0,0,0-.508.11,1.6,1.6,0,0,0-.421.293,1.959,1.959,0,0,0-.334.426,3.283,3.283,0,0,0-.244.511,3.384,3.384,0,0,0-.153.541,2.978,2.978,0,0,0-.06.521,1.877,1.877,0,0,0,.114.688,1.333,1.333,0,0,0,.318.485,1.517,1.517,0,0,0,.49.313,3.007,3.007,0,0,0,.631.174,5.088,5.088,0,0,0,.663.072c.21.009.4.013.557.013.109,0,.219,0,.328-.005A2.965,2.965,0,0,1,171.871,242.968Zm-.688-4.243a1.393,1.393,0,0,1,.347.329,2.623,2.623,0,0,1,.28.467,3.791,3.791,0,0,1,.205.544,4.487,4.487,0,0,1,.126.56,3.33,3.33,0,0,1,.043.508h-.459c-.173,0-.35-.007-.531-.023a4.527,4.527,0,0,1-.531-.076,1.861,1.861,0,0,1-.465-.16.948.948,0,0,1-.331-.272.67.67,0,0,1-.126-.418,1.707,1.707,0,0,1,.09-.523,2.334,2.334,0,0,1,.236-.513,1.573,1.573,0,0,1,.331-.39.582.582,0,0,1,.374-.154A.743.743,0,0,1,171.183,238.725Z" transform="translate(-86.621 -120.134)" fill="#fff"/>
    <path id="Path_3857" data-name="Path 3857" d="M443.858,232.549h-.681v8.063h.681Zm-10.416,0v8.063h.681v-3.536l-.054-3.546,2.989,7.082h.527l3-7.111-.054,3.6v3.511h.68v-8.063H440.3l-2.984,7.117-2.974-7.117Zm-4.936.582a2.581,2.581,0,0,1,2,.841,3.189,3.189,0,0,1,.757,2.226v.71a3.258,3.258,0,0,1-.769,2.284,2.63,2.63,0,0,1-2.042.843h-1.529v-6.9Zm-.059,7.481a3.618,3.618,0,0,0,1.825-.454,3.113,3.113,0,0,0,1.231-1.29,4.083,4.083,0,0,0,.436-1.916v-.745a4.077,4.077,0,0,0-.439-1.916A3.109,3.109,0,0,0,430.274,233a3.508,3.508,0,0,0-1.778-.452h-2.254v8.063Zm-4.029-8.063h-.685v3.62h-4.606v-3.62h-.681v8.063h.681v-3.867h4.606v3.867h.685Z" transform="translate(-218.37 -117.107)" fill="#fff"/>
    <path id="Path_3858" data-name="Path 3858" d="M500.671,234.576l-.725.725.725.725.725-.725Zm-3.191,6.87h1.07a7.63,7.63,0,0,0,1.445-.138,11.854,11.854,0,0,0,1.4-.358q.683-.22,1.31-.49t1.159-.533c.118-.059.213-.107.286-.145s.14-.072.2-.1.131-.063.2-.093.164-.07.279-.116c-.026-.138-.053-.265-.079-.382s-.053-.247-.079-.392c-.2-.075-.387-.15-.55-.222s-.32-.145-.471-.219-.3-.151-.461-.232-.33-.165-.52-.254q-.262-.122-.516-.239t-.5-.2a4.088,4.088,0,0,0-.486-.143,2.1,2.1,0,0,0-.471-.055,1.815,1.815,0,0,0-.865.222,2.639,2.639,0,0,0-.786.67,3.56,3.56,0,0,0-.289.392c-.068.11-.119.2-.156.279l.661.395c.026-.046.063-.108.111-.185s.1-.16.168-.249a2.888,2.888,0,0,1,.219-.266,1.968,1.968,0,0,1,.269-.241,1.357,1.357,0,0,1,.313-.175.957.957,0,0,1,.355-.066,1.319,1.319,0,0,1,.35.051,3.893,3.893,0,0,1,.4.136c.14.056.284.118.434.185s.3.134.461.2l1.47.612q-.606.305-1.255.592t-1.317.508a11.285,11.285,0,0,1-1.349.357,6.851,6.851,0,0,1-1.346.136h-1.07Zm-.943-.5a1.033,1.033,0,0,0,.277.291,1.17,1.17,0,0,0,.3.151,1.116,1.116,0,0,0,.272.054c.082,0,.146.008.192.008h.1v-.77h-.1a.921.921,0,0,1-.461-.12,1.434,1.434,0,0,1-.414-.375,3.331,3.331,0,0,1-.385-.651,9.516,9.516,0,0,1-.372-.95l-.74.227.14.466q.081.269.163.564c.055.2.1.4.148.6a5.221,5.221,0,0,1,.1.568c.006.072.01.143.01.212a1.9,1.9,0,0,1-.064.488,2.527,2.527,0,0,1-.286.654,3.848,3.848,0,0,1-.461.6,5.724,5.724,0,0,1-.58.54q-.311.251-.644.469t-.649.389q.089.187.17.34c.055.1.113.219.175.35a8.888,8.888,0,0,0,.779-.451,7.051,7.051,0,0,0,.73-.543,6.544,6.544,0,0,0,.638-.621,4.454,4.454,0,0,0,.508-.688,3.494,3.494,0,0,0,.335-.747,2.644,2.644,0,0,0,.12-.791Zm-5.124-2.586a1.311,1.311,0,0,1,.333.308,2.292,2.292,0,0,1,.269.443,3.679,3.679,0,0,1,.2.518,4.333,4.333,0,0,1,.12.53,3.093,3.093,0,0,1,.042.486h-.434q-.241,0-.5-.018a3.954,3.954,0,0,1-.5-.064,1.678,1.678,0,0,1-.442-.145.975.975,0,0,1-.325-.257.732.732,0,0,1-.153-.4,1.624,1.624,0,0,1,.086-.5,2.22,2.22,0,0,1,.227-.493,1.513,1.513,0,0,1,.318-.375.557.557,0,0,1,.36-.148A.724.724,0,0,1,491.414,238.356Zm-2.269,6.536a5.933,5.933,0,0,0,1.021-.259,5.268,5.268,0,0,0,.941-.439,4.765,4.765,0,0,0,.814-.607,3.8,3.8,0,0,0,.636-.764,3.758,3.758,0,0,0,.417-.915,3.588,3.588,0,0,0,.15-1.051,4.951,4.951,0,0,0-.055-.71,5.088,5.088,0,0,0-.167-.757,4.649,4.649,0,0,0-.286-.725,2.816,2.816,0,0,0-.407-.614,1.915,1.915,0,0,0-.53-.427,1.357,1.357,0,0,0-.661-.16,1.12,1.12,0,0,0-.489.106,1.549,1.549,0,0,0-.4.281,1.881,1.881,0,0,0-.32.409,3.146,3.146,0,0,0-.234.491,3.247,3.247,0,0,0-.148.52,2.91,2.91,0,0,0-.057.5,1.794,1.794,0,0,0,.109.661,1.288,1.288,0,0,0,.306.466,1.46,1.46,0,0,0,.471.3,2.883,2.883,0,0,0,.607.167,4.872,4.872,0,0,0,.634.069c.2.009.378.012.532.012.105,0,.212,0,.321,0a2.141,2.141,0,0,1-.313.809,3.292,3.292,0,0,1-.685.772,4.966,4.966,0,0,1-1.033.653,6.059,6.059,0,0,1-1.351.454Zm-4.31-2.322-.724.725.724.725.725-.725Zm-4.068-1.125h1.071a7.626,7.626,0,0,0,1.444-.138,11.864,11.864,0,0,0,1.4-.358q.683-.22,1.31-.49t1.159-.533l.286-.145c.072-.038.14-.072.2-.1s.131-.063.2-.093.163-.07.279-.116c-.026-.138-.052-.265-.079-.382s-.053-.247-.079-.392c-.2-.075-.387-.15-.549-.222s-.32-.145-.471-.219-.305-.151-.461-.232-.329-.165-.521-.254q-.261-.122-.515-.239t-.5-.2a4.058,4.058,0,0,0-.485-.143,2.1,2.1,0,0,0-.471-.055,1.817,1.817,0,0,0-.866.222,2.646,2.646,0,0,0-.786.67,3.612,3.612,0,0,0-.288.392,3.184,3.184,0,0,0-.156.279l.661.395c.026-.046.063-.108.111-.185s.1-.16.167-.249a2.887,2.887,0,0,1,.219-.266,2.01,2.01,0,0,1,.27-.241,1.351,1.351,0,0,1,.313-.175.956.956,0,0,1,.355-.066,1.312,1.312,0,0,1,.349.051,3.86,3.86,0,0,1,.4.136q.209.084.434.185c.15.067.3.134.461.2l1.47.612q-.606.305-1.255.592t-1.317.508a11.291,11.291,0,0,1-1.349.357,6.852,6.852,0,0,1-1.346.136h-1.071Zm-3.553,3.173a5.935,5.935,0,0,0,.792-.14,5.572,5.572,0,0,0,.782-.256,2.883,2.883,0,0,0,.678-.39,1.933,1.933,0,0,0,.479-.542,1.407,1.407,0,0,0,.187-.71.856.856,0,0,0-.031-.214,1.036,1.036,0,0,0-.119-.264,2.272,2.272,0,0,0-.229-.308,3.025,3.025,0,0,0-.365-.348h1.577v-.77l-3.8,0-.054.779c.059.01.131.025.214.045s.177.043.281.069.212.057.325.091.229.071.348.111a3.523,3.523,0,0,1,.5.224,2.308,2.308,0,0,1,.335.222.821.821,0,0,1,.185.2.338.338,0,0,1,.057.165.68.68,0,0,1-.171.459,1.525,1.525,0,0,1-.436.34,3.216,3.216,0,0,1-.595.241,6.015,6.015,0,0,1-.646.158c-.212.04-.408.068-.589.084s-.321.025-.419.025l-.373,0q-.2,0-.426-.022a4.037,4.037,0,0,1-.447-.066,2.288,2.288,0,0,1-.436-.138,2.039,2.039,0,0,1-.4-.229,1.454,1.454,0,0,1-.331-.346,2.274,2.274,0,0,1-.321-1.277,5.919,5.919,0,0,1,.19-1.379,12.783,12.783,0,0,1,.545-1.679l-.35-.143c-.112-.046-.234-.1-.365-.148a12.912,12.912,0,0,0-.567,1.674,7.334,7.334,0,0,0-.226,1.418l-.005.121v.116a2.993,2.993,0,0,0,.459,1.731,1.76,1.76,0,0,0,.562.594,2.846,2.846,0,0,0,.759.345,4.576,4.576,0,0,0,.863.163q.449.042.868.042A6.718,6.718,0,0,0,477.214,244.619Z" transform="translate(-243.453 -120.134)" fill="#fff"/>
  </g>
</svg>
