<svg xmlns="http://www.w3.org/2000/svg" width="688.53" height="267"><style><![CDATA[.E{opacity:.1}.F{fill-rule:evenodd}]]></style><g fill="#fff"><path d="M.02 70l.92 8 .86-.1-.92-8-.86.1m.01-1.45l.01.17.87-.07v-.16l-.87.06M0 69.7l.02.26.87-.05-.01-.26-.88.05m.88.2v-.06l-.87.06v.06l.87-.06M0 67.68v.2l.01.17.87-.04-.01-.17-.43.02.44-.01v-.2l-.88.03m.04.36h0l.78-.38v-.01l-.78.4m-.02 0l.01.48.87-.02v-.48l-.87.02m.01.47h0m1.83 8.32v-.17l-.87.01v.17l.87-.01M0 69.13v.55h.87v-.55H0m0-1.02v1.02h.87V68.1H0m0-.28v.28h.87v-.28H0m80.8-.76v1.88l.87-.01-.01-1.88-.87.01M.32 66.6l-.17.36-.02.06-.05.17-.01.04-.02.1v.01l-.02.1v.02l-.01.1v.02l-.01.08v.2h.87v-.1H.44l.44.01v-.07l-.44-.02.43.03v-.06l.01-.08-.43-.05.43.07.01-.1-.43-.07.44.1.02-.08.04-.13.16-.33-.8-.37m325.4 33.02h16.15v-.87H325.7l.01.87m20.94 0h8.38v-.87h-8.38v.87M1.38 77.1h685.76v-.87H1.38v.87m685.2-11.57l-98.56-10.46-117.57-5.1-126.1-.82-126.1.8-117.6 5.1L1.93 65.53l.1.86 98.7-10.47 117.56-5.1 126.08-.8 126.08.82 117.54 5.1L686.5 66.4l.1-.87m-684.72.01l-.4.1-.17.08-.87.72.55.67.8-.66.3-.08-.2-.83m686.2.9l-.9-.72-.17-.08-.32-.08-.2.84.23.06.82.67.54-.7m-81.22.63l-.01 1.88h.87l.01-1.88h-.87m81.52-.12l-.18-.36-.78.38.18.36.78-.38m.14.75v-.1l-.01-.07-.86.1v.07l.43-.04-.44.01v.07l.88-.03m0 .2v-.08l-.87.03v.08l.87-.03m-.87.78v1h.87v-1h-.87m-1 7.98v.3l.87.01v-.3l-.87-.01m1.86-8.8v-.15l-.87.04v.08l.87.03m-.9.66h0m.87.01v-.5-.16l-.87-.02V68l-.01.5.87.02m.01-.65v-.2l-.87-.02v.2l.87.02m.01-.02v-.02h-.87v.02h.87m-.01 2.12l.02-.26-.87-.05-.02.26.87.05m-.86-.3l-.01.2.87.06.01-.2-.87-.06m.83-.95l.01-.17-.87-.07-.01.17.87.07m-.9 9.3l.92-8.03-.86-.1-.92 8.03.86.1m.93-10.5v-.08-.04l-.02-.1v-.01l-.02-.1-.01-.04-.05-.16-.83.25.04.14.02.08.43-.08-.43.08.01.08v.06l.87-.1m-344.25-1.35l-35.38-.01-227.66.46v.87l263.03-.46v-.86m.01 1.86l-32.54-.01-230.5.5v.87l263.02-.48v-.87m263.04-1.4l-263.04-.45v.87l35.38-.01 227.65.47.01-.88m-.01 1.88l-230.5-.5-32.53.01v.87h32.53l230.5.5v-.87m64.86 8.13l-.01.26.87.03v-.26l-.87-.03m-655.77.27v-.1l-.87.02v.1l.87-.02m0-.12l-.01-.15-.87.04v.15l.87-.04m671.27-8.86v.7h.87v-.7h-.87m0 .7v.48h.87v-.48l-.87.01m0 .48v.54h.87v-.54h-.87m0 .54v.01h.87v-.01h-.87m0 0v.22l.87.01v-.22l-.87-.01M.87 69.88v-.77H.01v.77h.86m0-.77v-1.17H.01v.23h.44l-.44-.02v.96h.86m-.83-.38l.9 8 .86-.1-.9-8-.87.1m688.44-.03l.02-.74-.87-.03-.02.74.87.03m-.87-.07l-.9 8 .86.1.9-8-.86-.1M2.08 66.25c-.92.07-1.7.7-1.95 1.58l.83.25c.08-.26.23-.5.44-.66s.47-.28.74-.3l-.06-.87M.1 67.9l-.08.55.86.12.07-.55-.85-.12m37.04-1.63l-.4.18-.1.06a1.94 1.94 0 0 0-.58.93c-.1.34-.16.7-.16 1.04v.17l.87-.07v-.1a2.59 2.59 0 0 1 .12-.78 1.13 1.13 0 0 1 .3-.53l-.28-.33.18.4.4-.18-.35-.78m306.68.35v1.85h.87v-1.85h-.87m307.17.44l.38.18.18-.4-.28.33c.15.14.25.33.3.52.08.25.12.5.12.78v.14h.87v-.14a3.37 3.37 0 0 0-.16-1.04 1.94 1.94 0 0 0-.58-.93l-.1-.06-.38-.18-.35.8m35.38.06c.27.02.53.13.75.3.2.17.36.4.44.66l.84-.24c-.13-.43-.38-.8-.73-1.1s-.78-.45-1.22-.5l-.08.86m1.17.9l.08.55.86-.12-.08-.55-.86.12m-.7-1.25l.14-.73-.85-.16-.14.73.85.16m-35.65.33l7.7-.1 6.94-.04h2.26l3.8.01 2.68.02 2.42.02 2.16.03 1.88.03 1.6.03 1.33.02 1.05.02h1.04l.2-.01h.03l.12-.01.14-.04.04-.02-.37-.8-.04.02.2.4-.04-.43-.1.01-.18.01h-.6l-.4-.01c-.35 0-.7-.01-1.04-.02l-1.33-.03-1.6-.03-1.9-.03-2.16-.03-2.42-.02h-2.68l-3.8-.01h-2.26l-6.95.04-7.7.1v.9m-43.9.4l4.66.01 6.93-.02 32.3-.4-.01-.87-32.3.4-6.92.02c-1.55 0-3.1 0-4.66-.01v.87m-569.96-.4l10.1.14 29.1.27h4.68v-.87l-4.68.01c-9.7 0-19.4-.13-29.1-.27l-10.12-.14v.87m-35.4-.01h.04l.12.03.12.01h.03l.2.01H3.5l1.05-.02 1.33-.02 1.6-.03 1.9-.03 2.16-.03 5.1-.04 3.8-.01h2.26l6.94.04 7.7.1.01-.87-7.72-.1-6.94-.04h-2.26l-3.8.01-2.68.02-4.6.06-1.9.03-1.6.03-1.33.02-1.04.02H2.47l-.17-.02-.1-.01-.05.43.17-.4-.04-.02-.34.8M.02 69.93l.65 5.68.86-.1-.65-5.68-.86.1m.65 5.68l.13 1.13.86-.1-.13-1.13-.86.1m.12 1.13l.03.3.86-.1-.03-.3-.86.1m.04.3l.04.37.86-.1-.04-.37-.86.1m.04.36l.07.6.86-.1-.07-.6-.86.1m35.5-8.35l10.34.13 27.77.23h6.76l-.01-.87-6.75.02c-9.25 0-18.5-.1-27.76-.23l-10.34-.13-.01.87m651.27.78L687 75.5l.86.1.65-5.7-.86-.1M687 75.5l-.13 1.13.86.1.13-1.13-.86-.1m-.13 1.13l-.03.3.86.1.04-.3-.87-.1m-.04.3l-.04.37.87.1.04-.37-.87-.1m-.04.37l-.07.62.86.1.07-.62-.86-.1m-34.64-8.26l7.87-.07 7.08-.04h1.52l4.67.01 2.73.02 2.47.03 2.2.03 1.92.03 1.64.03 1.35.03 1.06.02h1.06l.2-.01h.02l.12-.01.14-.04.04-.02-.37-.8-.04.02.18.4-.04-.43-.1.01-.18.01h-1.02l-1.06-.02-1.35-.03-1.64-.03-1.92-.04-2.2-.03-2.47-.03-2.73-.02-4.68-.01h-1.52l-7.08.04-7.87.07.02.87m-44.87.34h6.8 5.04l33.02-.35-.01-.87-33 .35-5.04.01c-2.27 0-4.53-.01-6.8-.02l-.01.87M1.55 66.03l.13.73.86-.16-.13-.73-.86.16M.3 69.07l.04.02.14.04.12.01H.6l.2.01h1.06l1.06-.02 1.35-.03 1.64-.03 1.92-.04 2.2-.03 2.47-.03 2.73-.02 6.18-.01 7.08.03 7.87.07.01-.87-7.87-.07-7.1-.04H19.9l-4.68.01-2.73.02-4.67.06-1.92.03-1.64.03-1.35.03-1.06.02h-1l-.18-.01-.1-.01-.04.46.18-.4-.04-.02-.37.8M17.9 178.53l3.56 10.68.82-.28-3.57-10.68-.8.28m-5.24-18.14l2 7.4v.01l3.2 10.73.83-.25-3.22-10.73-.42.13.42-.1-2-7.4-.82.23M1.38 87.16l.3 5.3v.01l.62 8.1.86 8.62 1.1 8.94 1 6.88.86-.13-1-6.9-.43.06.43-.05-1.12-8.93-.43.05.43-.04-.86-8.6-.43.04.43-.03-.62-8.1-.43.03.43-.02-.3-5.3-.85.06M93.95 195l-2.06-4.13-.78.4 2.06 4.12.78-.38M80.26 87.15l.37-10.47-.87-.03-.37 10.47.87.03M663.9 191.5l1.12-.22-.17-.85-1.12.22.17.85M86.27 155.4l-9.6-68.33-.87.13 9.6 68.33.87-.13M79.4 87.2l9.46 67.3.86-.12-9.46-67.3-.86.12m19.15 108.67v3h.87v-3h-.87m.9-7.72v2.94h.87v-2.94h-.87m564.2 2.5h-.01v.87h.01v-.87M100.77 201.1h77.18v-.87h-77.18v.87m409.8 0h77.17v-.87h-77.17v.87m-411.6-1.8h80.76v-.87H98.98v.87m409.8 0h80.77v-.87H508.8l-.01.87m85.1-3.87h-89.45v.87h89.46v-.87m-409.8 0H94.63v.87h89.46v-.87m410.87-.66h-58.7v.87h58.7v-.87m-58.7 0h-32.88v.87h32.88v-.87m-351.1 0h-32.88v.87h32.88v-.87m-32.9 0h-58.7v.87h58.7v-.87m-5.85 1.1v3h.87v-3h-.87m-121.7-4.35h639.13v-.87H24.7v.87m543.03-6.1H120.8v.87h446.94v-.87m-446.46-2.72h445.98v-.87H121.28l-.01.87m259.48-6.26h-1.5v.87h1.5v-.87m-7.48 0h-8.97v.87h8.97v-.87m-10.96 0h-2.25v.87h2.25v-.87m-8.48 0h-1.5v.87h1.5v-.87m-3.5 0h-1.74v.87h1.74v-.87m-7.98 0h-1.5v.87h1.5v-.87m-3.48 0h-8.97v.87h8.98l-.01-.87m-10.98 0h-1.5v.87h1.5v-.87m-8.47 0h-1.5v.87h1.5v-.87m-7.48 0h-1.5v.87h1.5v-.87m-7.47 0h-8.97v.87h8.97v-.87m-7.48-.66h7.48v-.87H297v.87m34.4 0h7.48v-.87h-7.47v.87m34.4 0h7.48v-.87h-7.48v.87m145.26-2.85h-4.26v.87h4.26v-.87m-6.42 0h-4.6v.87h4.6v-.87m-8.9 0h-4.5v.87h4.5v-.87m-8.82 0h-4.66v.87h4.66v-.87m-9.9 0h-14.3v.87h14.3v-.87m-15.77 0h-5.17v.87h5.17v-.87m-13.97 0h-4.32v.87h4.32v-.87M346.6 171.1h-4.24v.87h4.24v-.87m25.67-.25h-6.48v.87h6.48v-.87m-34.4 0h-6.48v.87h6.48v-.87m-11.46 0h-6.98v.87h6.98v-.87m-22.93 0H297v.87h6.48v-.87m163.84.8h8.6v-.87h-8.6v.87m-124.96-1.22h4.73v-.87h-4.74l.01.87m-45.36-.25h6.48v-.87H297v.87m22.43 0h6.98v-.87h-6.98v.87m11.97 0h6.48v-.87h-6.48v.87m34.4 0h6.48v-.87h-6.48v.87m90.3-1.44h-8.8v.87h8.8v-.87M373.3 166h-7.48v.87h7.48V166m-34.4 0h-7.48v.87h7.48V166m-34.4 0H297v.87h7.48V166m142.8.75h8.8v-.87h-8.8v.87m15.42 0h4.6v-.87h-4.6v.87m-77.96-1h-4v.87h4v-.87m-5.48 0h-4v.87h4v-.87m-32.16 0h-4.74v.87h4.73v-.87m-31.16 0h-4v.87h4v-.87m-5.48 0h-4v.87h4v-.87m-14.96-.4h8.97v-.87h-8.98v.87m10.97 0h9.47v-.87h-9.47v.87m11.47 0h1.5v-.87h-1.5v.87m8.47 0h1.48v-.87h-1.5l.01.87m3.5 0h8.98v-.87h-8.98v.87m10.97 0h5.98v-.87h-5.98v.87m11.46 0h2.24v-.87h-2.24v.87m8.48 0h1.5v-.87h-1.5v.87m3.5 0h8.97v-.87h-8.98v.87m10.97 0h9.47v-.87h-9.47v.87m124.77-1.74h-4.3v.87h4.3v-.87m-8.82 0h-4.3v.87h4.3v-.87m-15.3 0h-13.22v.87h13.2l.01-.87m-32.96-1.77h4.3v-.87h-4.3v.87m13.12 0h5.17v-.87h-5.17v.87m6.63 0h14.3v-.87h-14.3v.87m19.54 0h18.78v-.87h-18.78v.87m24.54-.95h4.26v-.87h-4.26v.87m-493.45-1.05h-.28v.87h.28v-.87m363.8-.3h-73.58v.87h73.6l-.01-.87m-30.4 5.8l1.25.25.17-.85-1.25-.25-.17.85M179.3 195.87v3h.87v-3h-.87m124.27-37.85h73.6v-.87h-73.6v.87m-291.15-2.07h-.32v.87h.32v-.87m505.32-1.8H437v.87h80.76v-.87m-80.76-.33h80.76v-.87H437v.87m0-3h80.76v-.87H437v.87m146.88-4.46h-9.65v.87h9.65v-.87m-151.66-3H431v.87h1.2v-.87m90.33.27h1.2v-.87h-1.2v.87M6.75 128.43h-.37v.87h.37v-.87M348 166.03l-.74-.25-.28.82.75.25.27-.82m-148.37-57.5v-1.8h-.87v1.8h.87m0-5.4v-1.8h-.87v1.8h.87m6.3 3.6v1.8h.87v-1.8h-.87m2.07 1.8v-1.8h-.87v1.8h.87m6.3-1.8v1.8h.87v-1.8h-.87m2.06 1.8v-1.8h-.87v1.8h.87M5.74 125.4h.33v-.87h-.33v.87m501.47-2.66h-59.68v.87h59.68v-.87m0-3h-59.68v.87h59.68v-.87m-59.67-.33h59.68v-.87h-59.68v.87m136.36-2.97h-9.6v.87h9.6v-.87m-206.73 0h-17.95v.87h17.95v-.87m-55.64 0h-17.95v.87h17.95v-.87m-17.95-1.52h13.16v-.87h-13.16v.87m60.43 0h13.16v-.87H364v.87m221.95-5.05h-2v.87h2v-.87m-7.98 0h-1.5v.87h1.5v-.87m-8.48 0H568v.87h1.5v-.87m-346.38-1.8h-7.18v.87h7.18v-.87m-8.38 0h-7.18v.87h7.18v-.87m-8.37 0h-7.18v.87h7.18v-.87m369.12-1.27h-5v.87h5v-.87m-376.3.34h7.18v-.87h-7.18v.87m8.37 0h7.18v-.87h-7.18v.87m8.38 0h7.18v-.87h-7.18v.87m354.8-.5h4.5v-.87h-4.5v.87m-211.54-1h-6.58v.87h6.58v-.87m-31.1 0h-6.58v.87h6.58v-.87m-6.57-1.52h1.8v-.87h-1.8v.87m35.9 0h1.8v-.87h-1.8v.87m-134.3-1.47H199.2v.87h23.93l-.01-.87m-23.93-.92h23.93v-.87H199.2l-.01.87m155.85-2.07h-29.3v.87h29.3v-.87m-13.17-.92h4.8v-.87h-4.8v.87m230.13 0h2v-.87h-2v.87m7.98 0h1.5v-.87h-1.5v.87m8.47 0h1.5v-.87h-1.5v.87m-262.73-.6h29.3v-.87h-29.3v.87m22.12 67.3l1 .76.53-.7-1-.76-.53.7m.83 1.14l-.5-.5-.62.6.5.5.62-.6m-125.98-65.3v1.8h.87v-1.8h-.87m0 5.4v1.8h.87v-1.8h-.87M1.82 87.57h78v-.87h-78v.87m606.88 0h78v-.87h-78v.87M80.2 77.1h528.14v-.87H80.2v.87m438.7 54.5l-4.28-1.47-.28.82 4.28 1.47.28-.82m-3.6-3.48l4.28 1.47.28-.82-4.28-1.47-.28.82m.4-1.13l4.28 1.48.28-.82-4.28-1.47-.28.8m-166.93 39.18l.75 1.02.7-.52-.75-1.02-.7.52m5.46-1.05l6.23 10.18.74-.45-6.23-10.2-.74.46m6.23 11.52l-6.23-10.44-.75.45 6.23 10.44.75-.45m-207.8 18.75l2.07-4.12-.78-.4-2.06 4.12.77.4m195.06-24.23l2.24 5.85.8-.3-2.24-5.86-.8.32m1.3 5.55l-2-5.34-.8.3 2 5.34.8-.3m-53.07.15V164.9h-.87v11.96h.87m.63-10.43v3.3h.87v-3.3h-.87m0 4.83v4.07h.87v-4.07h-.87m5.05-13.7V116.9h-.87v40.68h.87m1.43 12.17v1.53h.87v-1.53h-.87m.97-12.17V116.9h-.87v40.68h.87m.03 7.33v1.53h.87v-1.53h-.87m0 10.43v1.53h.87v-1.53h-.87m2.86-9.16v-1.27h-.87v1.27h.87m4 10.7v-10.7h-.87v10.7h.87m.62-10.7v10.7h.87v-10.7h-.87m4-1.27v1.27h.87v-1.27h-.87m-129.96 30.5l2.06-4.12-.78-.4-2.06 4.13.78.38M349 167.58l-.25-.76-.83.27.25.76.83-.27m.42-.5l.25.76.83-.27-.25-.76-.83.27m-31.05 9.8V164.9h-.87v11.96h.87m1.2-64.76v-5.98h-.87v5.98h.87m-.58 52.8v4.84h.87v-4.84H319m0 6.37v5.6h.87v-5.6H319m2.97-54.38v-10.77h-.87v10.77h.87m4.18-15.55v-3.6h-.87v3.6h.87m.7 75.53v-5.6h-.87v5.6h.87m0-7.13v-4.84h-.87v4.84h.87m.63-4.84v11.96h.87V164.9h-.87m1.07-58.77v-5.98h-.87v5.98h.87m1.8 70.74V164.9h-.87v11.96h.87m.62-10.44v3.3h.87v-3.3h-.87m0 4.84v4.07h.87v-4.07h-.87m6.48-1.53v1.53h.87v-1.53h-.87m1-4.84v1.53h.87v-1.53h-.87m0 10.44v1.53h.87v-1.53h-.87m2.86 1.53V164.9h-.87v11.96h.87m1-76.73v-1.8h-.87v1.8h.87m-.37 66.04V170h.87v-3.82h-.87m0 5.34v5.35h.87v-5.34l-.87-.01m4.3-73.17v1.8h.87v-1.8h-.87m2.8 70.12v-.76h-.87v.76h.87m.63-.76v1.02h.87v-1l-.87-.01m3.1 9.16V164.9h-.87v11.96h.87m.3-70.74v-5.98h-.87v5.98h.87m.33 60.3v10.44h.87v-10.43l-.87-.01m1.2-68.7v3.6h.87v-3.6h-.87m4.2 8.38v10.77h.87v-10.76l-.87-.01m2.46 68.96V164.9h-.87v10.18l.87-.01m-.07-68.96v5.98h.87v-5.98h-.87m.7 58.78v11.96h.87V164.9h-.87m2.86 11.96V164.9h-.87v11.96l.87-.01m.63-10.44v3.3h.87v-3.3h-.87m0 4.84v4.07h.87v-4.07h-.87m6.48-1.53v1.53h.87v-1.53h-.87m1-4.83v1.53h.87v-1.53h-.87m0 10.43v1.53h.87v-1.53h-.87m2.86-9.16v-1.27h-.87v1.27h.87m1.03-49.28v40.68h.87V116.9h-.87m2.96 59.97v-10.7h-.87v10.7h.87m-.57-59.97v40.68h.87V116.9h-.87m1.2 49.28v10.7h.87v-10.7h-.87m4-1.27v1.27h.87v-1.27h-.87m-35.55 4.46l.25-.76-.83-.27-.25.76.83.27m.92-.78l-.25.76.83.27.25-.76-.83-.27m160.7-41.63l-2.82-4.03-.7.5 2.82 4.03.7-.5m-1.08-5.25l2.82 4.03.7-.5-2.82-4.03-.7.5m.98-.68l2.82 4.03.7-.5-2.82-4.03-.7.5M503.77 195l-2.06-4.12-.78.4 2.06 4.12.78-.4m-72.3-46.4v-14.75h-.87v14.76h.87m.33-18.1v18.1h.87v-18.08l-.87-.01m3 3.32v14.76h.87v-14.75l-.87-.01m8.64 39.52V161.4h-.87v11.96l.87-.01M536.67 195l-2.06-4.12-.78.4 2.07 4.12.77-.4m-27.05-40.56l-.4-1.2-.83.27.4 1.2.83-.27m-42.75 11.88l.03 4.9h.87l-.02-4.9h-.88m-3.7 7.04l-.02-7.05h-.87l.02 7.05h.87m-16.3-11.96v4.92h.87v-4.92h-.87m0 7.77v4.2h.87v-4.2h-.87m6.8-15.78v1.2h.87v-1.2h-.87m2.87 19.97v-4.2h-.87v4.2h.87m0-7.05v-4.92h-.87v4.92h.87m4.3-4.9v11.96h.87V161.4h-.87m2.33 2.64v-2.64h-.87v2.64h.87m13.2 7.17v-7.18h-.87v7.18h.87m-126.87-1.98l-.75 1.02.7.5.75-1.02-.7-.5m129.93-4.86v5.85h.87v-5.85h-.87m3.27 9V161.4h-.87v11.96l.87.01m3.8-9.33v9.33h.87v-9.33h-.87m5.17 9.33v-9.33h-.87v9.33h.87m3.64-9.33v9.33h.87v-9.33h-.87m5.18 9.33v-9.33h-.87v9.33h.87m-.8-19.98v1.2h.87v-1.2h-.87m4.54 10.65v9.33h.87v-9.33h-.87m3.02 9.33v-12.9h-.87v12.9h.87m1.1 22.5v3h.87v-3h-.87m-66.76-70.72l1.54-3.02-.78-.4-1.54 3.02.78.4m1.07.54l1.54-3.02-.78-.4-1.54 3.02.78.4m3.43-2.05l-1.54 3.02.78.4 1.54-3.02-.78-.4m-97.92 46.4l.5-.5-.62-.6-.5.5.62.6m161.98-16.66v1.2h.87v-1.2h-.87m.5 7.06v12.9h.87v-12.92l-.87.01m4.57-5.86v-1.2h-.87v1.2h.87m4.78-5.98v-15.46h-.87v15.46h.87m3 0v-18.8h-.87v18.8h.87m.33-15.46v15.45h.87v-15.46l-.87.01m17.95 62.72v3h.87v-3h-.87M348.9 170.13l-1 .5.4.77 1-.5-.4-.77m85.75-40.92l4.12-1.55-.3-.8-4.12 1.54.3.82m.42 1.13l4.12-1.55-.3-.8-4.12 1.55.3.8m4.87.43l-4.12 1.54.3.8 4.12-1.55-.3-.8m-92.7 39.65l.75-.25-.28-.82-.75.25.28.82M581.06 98.5l3.5 10.44.82-.28-3.5-10.44-.82.28m-7.48 0l4 11.96.82-.27-3.98-11.97-.83.28m10.8 11.7l-4-11.96-.82.27 4 11.96.82-.27m-7.47 0l-1-3.05-.83.27 1 3.05.83-.27m-1.25-4.08l-2.24-6.88-.83.27 2.24 6.88.83-.27m33.48-18.98l-.37-10.47-.87.03.37 10.47.87-.03M588.2 188.15v2.94h.87v-2.94h-.87m.9 7.72v3h.87v-3h-.87m-16.53-96.63l-2.24 6.87.82.27 2.24-6.88-.82-.26m-2.5 7.9l-1 3.05.82.27 1-3.05-.82-.27m-1.67 3.32l4-11.96-.82-.27-4 11.96.82.27m31.25 44.06l9.46-67.3-.86-.12-9.46 67.32.86.1m12.2-67.44l-9.6 68.33.86.12 9.6-68.33-.86-.12m-22.33 11.15l-4 11.96.82.27 4-11.96-.82-.27m-4.16 10.7l3.5-10.44-.82-.27-3.5 10.44.82.27m9.98 86.47l2.07-4.12-.78-.4-2.06 4.12.77.4m71.7-6.18l3.56-10.7v-.01l3.22-10.74 2.8-10.5 2.4-10.23v-.01l2.05-9.94h0l1.7-9.64 1.4-9.3 1.1-8.94.86-8.62.62-8.1.3-5.3-.87-.05-.3 5.3.43.02-.43-.03-.62 8.1.43.03-.43-.04-.86 8.6.43.04-.43-.05-1.1 8.93.43.05-.43-.06-1.4 9.3.43.07-.43-.08-1.7 9.63.43.08-.42-.1-2.05 9.94.43.1-.42-.1-2.4 10.23.42.1-.42-.1-2.8 10.47-3.2 10.74.42.12-.4-.14-3.56 10.68.83.28v-.01m-1.88 2l.97-.63.12-.12.66-.96.05-.1.08-.2-.8-.3-.06.15-.58.84-.9.58.46.74m-565.3-3.52l-43.18.34v.87l43.18-.34-.01-.87M85.4 155.53c2.48 17.64 17.57 30.76 35.38 30.76v-.87c-17.38 0-32.1-12.8-34.52-30l-.86.12m3.44-1.02c2.27 16.16 16.1 28.18 32.42 28.18v-.87a31.87 31.87 0 0 1-31.56-27.44l-.86.13m-67.38 34.72a3.43 3.43 0 0 0 3.23 2.29v-.87c-1.1 0-2.05-.7-2.4-1.7l-.82.3m.04-.13a3.42 3.42 0 0 0 3.27 2.42v-.87c-1.12 0-2.1-.73-2.44-1.8l-.83.25m123.54 12c1.23 0 2.23-1 2.23-2.23h-.87a1.36 1.36 0 0 1-1.36 1.36v.87m-46.5-2.22c0 1.23 1 2.23 2.23 2.23v-.87a1.36 1.36 0 0 1-1.36-1.36h-.87m-5.37-3.46c.28.55.84.9 1.46.9v-.87c-.3 0-.55-.16-.68-.42l-.78.4m58 .9c.62 0 1.18-.35 1.46-.9l-.78-.4c-.13.26-.4.42-.68.42v.87m39.02-58.47h-.44c0 11.8 9.57 21.37 21.37 21.38 11.8 0 21.37-9.57 21.38-21.37 0-11.8-9.57-21.37-21.37-21.38-11.8 0-21.37 9.57-21.38 21.37h.87c0-11.32 9.18-20.5 20.5-20.5s20.5 9.18 20.5 20.5-9.18 20.5-20.5 20.5a20.49 20.49 0 0 1-14.49-6 20.48 20.48 0 0 1-6.01-14.5h-.43m3 0h-.44c0 10.15 8.23 18.38 18.38 18.38s18.38-8.23 18.38-18.38-8.23-18.38-18.38-18.38-18.38 8.23-18.38 18.38h.87c0-9.67 7.84-17.5 17.5-17.5s17.5 7.84 17.5 17.5-7.84 17.5-17.5 17.5c-4.64 0-9.1-1.85-12.38-5.13a17.44 17.44 0 0 1-5.13-12.38h-.43m107.54 19.75c0 1.56 1.27 2.83 2.83 2.83h0v-.87c-1.08 0-1.96-.87-1.96-1.95h0-.87m-122.8 43.5c1.23 0 2.23-1 2.23-2.23h0-.87a1.36 1.36 0 0 1-1.36 1.36v.87m6.14-4.8c.62 0 1.18-.35 1.46-.9l-.78-.4c-.13.26-.4.42-.68.42v.87M667 189.1c10.24-33.17 16.88-67.34 19.8-101.93l-.86-.07c-2.92 34.52-9.55 68.64-19.76 101.74l.82.26m-345.48-85.8c-1.56 0-2.82 1.26-2.82 2.82h.87c0-1.08.88-1.96 1.96-1.96l-.01-.86m-17.95 10.77c-1.56 0-2.83 1.27-2.83 2.83h.87c0-1.08.88-1.96 1.96-1.96v-.87m19.75-9.9c1.56 0 2.83-1.27 2.83-2.83h0-.87c0 1.08-.88 1.96-1.96 1.96v.87m-6.6 10.77c1.56 0 2.83-1.27 2.83-2.83h-.87c0 1.08-.88 1.96-1.96 1.96v.87m315.1 73.1l-43.18-.34-.01.87 43.18.34.01-.87m-191.6-56.47c2.2-.83 4-2.44 5.07-4.53l-.77-.4c-.97 1.9-2.6 3.36-4.6 4.1l.3.82m-1.05-2.8a6.43 6.43 0 0 0 3.46-3.09l-.77-.4a5.55 5.55 0 0 1-2.99 2.67l.3.82m-8.6 19.82a6.42 6.42 0 0 0 6.41 6.42h.01v-.87c-3.07 0-5.55-2.48-5.55-5.55h-.87m16.96-30.05a5.81 5.81 0 0 0-5.18 3.18l.78.4a4.94 4.94 0 0 1 4.41-2.7v-.88h-.01m-13.2 9.84a5.81 5.81 0 0 0-3.77 5.45h.87c0-2.06 1.28-3.9 3.2-4.63l-.3-.82m-2.58 20.2c0 2.88 2.34 5.22 5.22 5.22h0v-.87c-2.4 0-4.35-1.95-4.35-4.35h0-.87m7-20.94a5.22 5.22 0 0 0 2.81-2.52l-.77-.4c-.5.97-1.33 1.72-2.35 2.1l.3.8m-4 1.85c-1.8.67-3 2.4-3 4.33h.87a3.76 3.76 0 0 1 2.43-3.52l-.3-.8m12.77-9.76c-1.74 0-3.33.97-4.12 2.52l.78.4c.64-1.26 1.93-2.05 3.34-2.05v-.87m63.46.77c-.86-1.24-2.28-1.97-3.8-1.97v.87c1.22 0 2.37.6 3.07 1.6l.72-.5m-.98.7c-.64-.9-1.68-1.46-2.8-1.46v.87c.83 0 1.6.4 2.1 1.1l.7-.5m-132.85 39.2c1.56 0 2.82-1.26 2.83-2.82h0-.87a1.97 1.97 0 0 1-1.96 1.96v.86m131.18 38.45c0 1.23 1 2.23 2.2 2.23h.01v-.87c-.75 0-1.36-.6-1.36-1.35v-.01h-.86m-73.6-50.25c0 1.23 1 2.23 2.22 2.23h.01v-.87a1.36 1.36 0 0 1-1.36-1.36h0-.87m12.78-25.86a1.65 1.65 0 0 0-1.46.89l.77.4c.13-.26.4-.42.68-.42v-.87h.01m-11.72 9.56c-.64.24-1.06.85-1.06 1.53h.87a.76.76 0 0 1 .49-.71l-.3-.82m67.16 63.1c.28.55.84.9 1.46.9v-.87c-.3 0-.55-.16-.68-.42l-.78.4M12.06 158l.32 1.27.84-.22-.32-1.27-.84.22M1.72 87.17c2.92 34.6 9.56 68.76 19.8 101.93l.83-.25A482.94 482.94 0 0 1 2.59 87.1l-.87.07m4 40.26l.25 1.5.86-.14-.25-1.5-.86.14m5.98 29.06l.37 1.5.84-.2-.37-1.5-.84.2m-5.36-27.55a398.03 398.03 0 0 0 5.68 27.55l.84-.2c-2.22-9.1-4.1-18.26-5.67-27.5l-.85.15m-.37 0c1.56 9.26 3.47 18.44 5.74 27.55l.84-.2c-2.26-9.1-4.17-18.25-5.73-27.5l-.85.15m355.22-16.82c0 1.56 1.27 2.83 2.83 2.83v-.87c-1.08 0-1.96-.87-1.96-1.95h0-.87v-.01m-6.58-10.78c0 1.56 1.26 2.83 2.82 2.83h0v-.87c-1.08 0-1.96-.87-1.96-1.95v-.01h-.86M380 116.9a2.83 2.83 0 0 0-2.83-2.83v.87c1.08 0 1.96.88 1.96 1.96h.87m-17.95-10.77c0-1.56-1.27-2.83-2.83-2.83v.87c1.08 0 1.96.88 1.96 1.96h.87m205.68 80.15c17.8 0 32.9-13.1 35.38-30.75l-.86-.12c-2.42 17.2-17.14 30-34.52 30v.86m-.48-3.6c16.32 0 30.15-12.02 32.42-28.18l-.86-.12a31.87 31.87 0 0 1-31.56 27.44v.86m-4.03-50.84h-.43a16.29 16.29 0 1 0 32.58 0 16.29 16.29 0 0 0-16.29-16.29c-9 0-16.3 7.3-16.3 16.28v.01h.87c0-8.52 6.9-15.42 15.4-15.42 8.52 0 15.42 6.9 15.42 15.4a15.42 15.42 0 0 1-15.42 15.42c-4.1 0-8-1.62-10.9-4.52-2.9-2.9-4.52-6.8-4.52-10.9h-.43m.9.01h-.44c0 8.5 6.9 15.4 15.4 15.4s15.4-6.9 15.4-15.4-6.9-15.4-15.4-15.4-15.4 6.9-15.4 15.4h.87a14.53 14.53 0 0 1 14.53-14.52 14.53 14.53 0 0 1 14.52 14.53 14.53 14.53 0 0 1-14.53 14.52 14.51 14.51 0 0 1-10.26-4.25 14.45 14.45 0 0 1-4.25-10.27l-.44-.01m4.5 0h-.44c0 6.02 4.9 10.9 10.9 10.9 6.02 0 10.9-4.9 10.9-10.9 0-6.02-4.88-10.9-10.9-10.9s-10.9 4.88-10.9 10.9v.01h.87c0-5.54 4.5-10.03 10.03-10.04 5.54 0 10.03 4.5 10.04 10.03a10.04 10.04 0 0 1-10.03 10.04 10.07 10.07 0 0 1-7.1-2.94c-1.9-1.88-2.94-4.43-2.94-7.1h-.43m-58.93-4.4c1.14 1.63 2.77 2.85 4.64 3.5l.28-.82c-1.7-.6-3.18-1.7-4.2-3.18l-.7.5m26.02 3.2h-.43a6.72 6.72 0 0 0 6.71 6.72c3.7 0 6.72-3 6.72-6.72a6.72 6.72 0 0 0-6.71-6.72c-3.7 0-6.72 3-6.72 6.7h.87c0-3.23 2.62-5.84 5.85-5.84s5.84 2.62 5.84 5.85a5.84 5.84 0 0 1-5.84 5.84c-3.23 0-5.84-2.62-5.85-5.85h-.44m-23.57-4.9a6.44 6.44 0 0 0 3.17 2.39l.28-.82a5.48 5.48 0 0 1-2.74-2.07l-.7.5m5.62 29.28c3.54 0 6.42-2.87 6.42-6.42h-.87a5.55 5.55 0 0 1-5.55 5.55v.87m6.42-21.87a5.83 5.83 0 0 0-3.92-5.5l-.28.82c2 .7 3.34 2.57 3.34 4.68h.86m-6.42 20.68c2.88 0 5.22-2.33 5.22-5.2v-.01h-.87c0 2.4-1.95 4.35-4.35 4.35v.87m-4.64-28.77a5.25 5.25 0 0 0 2.58 1.94l.28-.82a4.33 4.33 0 0 1-2.15-1.62l-.7.5m9.86 8.1a4.62 4.62 0 0 0-3.12-4.37l-.28.82a3.76 3.76 0 0 1 2.53 3.55h.87m140.77 58.37a3.42 3.42 0 0 0 3.27-2.42l-.83-.26c-.33 1.07-1.32 1.8-2.44 1.8v.88m-76 9.57c1.23 0 2.23-1 2.23-2.23h-.87a1.37 1.37 0 0 1-.4.96 1.33 1.33 0 0 1-.96.4v.87m-46.5-2.23a2.23 2.23 0 0 0 2.22 2.23h0v-.87a1.36 1.36 0 0 1-1.36-1.36h-.86m-23.5-48.02c1.23 0 2.23-1 2.23-2.23h-.87a1.36 1.36 0 0 1-1.36 1.36h0v.87m2.23-17.7c0-.7-.44-1.3-1.1-1.54l-.28.82c.3.1.5.4.5.72h.87m15.9 62.25c.28.55.84.9 1.46.9v-.87c-.3 0-.55-.16-.68-.42l-.78.4m58.02.9c.62 0 1.18-.35 1.46-.9l-.78-.4c-.13.26-.4.42-.68.42v.87m-114.46-26.07c.01.33-.04.66-.14.97a2.29 2.29 0 0 1-.51.88c-.24.26-.52.46-.83.6-.3.15-.6.23-.92.24v.87c.45-.01.9-.12 1.3-.33a3.56 3.56 0 0 0 1.1-.82c.3-.35.54-.76.7-1.2.12-.4.18-.82.18-1.24l-.87.02m-2.4-8.4c.65.01 1.27.3 1.72.76.44.5.68 1.12.68 1.78h.87a3.52 3.52 0 0 0-.92-2.37c-.6-.65-1.46-1.02-2.35-1.04v.87m24 0a3.78 3.78 0 0 1 2.1.5 2.73 2.73 0 0 1 1.07 1.78l.86-.14a3.62 3.62 0 0 0-1.44-2.35c-.78-.47-1.68-.7-2.6-.65v.86M22.3 189.08h-.44l.4.16v-.01l-.4-.16.4.18.01-.02-.4-.18.38.22.05-.1-.4-.15.38.2.01-.02-.38-.2.38.2h.01l-.76-.42-.01.02h-.01l-.01.02v.05l-.01.02.4.15-.38-.22v.02.04l-.01.01h-.01v.01l-.03.16h.87m643.9.08l.05.1.78-.38-.05-.1-.78.38M5.67 125.14l.01.02.4-.16-.43.1.02.05.01.08.02.14.06.36.1.48.1.6.12.67.25 1.48.86-.15-.25-1.48-.12-.67-.1-.6-.08-.5-.07-.37-.02-.13v-.01l-.02-.1-.02-.06-.02-.07-.01-.02-.8.33m.9 2.15l-.15-.92-.24-1.47-.85.15.24 1.45.15.92.85-.13m6.95 32.88l-.3-1.12-.84.22.3 1.12.84-.22m-1.5-3.68l.36 1.47.16.67.14.6.12.5.08.36.03.13.02.1.03.12.01.02.8-.3-.01-.02-.4.15.43-.07-.01-.06-.01-.03-.02-.1-.03-.13-.1-.37-.12-.5-.14-.6-.16-.67-.36-1.47-.83.2m10.1 32.88h.02l-.17-.4.02.43h.22.18l-.03-.87-.2.01h-.23l-.15.03-.02.01.35.8m.26.02l3.63-.08 7.2-.1 10.4-.13 13.1-.14v-.87l-13.1.14-10.4.13-7.2.1-3.65.08.02.87m609.45-.47l7.62.08 15.5.2 2.4.04 2.13.03 1.87.03h1.6l1.3.03 1.02.02.4.01.33.01.25.01h.18.1.02l.14-.86-.04-.01h-.04l-.12-.01h-.02l-.2-.01H666h-.34l-.4-.01-1.03-.02-1.3-.03-1.6-.02-1.87-.03-2.13-.03-2.4-.04-2.65-.04-20.47-.23.02.88M99.9 188.6h244.37v-.87c-53.53 0-107.06-.01-160.6-.02h-22.3l-61.48.02v.87m531.5-.15a5.03 5.03 0 0 1-.16.93c-.08.26-.18.5-.32.73l.37.23-.32-.3-.43.46-.48.16.27.83.58-.2.18-.12.5-.55.05-.07a3.97 3.97 0 0 0 .42-.94 5.17 5.17 0 0 0 .2-1.11l-.86-.07m-575.12.07a5.17 5.17 0 0 0 .2 1.11c.1.33.23.65.4.94l.05.07.5.55.18.12.58.2.27-.82-.47-.17-.43-.46-.32.3.37-.23c-.14-.23-.25-.47-.32-.73a4.77 4.77 0 0 1-.17-.93l-.86.07m288 .08h244.38v-.87l-83.57-.02-160.82.02.01.87M1.04 78.97l.03.12.84-.23-.03-.12-.84.23M1 78.74l.02.17.86-.12-.02-.17-.86.12m.9-.8l-.06-1-.87.06.06 1 .87-.06m-.6 7.82l.06 1.1.87-.04-.05-1.1-.88.04m-.2-4.7l.08 2.04.1 2.65.87-.03-.1-2.65L2 81.03l-.88.03m-.1-3.1v.06l.87-.04v-.05l-.87.03m0 .05l.01.4.08 2.65.87-.03-.08-2.65v-.4l-.87.03m15.77-1.04v-.3h-.87v.3h.87M1 77.6v1.1h.87v-1.1H1m44.97-.63v-.3h-.86v.3h.86m33.93 0v-.3h-.87v.3h.87m.17 10.17v-.3h-.87v.3h.87m-.22-.3l.34-9.87-.87-.03-.34 9.87.87.03m-.44-.45H1.8v.87h77.62l-.02-.87m529.7.87h77.62v-.87h-77.6v.87m78.03-10.74h-78.8v.87h78.8v-.87M1.4 77.4h78.8v-.87H1.4v.87m608.14 9.42l-.34-9.87-.87.03.34 9.87.87-.03m-.22.32v-.3h-.87v.3h.87m.16-10.18v-.3h-.87v.3h.87m33.94 0v-.3h-.87v.3h.87m43.23.64v1.1h.87l-.01-1.1h-.86m-14.05-.64v-.3h-.87v.3h.87m14.84 2.93l.05-1.9-.87-.03-.05 1.9.87.03m.06-1.92v-.04h-.87v.04h.87m-.3 7.78l.12-2.64.08-2.05.04-1.16-.87-.03-.04 1.16-.08 2.04-.12 2.64.87.04m-.05 1.1l.05-1.1-.87-.04-.05 1.1.87.04m.34-8.87l.06-1-.87-.06-.07 1 .88.06m-.84.63l-.03.17.86.13v-.16l-.85-.14m.8.46l.03-.12-.84-.23-.03.12.84.23M15.37 86.82a1.39 1.39 0 0 0-.96-.42v.87l.34.14.62-.6m671.47.05l.66-8.9-.87-.06-.66 8.87.87.08M1.04 78l.66 8.9.87-.07-.66-8.87-.87.05m673.08 8.4c-.37 0-.72.15-.97.42l.63.6.33-.14.01-.88M1.9 78.8l-.05-.2-.84.2.04.2.85-.2m43.22 8.1l-.07-.12-.15-.14-.28-.16-.43.76.2.1v.03l.72-.48M687.45 79l.05-.2-.84-.22-.05.2.84.22m-43.33 8.34l.02-.03.2-.1-.43-.76-.28.16-.15.14-.08.12.73.48"/><path d="M578.93 125.95c3.14 0 5.7 2.55 5.7 5.7a5.7 5.7 0 0 1-5.7 5.7 5.71 5.71 0 0 1-5.7-5.69h0c-.01-3.15 2.54-5.7 5.7-5.7m-367.8 17.54a5.7 5.7 0 1 0 0-11.4 5.7 5.7 0 0 0-5.7 5.7h0a5.69 5.69 0 0 0 5.69 5.69" class="F"/><path d="M341.08 49.17l-1.38.01 1.38-.01m-1.38 17h0m2.28-16.15l-.94.01.94-.01m-2.28 18h0m0-1h0m.22 1.86h0m1.94 29.3h-2.16v.55h1.74v-.4h.42v-.15m-.42 1.4h-1.74v.1h1.74v-.1"/></g><path d="M341.98 39.22h-2.28v9.96l1.38-.01.9-.01v-9.94m0 10.8l-.94.01-1.34.01v16.13h2.28V50.03m-2.28 17.02v1h2.28v-1h-2.28m0 1.85v7.32h2.28V68.9h-2.28m2.28 8.2h-2.28v20.22h2.28V77.1m0 23.48h-2.28v32.1h2.28v-32.1" fill="#fff" class="E"/><g fill="#fff"><path d="M341.98 97.32h-2.28v.87h2.17v.16h-.42v.4h-1.74v.87h1.74v.1h-1.74v.87H342v-3.27m-.01-21.1h-2.28v.87h2.28v-.87m-2.28-8.2v.87h2.28v-.87h-2.28m0-1.86v.87h2.28v-.87h-2.28m2.28-17.02l-2.28.02v.86l2.28-.02v-.86"/><path d="M477.37 131.47c3.14 0 5.7 2.55 5.7 5.7 0 3.14-2.55 5.7-5.7 5.7-3.14 0-5.7-2.55-5.7-5.7h0c.01-3.15 2.56-5.7 5.7-5.7h0" class="F"/><path d="M580.04 39.22h-2.3v15.4l1.5.07.8.03v-15.5" class="E"/><path d="M577.75 54.62h0l1.5.07-1.5-.07"/><path d="M577.75 55.48v11.04h2.28V55.58l-2.28-.1" class="E"/><path d="M579.32 66.53h0m-1.57-.01h0m0-11.04h0l2.28.1-2.28-.1m0 11.92v1h2.28v-1c-.46 0-.92 0-1.37-.01h-.9"/><path d="M579.73 68.4h0m-1.34-1h0"/><path d="M577.75 69.27v6.96h2.28v-6.95h-.7c-.52 0-1.05-.01-1.6-.01" class="E"/><path d="M577.75 69.27h0l1.6.01c-.53 0-1.06-.01-1.6-.01"/><path d="M580.04 77.1h-2.28v31.17l.64 1.9-.4.14v.43h-.23v4.86l.64-.04h.2l.32-.01h.2l.9.03V99.93l-.48-1.43.4-.13v-.45h.07V77.1" class="E"/><path d="M578.57 115.57h-.03.03m.05 0h-.03.03m.33-.01l-.32.01.32-.01m.04 0h-.03.03m.04 0H579h.03m-1.05-4.8h-.23.23m.4-.57h0m1.17-11.7h0l.48 1.43-.48-1.43m.4-.58h0v.45l-.4.13.4-.13v-.45m.07-20.82h-2.28 2.28m-.94 39.34h-.05l-.94.03h1.95l-.86-.03h-.1"/><path d="M578.08 116.46h0m1 0h0m0 0h-.35.35m.1-.03l.86.03-.86-.03m-.05 0h0m-.1 0l-.94.03.94-.03m.06 0h0-.05.05"/><path d="M579.08 117.34h0-.25l-1.1.06v3.63l.48-.05h.1c.06 0 .1-.01.17-.01h0c.06 0 .12-.01.17-.01h.56c.26 0 .53.02.8.04v-3.62a9.24 9.24 0 0 0-.93-.04h0" class="E"/><path d="M578.24 120.98l-.48.05.48-.05m.27-.02h0m.18-.01h0m.25 0h-.02.02m.08 0H579h.03m.05 0h-.04.04m-.23-3.6l-1.1.06a9.82 9.82 0 0 1 1.09-.06m.04 0h-.04.04m.05 0h-.04.04m.04 0h-.04.04m.05 0h-.04.04m.05 0h0-.04.04m.01 0h0l.96.03-.96-.03"/><path d="M579.08 121.82l-.36.01h-.05l-.82.07c-.03 0-.06.01-.1.01v4.16c.38-.08.77-.12 1.17-.12h.32a5.17 5.17 0 0 1 .79.1v-4.2l-.9-.05h-.03c0 .01-.01.01-.02.01" class="E"/><path d="M577.85 121.9c-.03 0-.06.01-.1.01h0c.04 0 .07-.01.1-.01m.87-.07h-.03.03m.36 0h0m0 0h0l-.36.01c.12-.01.24-.01.36-.01h0m.17 4.13a5.17 5.17 0 0 1 .79.1h0a4.27 4.27 0 0 0-.79-.1m-.04-.01h.03c-.01.01-.02 0-.03 0m-.28 0h0"/><path d="M579.07 120.95a11.41 11.41 0 0 0-1.32.08v.88a9.54 9.54 0 0 1 1.32-.09h0c.32 0 .64.02.96.05V121c-.3-.04-.63-.05-.96-.05m.01-5.4h0l-1.32.05v1.78l1.33-.06.96.03v-.9h-1.96l1-.03.96.03v-.87l-.97-.03m-1.33-7.3v2.48h.23v-.43l.4-.14-.64-1.9m2.3-10.35h-.07v.45l-.4.13.48 1.43v-2m0-21.7h-2.28v.87h2.28v-.87m-2.3-7.83v.87l2.28.01v-.87c-.75 0-1.52-.01-2.28-.01m0-1.88v.87h2.28v-.87c-.75 0-1.52 0-2.28-.01m0-11.9v.86l2.28.1v-.86l-2.28-.1" class="E"/><path d="M578.93 125.95h0c-.4 0-.8.04-1.17.12v2.67h2.28v-2.68c-.36-.08-.73-.1-1.1-.1"/><path d="M341.08 139.86c3.15 0 5.7-2.55 5.7-5.7 0-3.15-2.55-5.7-5.7-5.7-3.15 0-5.7 2.55-5.7 5.7h0c0 3.15 2.55 5.7 5.7 5.7" class="F"/><path d="M477.35 142.86h0m-1.12-.1h0c.08.02.16.03.24.04l-.24-.04m2.27 11.07h-2.28v.33h2.28v-.33m-.3 7.37c.1.04.2.1.3.14h0l-.3-.14m-1.18-.24h0m1.48-5.94h-2.28 2.28m-1.47 17.9h0v.87h-.8.8c.45-.01.9-.12 1.3-.33l.18-.1-.18.1a3.09 3.09 0 0 1-1.3.33h0v-.87m1.15-.36l-.23.12c.08-.03.16-.07.23-.12m-1.82-1.36h-.13.13m.68-9.37h-.8.8m0 0h0c.32.01.63.08.9.2-.28-.12-.6-.2-.9-.2m1.46 25.86h-2.28 2.28m0-1.42h-2.28 2.28m0 2.3h-2.28 2.28"/></g><g fill="#fff" class="E"><path d="M478.5 142.75c-.35.07-.7.1-1.08.1h-.1a4.91 4.91 0 0 1-.86-.07l-.25-.04v7.22h2.28v-7.22m.01 8.1h-2.28v2.12h2.28v-2.12m0 4.2h-2.28v5.95h.8a3.29 3.29 0 0 1 1.13.22c.01 0 .01 0 .02.01.03 0 .03 0 .03.01.1.04.2.1.3.14v-6.33m0 18.35l-.18.1a3.09 3.09 0 0 1-1.3.33h0-.8v8.02h2.28v-8.44m-1.47-11.54h0-.8v2.2h.13v7.18h-.13v1.72h.8v.87-.87c.32-.01.64-.1.92-.24h0l.23-.12.33-.23v-9.96c-.16-.13-.33-.24-.52-.32h-.03a2.26 2.26 0 0 0-.92-.22m1.46 20.84h-2.28v2.72h2.28v-2.72m0 3.6h-2.28v1.42h2.28v-1.42m0 2.28h-2.28v2.07h2.28v-2.07m0 2.94h-2.28v29.4h2.28v-29.4"/><path d="M478.5 190.65h-2.28v.87h2.28v-.87m0-2.94h-2.28v.87h2.28v-.87m0-2.3h-2.28v.87h2.28v-.87m0-3.6h-2.28v.87h2.28v-.87m0-9.5c-.17.14-.36.26-.56.35-.3.15-.6.23-.92.24v.87-.87h-.8v.87h.8c.45-.01.9-.12 1.3-.33l.18-.1v-1.04m-2.15-8.3h-.13v7.18h.13v-7.18m.67-3.07h0-.8v.87h.8c.54.01 1.06.2 1.48.54v-1.04a3.49 3.49 0 0 0-1.49-.37m1.48-6.8h-2.28v.87h2.28v-.87m0-1.2h-2.28v.87h2.28v-.87m0-3h-2.28v.87h2.28v-.87"/></g><g fill="#fff"><path d="M478.5 137.26h-2.28v5.5c.37.08.75.1 1.14.1a6.12 6.12 0 0 0 1.14-.11v-5.5"/><path d="M212.3 143.5H210v11.83l.67.03h.54l1.07-.04V143.5" class="E"/><path d="M210.83 155.35h.33c-.12.01-.23.01-.33 0m-.05 0h0m-.05 0h0m-.04 0"/><path d="M212.3 156.2l-.9.03h-.4c-.33 0-.67-.01-1-.03v2.12l1.13.03h.3l.84-.03v-2.12" class="E"/><path d="M211.4 158.34h-.02.02m.04 0h-.02.02m-1.43-.03h0l1.13.03a10.73 10.73 0 0 1-1.13-.03m2.28 0l-.84.03.84-.03m-1.17-2.08h0m.1 0h-.03.03m-.13 0h0m-.04 0h0m.25 0h-.03.03m-.3 0h0m.4-.01h-.1.1m-1.4-.03h0l1 .03c-.33 0-.67-.01-1-.03m2.28 0l-.9.03.9-.03"/><path d="M212.3 159.2h-.26l-.85.02h-.03c-.24 0-.48 0-.7-.01-.14 0-.28-.01-.42-.02v22.64h2.28V159.2" class="E"/><path d="M211.2 159.22h-.03.03m-1.18-.03h0 .42-.42m2.28 0h-.26.26"/><path d="M212.3 182.7H210v2.72h2.28v-2.72m.02 3.6H210v1.43h2.28v-1.43" class="E"/><path d="M210.38 187.7h0m1.9-1.42H210h2.28"/><path d="M210 188.58v2.07h2.28v-2.07H210" class="E"/><path d="M210 188.58h0"/><path d="M212.3 191.52H210v29.4h2.28v-29.4" class="E"/><path d="M212.3 190.65H210v.87h2.28v-.87M210 187.7v.87h2.28v-.87H210m2.28-2.3H210v.87h2.28v-.87m0-3.6H210v.87h2.28v-.87m0-23.52l-1.15.03a21.03 21.03 0 0 1-1.13-.03v.87l1.14.03 1.14-.03v-.87m-2.28-3v.87l1.14.04 1.14-.04v-.87l-1.14.04c-.38 0-.76-.02-1.14-.04" class="E"/><path d="M542.28 4.08h-1.37L546.47 19h1.2l5.56-14.93h-1.4l-4.7 13.08-.1.32-.08-.32-4.7-13.08zm-8.24 1.54l3 8.14h-6l3-8.14zm4.93 13.4h1.3L534.62 4.1h-1.2L527.78 19h1.32l1.53-4.18h6.78l1.56 4.18zm74.1-12.92l-1.34 1.34 1.34 1.34 1.34-1.34-1.34-1.34zm-5.9 12.72h1.98a13.21 13.21 0 0 0 2.67-.26c.9-.17 1.75-.4 2.6-.66l2.42-.9 2.15-1 .53-.27.38-.2.37-.17.52-.2-.15-.7-.15-.73-1.02-.4-.87-.4-.85-.43-.96-.47-.95-.44-.93-.38a6.1 6.1 0 0 0-.9-.26 3.81 3.81 0 0 0-.87-.1 3.4 3.4 0 0 0-1.6.41c-.5.27-1 .7-1.46 1.24a6.76 6.76 0 0 0-.53.73l-.3.52 1.22.73.2-.34.3-.46.4-.5c.15-.17.32-.3.5-.45s.37-.24.58-.32a1.84 1.84 0 0 1 .66-.12 2.24 2.24 0 0 1 .65.1c.23.06.48.15.74.25l.8.34.85.37 2.72 1.13-2.32 1.1-2.44.94a21.91 21.91 0 0 1-2.5.66 12.52 12.52 0 0 1-2.49.25h-1.98v1.4zm-1.74-.93a2.18 2.18 0 0 0 .5.54 1.73 1.73 0 0 0 .56.28 2.1 2.1 0 0 0 .5.1l.36.01h.18V17.4h-.18c-.3 0-.6-.07-.85-.22s-.52-.38-.77-.7-.48-.7-.7-1.2a20.81 20.81 0 0 1-.7-1.76l-1.37.42.26.86.3 1.04.27 1.1.18 1.05.02.4a3.48 3.48 0 0 1-.12.9 4.79 4.79 0 0 1-.53 1.21 6.82 6.82 0 0 1-.85 1.11 10.13 10.13 0 0 1-1.07 1l-1.2.87-1.2.72.32.63.32.65c.5-.25.97-.53 1.44-.83a12.08 12.08 0 0 0 1.35-1c.42-.36.82-.75 1.18-1.15s.68-.83.94-1.27.47-.9.62-1.38a4.88 4.88 0 0 0 .22-1.46v-.48zm-9.9-4.8c.23.14.43.33.62.57s.35.5.5.82a7.03 7.03 0 0 1 .37.96c.1.33.17.66.22.98.05.33.08.63.08.9h-.8c-.3 0-.6-.01-.92-.03a7.24 7.24 0 0 1-.92-.12 3.43 3.43 0 0 1-.82-.27c-.24-.12-.44-.28-.6-.47-.16-.2-.25-.44-.28-.74 0-.3.05-.6.16-.93a4.45 4.45 0 0 1 .42-.91 2.92 2.92 0 0 1 .6-.7c.23-.2.44-.27.67-.27.24-.02.48.06.7.2zm-4.2 12.1a10.07 10.07 0 0 0 1.89-.48c.6-.22 1.2-.5 1.74-.8a9.38 9.38 0 0 0 1.51-1.12c.46-.42.85-.9 1.18-1.42s.6-1.08.77-1.7a6.86 6.86 0 0 0 .28-1.95c0-.4-.03-.85-.1-1.3-.07-.47-.17-.94-.3-1.4-.14-.47-.32-.9-.53-1.34s-.46-.8-.75-1.14a3.52 3.52 0 0 0-.98-.8c-.37-.2-.77-.3-1.22-.3a2.05 2.05 0 0 0-.9.2c-.27.13-.52.3-.75.52s-.42.47-.6.76a5.83 5.83 0 0 0-.43.91 5.75 5.75 0 0 0-.27.96c-.06.33-.1.63-.1.93 0 .47.07.88.2 1.22s.32.63.57.86a2.77 2.77 0 0 0 .87.56c.34.14.7.24 1.12.3l1.17.13h1 .6c-.07.5-.27 1-.58 1.5s-.74.98-1.27 1.43-1.17.85-1.9 1.2a11.12 11.12 0 0 1-2.5.84l.3 1.4zm-8.4-4.3l-1.34 1.34 1.34 1.34 1.34-1.34-1.34-1.34zm-7.53-2.08h1.98a13.21 13.21 0 0 0 2.67-.26c.9-.17 1.75-.4 2.6-.66l2.42-.9 2.15-1 .53-.27.38-.2.37-.17.52-.2-.15-.7-.15-.73-1.02-.4-.87-.4-.85-.43-.97-.5-.95-.44-.93-.38a6.1 6.1 0 0 0-.9-.26 3.81 3.81 0 0 0-.87-.1 3.4 3.4 0 0 0-1.6.41c-.5.27-1 .7-1.46 1.24a6.76 6.76 0 0 0-.53.73l-.3.52 1.22.73.2-.34.3-.46.4-.5c.15-.17.32-.3.5-.45s.37-.24.58-.32a1.84 1.84 0 0 1 .66-.12 2.24 2.24 0 0 1 .65.1c.23.06.48.15.74.25l.8.34.85.37 2.72 1.13-2.32 1.1-2.44.94a21.91 21.91 0 0 1-2.5.66 12.52 12.52 0 0 1-2.49.25h-1.98v1.4zm-6.58 5.87a11.36 11.36 0 0 0 1.47-.26c.5-.12.98-.28 1.45-.47.47-.2.9-.44 1.25-.72a3.68 3.68 0 0 0 .89-1c.23-.38.34-.82.35-1.32 0-.12-.02-.25-.06-.4s-.1-.3-.22-.5a4.58 4.58 0 0 0-.42-.57 5.37 5.37 0 0 0-.68-.64h2.92v-1.4h-7.04l-.1 1.44.4.08.52.13.6.17.64.2c.37.13.68.27.93.42.25.14.46.28.62.4a1.41 1.41 0 0 1 .34.37c.07.12.1.22.1.3 0 .32-.1.6-.32.85s-.48.45-.8.63a5.75 5.75 0 0 1-1.1.45l-1.2.3-1.1.16a6.46 6.46 0 0 1-.78.05h-.7c-.25 0-.52-.02-.8-.04a8.3 8.3 0 0 1-.83-.12c-.28-.06-.55-.14-.8-.26-.26-.1-.5-.25-.74-.42a2.49 2.49 0 0 1-.61-.64c-.4-.6-.6-1.38-.6-2.36 0-.74.12-1.6.35-2.55a23.21 23.21 0 0 1 1.01-3.11l-.65-.26-.68-.27c-.46 1.13-.8 2.17-1.05 3.1s-.38 1.8-.42 2.62l-.01.22v.2c0 1.3.28 2.38.85 3.2.27.46.6.82 1.04 1.1s.9.5 1.4.64c.5.15 1.04.25 1.6.3l1.6.08 1.33-.1z"/><path d="M418.72 11.7c.23.14.43.33.62.57s.35.5.5.82.27.63.37.96.17.66.22.98c.05.33.08.63.08.9h-.8c-.3 0-.6-.01-.92-.03-.3-.02-.62-.06-.92-.12a3.43 3.43 0 0 1-.82-.27c-.24-.12-.44-.28-.6-.47-.16-.2-.25-.44-.28-.74 0-.3.05-.6.16-.93a4.45 4.45 0 0 1 .42-.91c.17-.28.37-.5.6-.7s.44-.27.67-.27a1.26 1.26 0 0 1 .71.2zm-4.2 12.1a10.07 10.07 0 0 0 1.89-.48c.6-.22 1.2-.5 1.74-.8a9.38 9.38 0 0 0 1.51-1.12c.46-.42.85-.9 1.18-1.42.33-.52.6-1.08.77-1.7a6.86 6.86 0 0 0 .28-1.95c0-.4-.03-.85-.1-1.3-.07-.47-.17-.94-.3-1.4-.14-.47-.32-.9-.53-1.34s-.46-.8-.75-1.14-.62-.6-.98-.8c-.37-.2-.77-.3-1.22-.3a2.05 2.05 0 0 0-.9.2c-.27.13-.52.3-.75.52s-.42.47-.6.76a5.83 5.83 0 0 0-.43.91 5.75 5.75 0 0 0-.27.96c-.06.33-.1.63-.1.93 0 .47.07.88.2 1.22s.32.63.57.86a2.77 2.77 0 0 0 .87.56c.34.14.7.24 1.12.3s.8.1 1.17.13l1 .02.6-.01c-.07.5-.27 1-.58 1.5s-.74.98-1.27 1.43-1.17.85-1.9 1.2a11.12 11.12 0 0 1-2.5.84l.3 1.4zm-5-11.47l.35 1.1.34 1.15.26 1.14c.07.37.1.72.1 1.05 0 .6-.14 1.18-.42 1.74a6.66 6.66 0 0 1-1.11 1.58 10.24 10.24 0 0 1-1.59 1.38 16.06 16.06 0 0 1-1.85 1.13l.63 1.28c.5-.25.98-.53 1.46-.84a13.6 13.6 0 0 0 1.36-1c.43-.36.82-.74 1.18-1.15.36-.4.67-.83.94-1.27.26-.44.47-.9.62-1.38s.22-.97.22-1.48c0-.4-.04-.82-.1-1.26l-.28-1.3-.35-1.24-.33-1.07-1.42.44zm-7.4-.63c.23.14.43.33.62.57s.35.5.5.82.27.63.37.96.17.66.22.98c.05.33.08.63.08.9h-.8c-.3 0-.6-.01-.92-.03-.3-.02-.62-.06-.92-.12a3.43 3.43 0 0 1-.82-.27c-.24-.12-.44-.28-.6-.47-.16-.2-.25-.44-.28-.74 0-.3.05-.6.16-.93a4.45 4.45 0 0 1 .42-.91c.17-.28.37-.5.6-.7s.44-.27.67-.27a1.26 1.26 0 0 1 .71.2zm-4.2 12.1a10.07 10.07 0 0 0 1.89-.48c.6-.22 1.2-.5 1.74-.8a9.38 9.38 0 0 0 1.51-1.12c.46-.42.85-.9 1.18-1.42.33-.52.6-1.08.77-1.7a6.86 6.86 0 0 0 .28-1.95c0-.4-.03-.85-.1-1.3-.07-.47-.17-.94-.3-1.4-.14-.47-.32-.9-.53-1.34s-.46-.8-.75-1.14-.62-.6-.98-.8c-.37-.2-.77-.3-1.22-.3a2.05 2.05 0 0 0-.9.2c-.27.13-.52.3-.75.52s-.42.47-.6.76a5.83 5.83 0 0 0-.43.91 5.75 5.75 0 0 0-.27.96c-.06.33-.1.63-.1.93 0 .47.07.88.2 1.22s.32.63.57.86a2.77 2.77 0 0 0 .87.56c.34.14.7.24 1.12.3s.8.1 1.17.13l1 .02.6-.01c-.07.5-.27 1-.58 1.5s-.74.98-1.27 1.43-1.17.85-1.9 1.2a11.12 11.12 0 0 1-2.5.84l.3 1.4zm-5.5-6.46c.36-.05.7-.13 1.02-.25.33-.12.63-.26.9-.45s.53-.4.75-.67a1.91 1.91 0 0 0 .34-.56c.08-.2.13-.4.15-.56l.03-.43-.01-.28a5.97 5.97 0 0 0-.09-.63c-.08-.36-.22-.73-.4-1.12s-.4-.77-.63-1.15-.52-.75-.82-1.12a13.47 13.47 0 0 0-.95-1.04c-.33-.33-.67-.62-1-.9s-.68-.5-1.02-.67l-.6 1.33c.25.14.55.35.9.64s.7.62 1.06 1 .7.77 1.02 1.2.6.85.8 1.26.32.73.34.94l.04.4a1.22 1.22 0 0 1-.27.79c-.13.16-.28.3-.45.4s-.35.2-.55.26c-.2.07-.4.1-.62.14s-.44.04-.66.04a6.45 6.45 0 0 1-.97-.08l-.96-.2c-.3-.1-.6-.2-.9-.3a6.56 6.56 0 0 1-.75-.37l-.6 1.4c.16.13.4.26.7.38l1.02.34c.37.1.74.18 1.1.24s.7.1.97.1a5.55 5.55 0 0 0 1.08-.05zm-9.9-7.05c-.44.13-.85.32-1.25.57-.4.24-.77.53-1.1.87-.34.34-.63.7-.88 1.1-.25.4-.44.84-.58 1.3-.14.46-.2.93-.2 1.4 0 .5.07.92.22 1.26s.36.63.64.86a3.58 3.58 0 0 0 1.02.58c.4.16.86.3 1.37.44l.63.18a3.63 3.63 0 0 1 .56.22 1.16 1.16 0 0 1 .38.27c.1.1.14.2.14.34v.05c-.03.33-.2.65-.48.96s-.7.6-1.2.83-1.13.44-1.84.58c-.72.15-1.52.22-2.42.22a7.69 7.69 0 0 1-1.91-.23c-.58-.15-1.1-.38-1.52-.7s-.77-.7-1-1.2-.37-1.05-.37-1.7l.01-.37.03-.34.22-1.23.3-1.28.35-1.27.37-1.2-.68-.25-.7-.26-.16.47-.22.73-.26.92-.26 1.04-.24 1.1-.2 1.07c-.04.3-.05.6-.05.9 0 .9.16 1.67.47 2.33a4.57 4.57 0 0 0 1.32 1.66c.56.44 1.23.78 2 1s1.6.33 2.5.33a17.75 17.75 0 0 0 1.57-.08c.56-.05 1.1-.15 1.66-.28a9.43 9.43 0 0 0 1.58-.52 5.76 5.76 0 0 0 1.34-.81c.4-.33.7-.7.93-1.15s.35-.96.35-1.54c0-.4-.08-.72-.23-.97a1.9 1.9 0 0 0-.61-.62c-.25-.16-.54-.3-.86-.38l-1-.27-.8-.2c-.27-.08-.53-.18-.75-.3-.23-.13-.42-.3-.56-.52-.15-.2-.22-.48-.22-.82 0-.27.05-.55.15-.84a4.33 4.33 0 0 1 .42-.87 4.78 4.78 0 0 1 .64-.8c.25-.25.52-.47.82-.67a3.43 3.43 0 0 1 .91-.43c.3-.1.62-.15.93-.15h.1c.28 0 .54.03.77.08s.4.1.54.15l.32-.66.16-.32.17-.36-.33-.1-.46-.13a7.13 7.13 0 0 0-.56-.1 4.4 4.4 0 0 0-.64-.04c-.48-.01-.92.06-1.36.2zm-28.2 7.13h2.6a5.55 5.55 0 0 0 1.76-.27c.54-.18 1-.44 1.4-.77.4-.33.7-.72.93-1.18.22-.46.33-.96.33-1.5 0-.3-.04-.62-.1-.96s-.2-.7-.37-1.1a8.22 8.22 0 0 0-.67-1.2c-.28-.42-.62-.85-1.03-1.3a11.84 11.84 0 0 0-1.12-1.12l-1.1-.96 6.65-2.8-.57-1.32-7.23 3.1-.2 1.66 1.7 1.56c.54.5 1 .98 1.4 1.46a7.67 7.67 0 0 1 .96 1.41c.24.46.36.94.36 1.42 0 .4-.06.74-.2 1a1.96 1.96 0 0 1-.52.68 2.49 2.49 0 0 1-.77.42 5.5 5.5 0 0 1-.95.23c-.34.05-.7.08-1.05.1l-1.07.01h-1.14v1.43zm.37 0V16h-.26c-.4 0-.7-.03-.97-.1a1.31 1.31 0 0 1-.62-.32c-.16-.15-.26-.36-.33-.62-.06-.26-.1-.58-.1-.98l.01-1.4v-.7l-.01-2.16v-1.6l-.05-1.58-.1-1.42-.14-1.14-1.42.26.14 1.4.08 1.65.04 1.8.01 1.82v3.24c0 .6.08 1.1.24 1.52s.4.76.7 1.02c.3.26.67.45 1.1.57s.93.18 1.5.18h.18zm-9.64 2.1l-1.34 1.34 1.34 1.34 1.34-1.34-1.34-1.34zm-2.95-2.1h1.45c.48 0 .93-.03 1.34-.1.4-.06.78-.17 1.12-.33.33-.16.63-.36.88-.62s.47-.6.64-.98c.13-.3.2-.55.22-.8l.03-.6c0-.18-.01-.37-.03-.56-.04-.35-.1-.7-.2-1.06l-.3-1.06-.37-1-.37-.9-1.3.65.3.78.32.88.28.9.18.82c.04.24.05.45.05.63l-.01.17c-.01.23-.06.42-.16.58-.15.26-.33.47-.52.62a2.19 2.19 0 0 1-.68.35 3.48 3.48 0 0 1-.84.16l-1 .04h-1.06v1.42zM330.45 14c-.07.1-.16.3-.27.57-.1.27-.22.6-.33 1s-.2.82-.28 1.3a8.96 8.96 0 0 0-.12 1.48c0 .6.08 1.16.24 1.64.16.5.37.92.63 1.3s.58.7.93.96.73.5 1.12.66.8.3 1.2.38.8.12 1.18.12c.4 0 .8-.04 1.25-.12.43-.08.87-.22 1.3-.4.43-.2.83-.42 1.2-.72a4.91 4.91 0 0 0 1.01-1.07 5.27 5.27 0 0 0 .7-1.47c.17-.56.26-1.2.26-1.9v-.4l-.01-.44c.04.03.1.07.2.13.1.06.2.12.36.17l.53.16c.2.05.44.07.72.07h.18V16h-.18c-.24 0-.47-.04-.7-.1a1.45 1.45 0 0 1-.59-.36c-.17-.17-.3-.38-.42-.63-.1-.26-.17-.57-.2-.95l-.1-2.5-.07-2.5-.08-2.53-.13-2.58-.7.04-.72.03.03.84.06 1.4.08 1.8.1 2.06.08 2.16.07 2.1.05 1.9.02 1.56c0 .5-.06.97-.2 1.38s-.3.77-.52 1.1c-.22.3-.47.58-.76.8s-.6.4-.92.56a4.4 4.4 0 0 1-.99.32 4.77 4.77 0 0 1-.97.1c-.5 0-1-.08-1.44-.25-.46-.17-.86-.4-1.2-.73a3.6 3.6 0 0 1-.84-1.15c-.2-.45-.32-.95-.33-1.5v-.17c0-.33.01-.64.05-.92.04-.33.1-.64.17-.93l.28-.86.37-.88-1.32-.58zm-10.3 3.5l.14-2.84.04-2.57-.01-1.5-.03-1.34-.03-.66-.05-.94-.07-1.1-.08-1.16-.1-1.1-.1-.9-1.43.22.1 1 .16 1.8.14 2.5.06 3.14-.04 2.55-.13 2.8 1.43.1zm-5.78 1.76l-1.33 1.33 1.35 1.35 1.32-1.33-1.34-1.35zm-3.25-.02l-1.33 1.34 1.35 1.34 1.33-1.33-1.35-1.35zm-1.92-1.82h2.1c.54 0 1.04-.03 1.52-.1a5.13 5.13 0 0 0 1.31-.33c.4-.16.74-.36 1.03-.62a2.98 2.98 0 0 0 .71-.98c.13-.3.2-.55.22-.8l.03-.6c0-.18-.01-.37-.03-.56-.04-.35-.1-.7-.2-1.06l-.3-1.06-.37-1-.37-.9-1.3.65.3.78.32.88.28.9.18.82c.04.24.05.45.05.63v.17c-.01.23-.06.42-.15.58-.15.26-.36.47-.62.62a3.3 3.3 0 0 1-.88.35c-.33.08-.67.14-1.05.16l-1.1.04h-1.7v1.42zm-3.53-11.08l-1.34 1.34 1.34 1.34 1.34-1.34-1.34-1.34zm3.7 9.66c-.35 0-.63-.07-.85-.22a1.67 1.67 0 0 1-.52-.57 2.4 2.4 0 0 1-.27-.75c-.06-.27-.1-.53-.1-.77l-.07-.8-.08-.67-.1-.58-.13-.55-.67.2-.7.2c.12.43.2.82.25 1.16l.07 1c0 .8-.25 1.38-.74 1.78s-1.28.6-2.36.6h-.34v1.42h.34c.87 0 1.6-.1 2.22-.3s1.12-.5 1.54-.92a3.37 3.37 0 0 0 1.03.88c.4.23.9.34 1.5.34h.18V16h-.18zm-8.53-9.84l-1.33 1.33 1.35 1.35 1.32-1.33-1.34-1.35zm-3.25-.02l-1.33 1.34 1.35 1.34 1.33-1.33-1.35-1.35zm5.35 9.86c-.35 0-.63-.07-.85-.22a1.67 1.67 0 0 1-.52-.57 2.4 2.4 0 0 1-.27-.75l-.1-.77-.07-.8-.08-.67-.1-.58-.13-.55-.67.2-.7.2c.12.43.2.82.25 1.16l.07 1c0 .4-.06.74-.18 1.04s-.32.54-.6.74-.62.35-1.06.45-.96.15-1.58.15H295v1.42h1.37c.53 0 1-.03 1.4-.08s.78-.13 1.1-.23c.33-.1.62-.23.87-.38a3.57 3.57 0 0 0 .69-.54 3.37 3.37 0 0 0 1.03.88c.4.23.9.34 1.5.34h.18V16h-.18zm-9.7.5c.15.23.32.4.5.54s.37.22.56.28a2.1 2.1 0 0 0 .5.1l.36.01h.18V16h-.18c-.3 0-.6-.07-.85-.22s-.52-.38-.77-.7-.48-.7-.7-1.2c-.23-.5-.46-1.08-.7-1.76l-1.37.42.26.86.3 1.04.27 1.1.18 1.05.02.4c0 .3-.04.6-.12.9a4.79 4.79 0 0 1-.53 1.21 6.82 6.82 0 0 1-.85 1.11 10.13 10.13 0 0 1-1.07 1c-.38.3-.78.6-1.2.87l-1.2.72.32.63c.1.2.2.4.32.65.5-.25.97-.53 1.44-.83.47-.3.93-.64 1.35-1s.82-.75 1.18-1.15.68-.83.94-1.27.47-.9.62-1.38a4.88 4.88 0 0 0 .22-1.46v-.5zm-9.4-11.7l-1.34 1.34 1.34 1.34 1.34-1.34-1.34-1.34zm-2.92 12.63h1.45c.48 0 .93-.03 1.34-.1.4-.06.78-.17 1.12-.33.33-.16.63-.36.88-.62s.47-.6.64-.98c.13-.3.2-.55.22-.8l.03-.6c0-.18-.01-.37-.03-.56-.04-.35-.1-.7-.2-1.06l-.3-1.06-.37-1-.37-.9-1.3.65.3.78.32.88.28.9.18.82c.04.24.05.45.05.63v.17c-.01.23-.06.42-.16.58-.15.26-.33.47-.52.62a2.19 2.19 0 0 1-.68.35 3.48 3.48 0 0 1-.84.16c-.3.03-.62.04-1 .04h-1.06v1.42zm-9.2-10.1l-1.33 1.33 1.35 1.35 1.32-1.33-1.34-1.35zm-3.25-.02l-1.33 1.34 1.35 1.34 1.33-1.33-1.35-1.35zm12.48 8.7a2.83 2.83 0 0 1-.92-.16c-.32-.1-.62-.27-.88-.5a2.59 2.59 0 0 1-.64-.79c-.17-.3-.25-.66-.25-1.05v-.08a2.77 2.77 0 0 1 .03-.39l.06-.45c.02-.15.05-.3.1-.46.03-.15.07-.28.1-.4l-1.4-.38-.23.72c-.1.3-.25.62-.46.97s-.5.7-.85 1.05c-.36.35-.8.67-1.37.96s-1.24.52-2.04.7-1.75.27-2.84.27c-.75 0-1.44-.04-2.06-.14-.63-.1-1.2-.22-1.68-.4-.5-.17-.92-.38-1.28-.62s-.65-.5-.86-.82c-.18-.26-.28-.5-.3-.73l-.03-.53c0-.2.02-.43.05-.66.05-.35.13-.68.24-1l.28-.8-.63-.35-.64-.36c-.54 1.17-.8 2.22-.8 3.16v.12c.02.97.32 1.8.9 2.47s1.45 1.2 2.6 1.57 2.55.55 4.22.56a19.03 19.03 0 0 0 2.53-.18c.76-.1 1.45-.28 2.07-.5s1.18-.5 1.68-.83.97-.72 1.4-1.16c.13.44.32.83.58 1.16a3.59 3.59 0 0 0 .91.83c.35.22.73.38 1.14.5s.83.16 1.26.16h.38V16h-.34z"/><path d="M249.27 241.58c.23.14.43.33.62.57s.35.5.5.82a7.03 7.03 0 0 1 .37.96c.1.33.17.66.22.98.05.33.08.63.08.9h-.8c-.3 0-.6-.01-.92-.03a7.24 7.24 0 0 1-.92-.12 3.43 3.43 0 0 1-.82-.27c-.24-.12-.44-.28-.6-.47-.16-.2-.25-.44-.28-.74 0-.3.05-.6.16-.93a4.45 4.45 0 0 1 .42-.91 2.92 2.92 0 0 1 .6-.7c.23-.2.44-.27.67-.27.24-.02.5.05.7.2zm-4.2 12.1a10.07 10.07 0 0 0 1.89-.48c.6-.22 1.2-.5 1.74-.8a9.38 9.38 0 0 0 1.51-1.12c.46-.42.85-.9 1.18-1.42s.6-1.08.77-1.7a6.86 6.86 0 0 0 .28-1.95c0-.4-.03-.85-.1-1.3-.07-.47-.17-.94-.3-1.4-.14-.47-.32-.9-.53-1.34s-.46-.8-.75-1.14a3.52 3.52 0 0 0-.98-.8c-.37-.2-.77-.3-1.22-.3a2.05 2.05 0 0 0-.9.2c-.27.13-.52.3-.75.52s-.42.47-.6.76a5.83 5.83 0 0 0-.43.91 5.75 5.75 0 0 0-.27.96c-.06.33-.1.63-.1.93 0 .47.07.88.2 1.22s.32.63.57.86a2.77 2.77 0 0 0 .87.56c.34.14.7.24 1.12.3l1.17.13h1.6c-.07.5-.27 1-.58 1.5s-.74.98-1.27 1.43-1.17.85-1.9 1.2a11.12 11.12 0 0 1-2.5.84l.3 1.4zm-5-11.48l.35 1.1.34 1.15.26 1.14c.07.37.1.72.1 1.05 0 .6-.14 1.18-.42 1.74a6.66 6.66 0 0 1-1.11 1.58 10.24 10.24 0 0 1-1.59 1.38 16.06 16.06 0 0 1-1.85 1.13l.63 1.28a15.27 15.27 0 0 0 1.46-.84 13.6 13.6 0 0 0 1.36-1c.43-.36.82-.74 1.18-1.15.36-.4.67-.83.94-1.27.26-.44.47-.9.62-1.38s.22-.97.22-1.48c0-.4-.04-.82-.1-1.26l-.28-1.3-.35-1.24-.33-1.07-1.42.44zm-7.4-.62c.23.14.43.33.62.57s.35.5.5.82a7.03 7.03 0 0 1 .37.96c.1.33.17.66.22.98.05.33.08.63.08.9h-.8c-.3 0-.6-.01-.92-.03a7.24 7.24 0 0 1-.92-.12 3.43 3.43 0 0 1-.82-.27c-.24-.12-.44-.28-.6-.47-.16-.2-.25-.44-.28-.74 0-.3.05-.6.16-.93a4.45 4.45 0 0 1 .42-.91 2.92 2.92 0 0 1 .6-.7c.23-.2.44-.27.67-.27.24-.02.5.05.7.2zm-4.2 12.1a10.07 10.07 0 0 0 1.89-.48c.6-.22 1.2-.5 1.74-.8a9.38 9.38 0 0 0 1.51-1.12c.46-.42.85-.9 1.18-1.42s.6-1.08.77-1.7a6.86 6.86 0 0 0 .28-1.95c0-.4-.03-.85-.1-1.3-.07-.47-.17-.94-.3-1.4-.14-.47-.32-.9-.53-1.34s-.46-.8-.75-1.14a3.52 3.52 0 0 0-.98-.8c-.37-.2-.77-.3-1.22-.3a2.05 2.05 0 0 0-.9.2c-.27.13-.52.3-.75.52s-.42.47-.6.76a5.83 5.83 0 0 0-.43.91 5.75 5.75 0 0 0-.27.96c-.06.33-.1.63-.1.93 0 .47.07.88.2 1.22s.32.63.57.86a2.77 2.77 0 0 0 .87.56c.34.14.7.24 1.12.3l1.17.13h1.6c-.07.5-.27 1-.58 1.5s-.74.98-1.27 1.43-1.17.85-1.9 1.2a11.12 11.12 0 0 1-2.5.84l.3 1.4zm-5.5-6.47c.36-.05.7-.13 1.02-.25.33-.12.63-.26.9-.45s.53-.4.75-.67a1.91 1.91 0 0 0 .34-.56 2.35 2.35 0 0 0 .15-.56l.03-.43-.01-.28a5.97 5.97 0 0 0-.09-.63c-.08-.36-.22-.73-.4-1.12s-.4-.77-.63-1.15-.52-.75-.82-1.12a13.47 13.47 0 0 0-.95-1.04c-.33-.33-.67-.62-1-.9a5.11 5.11 0 0 0-1.02-.67l-.6 1.33c.25.14.55.35.9.64s.7.62 1.06 1 .7.77 1.02 1.2.6.85.8 1.26.32.73.34.94l.04.4a1.22 1.22 0 0 1-.27.79c-.13.16-.28.3-.45.4s-.35.2-.55.26c-.2.07-.4.1-.62.14s-.44.04-.66.04a6.45 6.45 0 0 1-.97-.08l-.96-.2-.9-.3a6.56 6.56 0 0 1-.75-.37l-.6 1.4c.16.13.4.26.7.38l1.02.34 1.1.24c.36.06.7.1.97.1.37.03.73 0 1.08-.05zm-9.9-7.05c-.44.13-.85.32-1.25.57-.4.24-.77.53-1.1.87a6.16 6.16 0 0 0-.88 1.1 5.43 5.43 0 0 0-.58 1.3c-.14.46-.2.93-.2 1.4 0 .5.07.92.22 1.26s.36.63.64.86a3.58 3.58 0 0 0 1.02.58c.4.16.86.3 1.37.44l.63.18a3.63 3.63 0 0 1 .56.22 1.16 1.16 0 0 1 .38.27c.1.1.14.2.14.34v.05c-.03.33-.2.65-.48.96s-.7.6-1.2.83-1.13.44-1.84.58c-.72.15-1.52.22-2.42.22a7.69 7.69 0 0 1-1.91-.23c-.58-.15-1.1-.38-1.52-.7s-.77-.7-1-1.2-.37-1.05-.37-1.7l.01-.37.03-.34.22-1.23.3-1.28.35-1.27.37-1.2-.68-.25-.7-.26-.16.47-.22.73-.26.92-.26 1.04-.24 1.1-.2 1.07a6.79 6.79 0 0 0-.05.9c0 .9.16 1.67.47 2.33a4.57 4.57 0 0 0 1.32 1.66c.56.44 1.23.78 2 1s1.6.33 2.5.33a17.75 17.75 0 0 0 1.57-.08 11.99 11.99 0 0 0 1.66-.28 9.43 9.43 0 0 0 1.58-.52 5.76 5.76 0 0 0 1.34-.81 3.55 3.55 0 0 0 .93-1.15c.23-.45.35-.96.35-1.54 0-.4-.08-.72-.23-.97a1.9 1.9 0 0 0-.61-.62 2.92 2.92 0 0 0-.86-.38l-1-.27-.8-.2a3.91 3.91 0 0 1-.75-.3c-.23-.13-.42-.3-.56-.52-.15-.2-.22-.48-.22-.82 0-.27.05-.55.15-.84a4.33 4.33 0 0 1 .42-.87 4.78 4.78 0 0 1 .64-.8c.25-.25.52-.47.82-.67a3.43 3.43 0 0 1 .91-.43c.3-.1.62-.15.93-.15h.1c.28 0 .54.03.77.08s.4.1.54.15l.32-.66.16-.32.17-.36-.33-.1-.46-.13a7.13 7.13 0 0 0-.56-.1 4.4 4.4 0 0 0-.64-.04c-.48-.01-.92.06-1.36.2zm-22.45 9.23l-1.34 1.34 1.34 1.34 1.34-1.34-1.34-1.34zm-2.95-2.1h1.45c.48 0 .93-.03 1.34-.1.4-.06.78-.17 1.12-.33.33-.16.63-.36.88-.62s.47-.6.64-.98c.13-.3.2-.55.22-.8l.03-.6c0-.18-.01-.37-.03-.56a6.8 6.8 0 0 0-.2-1.06l-.3-1.06-.37-1-.37-.9-1.3.65.3.78.32.88.28.9.18.82c.04.24.05.45.05.63v.17c-.01.23-.06.42-.16.58-.15.26-.33.47-.52.62a2.19 2.19 0 0 1-.68.35 3.48 3.48 0 0 1-.84.16l-1 .04h-1.06v1.42zm-1.75-.93a2.18 2.18 0 0 0 .5.54 1.73 1.73 0 0 0 .56.28 2.1 2.1 0 0 0 .5.1l.36.01h.18v-1.42h-.18c-.3 0-.6-.07-.85-.22s-.52-.38-.77-.7-.48-.7-.7-1.2a20.81 20.81 0 0 1-.7-1.76l-1.37.42.26.86.3 1.04.27 1.1.18 1.05.02.4a3.48 3.48 0 0 1-.12.9 4.79 4.79 0 0 1-.53 1.21 6.82 6.82 0 0 1-.85 1.11 10.13 10.13 0 0 1-1.07 1l-1.2.87-1.2.72.32.63.32.65c.5-.25.97-.53 1.44-.83a12.08 12.08 0 0 0 1.35-1c.42-.36.82-.75 1.18-1.15s.68-.83.94-1.27.47-.9.62-1.38a4.88 4.88 0 0 0 .22-1.46v-.5zm-9.94-11.28l-1.33 1.33 1.35 1.35 1.32-1.33-1.34-1.35zm-3.25-.02l-1.33 1.34 1.35 1.34 1.33-1.33-1.35-1.35zm3.73 14.07a4.43 4.43 0 0 1-1.06 1.39 5.05 5.05 0 0 1-1.55.9c-.6.22-1.26.3-2 .3-.62 0-1.16-.06-1.62-.2-.46-.12-.85-.3-1.18-.5a2.69 2.69 0 0 1-.8-.73c-.2-.28-.38-.57-.5-.88s-.2-.62-.25-.93-.07-.6-.07-.9a5.97 5.97 0 0 1 .13-1.3 7.1 7.1 0 0 1 .32-1.15l.4-.94.38-.67-1.17-.86a11.26 11.26 0 0 0-.56 1.04c-.18.37-.34.76-.48 1.17s-.25.84-.34 1.28-.13.9-.13 1.37c0 .9.13 1.68.4 2.37s.65 1.27 1.16 1.75 1.12.84 1.84 1.1 1.54.4 2.44.4c.97 0 1.86-.14 2.67-.42s1.5-.7 2.08-1.27 1.03-1.3 1.35-2.16.48-1.9.48-3.1c0-.4-.03-.85-.1-1.3-.07-.47-.17-.94-.3-1.4-.14-.47-.32-.9-.53-1.34s-.46-.8-.75-1.14a3.52 3.52 0 0 0-.98-.8c-.37-.2-.77-.3-1.22-.3a2.05 2.05 0 0 0-.9.2c-.27.13-.52.3-.75.52s-.42.47-.6.76a5.83 5.83 0 0 0-.43.91 5.75 5.75 0 0 0-.27.96 6.34 6.34 0 0 0-.11.93c0 .47.07.88.2 1.22s.32.63.57.86a2.77 2.77 0 0 0 .87.56c.34.14.7.24 1.12.3l1.18.13 1 .02h.58c-.08.68-.25 1.3-.5 1.84zm-1.23-7.55c.23.15.43.34.62.58s.35.52.5.83a6.27 6.27 0 0 1 .37.97c.1.33.17.67.22 1s.08.63.08.9h-.82c-.3 0-.62-.01-.95-.04a7.24 7.24 0 0 1-.95-.14c-.3-.06-.58-.16-.83-.28s-.44-.3-.6-.48c-.15-.2-.22-.45-.22-.74s.05-.6.16-.93a4.45 4.45 0 0 1 .42-.91 2.92 2.92 0 0 1 .6-.7c.23-.2.44-.27.67-.27.26-.02.5.05.73.2zm290.27-9.03h-1.26v14.93h1.26v-14.93zm-19.28 0v14.93h1.26v-6.55l-.1-6.56 5.53 13.1h.98l5.55-13.17-.1 6.67v6.5h1.26v-14.93h-1.68l-5.52 13.18-5.5-13.18h-1.67zm-9.14 1.08c1.53.01 2.77.52 3.7 1.56.93 1.03 1.4 2.4 1.4 4.12v1.3c0 1.78-.47 3.2-1.42 4.23s-2.2 1.56-3.78 1.56h-2.83v-12.78h2.93zm-.1 13.85c1.27 0 2.4-.28 3.38-.84s1.74-1.36 2.28-2.4.8-2.2.8-3.55v-1.38c0-1.33-.27-2.5-.8-3.55s-1.3-1.84-2.27-2.4-2.07-.84-3.3-.84h-4.17v14.93h4.07zm-7.46-14.93h-1.27v6.7h-8.53v-6.7h-1.26v14.93h1.26v-7.16h8.53v7.16h1.27v-14.93zm94.72 2.03l-1.34 1.34 1.34 1.34 1.34-1.34-1.34-1.34zm-5.9 12.7h1.98a13.21 13.21 0 0 0 2.67-.26c.9-.17 1.75-.4 2.6-.66l2.42-.9 2.15-1 .53-.27.38-.2.37-.17.52-.2-.15-.7-.15-.73-1.02-.4-.87-.4-.85-.43-.96-.47-.95-.44-.93-.38a6.1 6.1 0 0 0-.9-.26 3.81 3.81 0 0 0-.87-.1 3.4 3.4 0 0 0-1.6.41c-.5.27-1 .7-1.46 1.24a6.76 6.76 0 0 0-.53.73l-.3.52 1.22.73.2-.34.3-.46.4-.5c.15-.17.32-.3.5-.45s.37-.24.58-.32a1.84 1.84 0 0 1 .66-.12 2.24 2.24 0 0 1 .65.1c.23.06.48.15.74.25l.8.34.85.37 2.72 1.13-2.32 1.1-2.44.94a21.91 21.91 0 0 1-2.5.66 12.52 12.52 0 0 1-2.49.25h-1.98v1.4zm-1.74-.93a2.18 2.18 0 0 0 .5.54 1.73 1.73 0 0 0 .56.28 2.1 2.1 0 0 0 .5.1l.36.01h.18v-1.42h-.18c-.3 0-.6-.07-.85-.22s-.52-.38-.77-.7-.48-.7-.7-1.2a20.81 20.81 0 0 1-.7-1.76l-1.37.42.26.86.3 1.04.27 1.1.18 1.05.02.4a3.48 3.48 0 0 1-.12.9 4.79 4.79 0 0 1-.53 1.21 6.82 6.82 0 0 1-.85 1.11 10.13 10.13 0 0 1-1.07 1l-1.2.87-1.2.72.32.63.32.65c.5-.25.97-.53 1.44-.83a12.08 12.08 0 0 0 1.35-1c.42-.36.82-.75 1.18-1.15s.68-.83.94-1.27.47-.9.62-1.38a4.88 4.88 0 0 0 .22-1.46v-.5zm-9.5-4.78c.23.14.43.33.62.57s.35.5.5.82a7.03 7.03 0 0 1 .37.96c.1.33.17.66.22.98.05.33.08.63.08.9h-.8c-.3 0-.6-.01-.92-.03a7.24 7.24 0 0 1-.92-.12 3.43 3.43 0 0 1-.82-.27c-.24-.12-.44-.28-.6-.47-.16-.2-.25-.44-.28-.74 0-.3.05-.6.16-.93a4.45 4.45 0 0 1 .42-.91 2.92 2.92 0 0 1 .6-.7c.23-.2.44-.27.67-.27.24-.02.5.05.7.2zm-4.2 12.1a10.07 10.07 0 0 0 1.89-.48c.6-.22 1.2-.5 1.74-.8a9.38 9.38 0 0 0 1.51-1.12c.46-.42.85-.9 1.18-1.42s.6-1.08.77-1.7a6.86 6.86 0 0 0 .28-1.95c0-.4-.03-.85-.1-1.3-.07-.47-.17-.94-.3-1.4-.14-.47-.32-.9-.53-1.34s-.46-.8-.75-1.14a3.52 3.52 0 0 0-.98-.8c-.37-.2-.77-.3-1.22-.3a2.05 2.05 0 0 0-.9.2c-.27.13-.52.3-.75.52s-.42.47-.6.76a5.83 5.83 0 0 0-.43.91 5.75 5.75 0 0 0-.27.96c-.06.33-.1.63-.1.93 0 .47.07.88.2 1.22s.32.63.57.86a2.77 2.77 0 0 0 .87.56c.34.14.7.24 1.12.3l1.17.13h1.6c-.07.5-.27 1-.58 1.5s-.74.98-1.27 1.43-1.17.85-1.9 1.2a11.12 11.12 0 0 1-2.5.84l.3 1.4zm-7.98-4.3l-1.34 1.34 1.34 1.34 1.34-1.34-1.34-1.34zm-7.53-2.1h1.98a13.21 13.21 0 0 0 2.67-.26c.9-.17 1.75-.4 2.6-.66l2.42-.9 2.15-1 .53-.27.38-.2.37-.17.52-.2-.15-.7-.15-.73-1.02-.4-.87-.4-.85-.43-.96-.47-.95-.44-.93-.38a6.1 6.1 0 0 0-.9-.26 3.81 3.81 0 0 0-.87-.1 3.4 3.4 0 0 0-1.6.41c-.5.27-1 .7-1.46 1.24a6.76 6.76 0 0 0-.53.73l-.3.52 1.22.73.2-.34.3-.46.4-.5c.15-.17.32-.3.5-.45s.37-.24.58-.32a1.84 1.84 0 0 1 .66-.12 2.24 2.24 0 0 1 .65.1c.23.06.48.15.74.25l.8.34.85.37 2.72 1.13-2.32 1.1-2.44.94a21.91 21.91 0 0 1-2.5.66 12.52 12.52 0 0 1-2.49.25h-1.98v1.4zm-6.58 5.88a11.36 11.36 0 0 0 1.47-.26c.5-.12.98-.28 1.45-.47.47-.2.9-.44 1.25-.72a3.68 3.68 0 0 0 .89-1c.23-.38.34-.82.35-1.32 0-.12-.02-.25-.06-.4s-.1-.3-.22-.5a4.58 4.58 0 0 0-.42-.57 5.37 5.37 0 0 0-.68-.64h2.92v-1.42l-7.04-.01-.1 1.44.4.08.52.13.6.17.64.2c.37.13.68.27.93.42.25.14.46.28.62.4a1.41 1.41 0 0 1 .34.37c.07.12.1.22.1.3 0 .32-.1.6-.32.85s-.48.45-.8.63a5.75 5.75 0 0 1-1.1.45l-1.2.3-1.1.16a6.46 6.46 0 0 1-.78.05h-.7c-.25 0-.52-.02-.8-.04s-.55-.07-.83-.12c-.28-.06-.55-.14-.8-.26-.26-.1-.5-.25-.74-.42a2.49 2.49 0 0 1-.61-.64c-.4-.6-.6-1.38-.6-2.36 0-.74.12-1.6.35-2.55a23.21 23.21 0 0 1 1.01-3.11l-.65-.26-.68-.27c-.46 1.13-.8 2.17-1.05 3.1s-.38 1.8-.42 2.62l-.01.22v.2c0 1.3.28 2.38.85 3.2.27.46.6.82 1.04 1.1s.9.5 1.4.64c.5.15 1.04.25 1.6.3l1.6.08 1.33-.12z"/></g></svg>