<svg xmlns="http://www.w3.org/2000/svg" width="55.451" height="35.076" fill="#919191"><path d="M3.882 14.87l1.436-5.744a.87.87 0 0 1-.687-.849V7.35a3.65 3.65 0 0 1 3.647-3.647h6.54v-1.9A1.8 1.8 0 0 1 16.613 0h33.34a1.8 1.8 0 0 1 1.794 1.794v15.744a.87.87 0 0 1-.868.868.87.87 0 0 1-.868-.868V1.794c0-.032-.026-.058-.058-.058h-33.34c-.032 0-.058.026-.058.058v15.744a.87.87 0 0 1-.868.868.87.87 0 0 1-.868-.868v-.984H4.57a2.84 2.84 0 0 0-2.7 1.968h2.7a.87.87 0 0 1 .868.868v1.848c-.002 1.5-1.22 2.718-2.72 2.72h-.982v3.82h2.27a5.5 5.5 0 0 1 10.393 0h.418v-6.54a.87.87 0 0 1 .868-.868.87.87 0 0 1 .869.868v6.54h18.013a5.5 5.5 0 0 1 10.393 0h5c.032 0 .058-.026.058-.058v-1.9h-3.762a.87.87 0 0 1-.869-.868.87.87 0 0 1 .869-.868h8.335a.87.87 0 0 1 .869.869.87.87 0 0 1-.869.868h-2.837v1.9a1.8 1.8 0 0 1-1.794 1.794h-4.7v.058a5.5 5.5 0 1 1-11 0v-.058H14.7v.058a5.5 5.5 0 1 1-11 0v-.058H.868A.87.87 0 0 1 0 28.652v-9.26a4.58 4.58 0 0 1 3.882-4.521zm10.936-9.432h-6.54a1.91 1.91 0 0 0-1.91 1.91v.058h8.45zm0 9.377V9.143H7.1l-1.415 5.675zm24.947 18.523c2.078-.002 3.76-1.687 3.76-3.765s-1.687-3.76-3.764-3.76S36 27.5 36 29.578a3.77 3.77 0 0 0 3.765 3.76zm-30.565 0c2.078 0 3.762-1.684 3.762-3.762s-1.684-3.762-3.762-3.762-3.762 1.684-3.762 3.762A3.77 3.77 0 0 0 9.2 33.338zm-7.464-11.1h.984c.544-.003.982-.445.98-1v-.984H1.736v1.968zm38.03 5.56c.726 0 1.38.437 1.657 1.107s.124 1.442-.4 1.955-1.285.667-1.955.4-1.107-.932-1.107-1.657a1.8 1.8 0 0 1 1.794-1.794zm-30.562 0c1 0 1.794.803 1.794 1.794s-.803 1.794-1.794 1.794-1.794-.803-1.794-1.794a1.8 1.8 0 0 1 1.794-1.794zm10.192-3.707H32.36a.87.87 0 0 1 .869.868.87.87 0 0 1-.869.869H19.395a.87.87 0 0 1-.869-.869.87.87 0 0 1 .869-.869zm22.222-3.705H52.73a.87.87 0 0 1 .869.869.87.87 0 0 1-.869.869H41.617a.87.87 0 0 1-.869-.868.87.87 0 0 1 .869-.869zM39.452 8.6a.87.87 0 0 0-1.228 0l-7.72 7.723-4.017-4.017a.87.87 0 0 0-1.228 0 .87.87 0 0 0 0 1.228l4.63 4.63a.87.87 0 0 0 1.228 0l8.335-8.335a.87.87 0 0 0-.001-1.23z"/></svg>