<svg xmlns="http://www.w3.org/2000/svg" width="98.956" height="29.619" fill="#414141"><path d="M72.665 11.73l-.4 8.307-.15 2.883c-.012.376-.143.5-.52.476-.618-.032-1.237-.032-1.855 0-.365.02-.42-.124-.4-.44l.47-6.852.508-7.67c.028-.46.124-.67.65-.638.888.052 1.783.035 2.673 0a.51.51 0 0 1 .6.452c.97 3.5 2.085 6.985 2.773 10.57.005.027.04.048.106.125l.723-2.964c.643-2.628 1.5-5.2 2.257-7.788a.45.45 0 0 1 .18-.31.46.46 0 0 1 .35-.082q1.418.035 2.838 0c.352-.01.477.1.495.454l.344 6.093.473 8.433c.028.45-.028.66-.554.616a16.67 16.67 0 0 0-1.91-.007c-.3.01-.4-.08-.4-.395l-.35-8.768c-.03-.852 0-1.706 0-2.54-.2-.044-.258.026-.278.115-.817 3.742-2.092 7.352-3.15 11.025-.075.26-.188.35-.45.343-.527-.015-1.055-.017-1.582 0-.264.01-.377-.077-.448-.34-.96-3.575-2.077-7.1-2.8-10.745-.032-.1-.01-.248-.2-.353zM39.4 15.543v-7.2c0-.443.134-.542.554-.538q3.656.028 7.313 0c.377 0 .518.093.493.483a10.33 10.33 0 0 0 0 1.472c.037.464-.082.63-.588.617-1.418-.04-2.838 0-4.256-.022-.365-.005-.5.07-.5.472v3.165c-.007.36.1.46.463.454l4.038-.018c.4-.007.5.115.48.5a12.02 12.02 0 0 0 0 1.473c.023.376-.1.5-.48.492-1.328-.024-2.656.007-3.984-.02-.4-.008-.526.092-.52.5l.02 5.512c.005.414-.112.535-.52.513a18.85 18.85 0 0 0-1.964 0c-.424.022-.557-.1-.553-.54l.014-7.317zm15.335.062l-.01-7.256c0-.42.093-.577.54-.548a15.85 15.85 0 0 0 1.963 0c.44-.027.543.12.54.544l-.02 11.784c0 .522.084.7.664.7l4.418-.026c.393-.006.5.122.482.5a20.29 20.29 0 0 0 0 1.691c.01.3-.073.415-.4.413q-3.9-.018-7.8 0c-.4 0-.38-.2-.38-.48q.005-3.658.002-7.313zM49.5 15.6V8.348c0-.422.1-.575.54-.547a15.68 15.68 0 0 0 1.962 0c.445-.028.54.126.538.546l-.01 10.632.006 3.98c0 .325-.076.45-.425.436-.708-.027-1.418-.03-2.126 0-.4.017-.488-.113-.486-.5l.01-7.295zm18.03.015l.01 7.256c0 .394-.078.552-.507.527-.654-.042-1.3-.042-1.963 0-.487.034-.553-.16-.55-.587l.01-7.9-.008-6.546c0-.4.062-.587.525-.555a14.68 14.68 0 0 0 1.962 0c.46-.03.532.154.53.56l-.007 7.256zm31.312-1.67a7.62 7.62 0 0 0-2.2-4.8 6.17 6.17 0 0 0-9.588 1.68 10.12 10.12 0 0 0-.17 9.382 5.6 5.6 0 0 0 5.4 3.386 5.9 5.9 0 0 0 5.607-3.28 10.86 10.86 0 0 0 1.052-5.062c.007-.438-.027-.875-.102-1.306zm-4.053 5.773a2.68 2.68 0 0 1-4.681.076 3.47 3.47 0 0 1-.348-.614c-1.016-2.327-.997-4.976.052-7.3a2.79 2.79 0 0 1 2.231-1.8c1.135-.173 2.253.398 2.78 1.418a8.12 8.12 0 0 1 .964 4.288 7.76 7.76 0 0 1-.998 3.92zm-70.466-5.376l.1.087a9.94 9.94 0 0 1 1.888 3.614 7.74 7.74 0 0 1 .088 3.807 1.07 1.07 0 0 1-.247.5 5.67 5.67 0 0 1-.432.445c-.373.323-.766.624-1.175.9l-3.546 2.263-4.744 2.593-1.772.794a6.19 6.19 0 0 1-.764.237 1.27 1.27 0 0 1-.595 0 7.26 7.26 0 0 1-1.246-.434l-2.592-1.26-6.042-3.55-.616-.413c-.044-.03-.085-.062-.158-.117a.46.46 0 0 1 .12.008l.4.187c.72.305 1.473.522 2.245.645.574.094 1.155.134 1.736.12a7.52 7.52 0 0 0 3.023-.694l2.645-1.292q2.638-1.376 5.195-2.9l4.4-2.766 1.118-.813a6.01 6.01 0 0 0 .6-.527c.25-.245.4-.57.447-.92a1.46 1.46 0 0 0-.01-.28c-.003-.06-.023-.123-.043-.233z"/><path d="M24.412 14.43c-.016-.02-.037-.036-.09-.087l.047.24a1.36 1.36 0 0 1 .011.279c-.038.35-.196.674-.447.92a6.01 6.01 0 0 1-.6.527l-1.118.813-3.2 2.056c5.3-.955 6.9 1.285 7.37 2.716 0-.014.007-.027.01-.04.288-1.257.258-2.565-.088-3.807-.375-1.323-1.02-2.554-1.896-3.615z"/><path d="M26.786 19.762c-.067-.043-.06-.1-.062-.152a6.26 6.26 0 0 0-.13-1.012 9.29 9.29 0 0 0-1.85-4.061c-.423-.527-.92-.992-1.474-1.378l-2.09-1.417-5.266-3.173-4.4-2.345-1.752-.79-.664-.222c-.286-.078-.587-.073-.87.015a1.16 1.16 0 0 0-.434.242l-.122.1a.6.6 0 0 1 .016-.1c.604-1.647 1.654-3.094 3.03-4.18A7.72 7.72 0 0 1 13.111.058a1.41 1.41 0 0 1 .751-.008 5.82 5.82 0 0 1 .967.324c.8.326 1.558.7 2.316 1.1 2.345 1.21 4.623 2.545 6.824 4l1.546 1.1c.225.18.438.372.637.58.15.155.258.343.316.55.123.444.206.898.248 1.357l.246 5.162-.055 3.666-.11 1.8-.012.064z"/><path d="M8.23 5.226c.283-.088.584-.094.87-.016.225.063.447.137.664.222.6.23 1.177.507 1.752.79l3.17 1.658c-4.178-4.584-1.953-7.32-1.42-7.862a1.13 1.13 0 0 0-.154.037 7.72 7.72 0 0 0-2.391 1.232C9.344 2.372 8.295 3.82 7.69 5.466a.6.6 0 0 0-.016.1l.122-.1a1.16 1.16 0 0 1 .433-.24z"/><path d="M11.123.77c-.025.084-.087.1-.135.137a9.43 9.43 0 0 0-2.973 3.332c-.403.74-.677 1.545-.8 2.377l-.08.676-.224 3.7-.037 6 .056 2.023.162 2.62c.035.473.098.943.2 1.408a2.21 2.21 0 0 0 .2.627c.075.142.17.273.28.39a1.18 1.18 0 0 0 .47.3l.186.07-.58.084-1.08.067c-.956.02-1.9-.108-2.827-.38a7.65 7.65 0 0 1-2.871-1.584l-.045-.04a1.47 1.47 0 0 1-.542-.842c-.073-.27-.128-.546-.164-.824l-.212-2.454-.065-5.83q.027-1.282.122-2.562a17.15 17.15 0 0 1 .192-1.731c.046-.256.107-.51.176-.76.058-.193.165-.367.31-.508a6.84 6.84 0 0 1 .781-.688l2.158-1.49a73.74 73.74 0 0 1 6.732-3.833l.577-.278a.23.23 0 0 1 .053-.014z"/><path d="M7.752 24.066c-.1-.116-.205-.247-.28-.39-.098-.198-.165-.41-.2-.627-.092-.465-.155-.935-.2-1.408l-.162-2.62-.05-1.84c-.525 1.62-2.308 6.022-6 5.28.043.04.09.08.137.114.016.012.03.026.045.04.83.73 1.81 1.27 2.87 1.584a9.2 9.2 0 0 0 2.827.381l1.08-.067c.18-.015.356-.05.58-.084l-.186-.07a1.18 1.18 0 0 1-.469-.297z"/></svg>