<svg xmlns="http://www.w3.org/2000/svg" width="71.554" height="40.951" viewBox="0 0 71.554 40.951">
  <g id="Group_1767" data-name="Group 1767" transform="translate(0.908 5.154)">
    <g id="Layer_1" data-name="Layer 1" transform="translate(0 0)">
      <path id="Path_3866" data-name="Path 3866" d="M53.334,13.827s-9.157,15.817-28.3,16.649S6.642,32.3,6.642,32.3L1.115,29.044.89,14.66s4.345,1.39,6.335-2.639S8.382,8,8.382,8H50.837Z" transform="translate(-0.89 -2.173)" fill="none" opacity="0.58" style="mix-blend-mode: overlay;isolation: isolate"/>
      <path id="Path_3867" data-name="Path 3867" d="M31.11,22.992l-7.825-4.853a1.024,1.024,0,0,0-1.565.832v9.748a1.024,1.024,0,0,0,1.565.832L31.11,24.74a1.024,1.024,0,0,0,0-1.748Z" transform="translate(-4.38 -3.846)" fill="none" stroke="#757575" stroke-miterlimit="10" stroke-width="2"/>
      <circle id="Ellipse_119" data-name="Ellipse 119" cx="0.874" cy="0.874" r="0.874" transform="translate(34.014 18.71) rotate(-89.56)" fill="#6b6b6b"/>
      <circle id="Ellipse_120" data-name="Ellipse 120" cx="0.874" cy="0.874" r="0.874" transform="translate(34.048 14.213) rotate(-89.56)" fill="#6b6b6b"/>
      <path id="Path_3870" data-name="Path 3870" d="M51.105,36.85H8.409A7.409,7.409,0,0,0,1,29.441V14.7A7.409,7.409,0,0,0,8.409,7.29h42.7A7.409,7.409,0,0,0,58.514,14.7V29.441a7.409,7.409,0,0,0-7.409,7.409Z" transform="translate(-0.909 -2.053)" fill="none" stroke="#757575" stroke-miterlimit="10" stroke-width="2"/>
      <circle id="Ellipse_121" data-name="Ellipse 121" cx="0.874" cy="0.874" r="0.874" transform="translate(33.972 23.08) rotate(-89.56)" fill="#6b6b6b"/>
      <circle id="Ellipse_122" data-name="Ellipse 122" cx="0.874" cy="0.874" r="0.874" transform="translate(33.946 27.443) rotate(-89.56)" fill="#6b6b6b"/>
      <ellipse id="Ellipse_123" data-name="Ellipse 123" cx="16.315" cy="14.315" rx="16.315" ry="14.315" transform="translate(38.015 -5.154)" fill="#121212"/>
      <g id="gift_1_" data-name="gift (1)" transform="translate(41.868 -3.154)">
        <g id="Group_1757" data-name="Group 1757" transform="translate(1.934 14.064)">
          <path id="Path_3871" data-name="Path 3871" d="M2,14.5h8.944v9.185H3.692A1.7,1.7,0,0,1,2,21.993Z" transform="translate(-2 -14.5)" fill="#6b6b6b"/>
        </g>
        <g id="Group_1758" data-name="Group 1758" transform="translate(12.328 14.064)">
          <path id="Path_3872" data-name="Path 3872" d="M21.694,14.5v7.493A1.7,1.7,0,0,1,20,23.685H12.75V14.5Z" transform="translate(-12.75 -14.5)" fill="#6b6b6b"/>
        </g>
        <g id="Group_1759" data-name="Group 1759" transform="translate(0 6.813)">
          <path id="Path_3873" data-name="Path 3873" d="M0,8.692v2.417A1.7,1.7,0,0,0,1.692,12.8h9.185V7H1.692A1.7,1.7,0,0,0,0,8.692Z" transform="translate(0 -7)" fill="#6b6b6b"/>
        </g>
        <g id="Group_1760" data-name="Group 1760" transform="translate(12.328 6.813)">
          <path id="Path_3874" data-name="Path 3874" d="M21.935,7H12.75v5.8h9.185a1.7,1.7,0,0,0,1.692-1.692V8.692A1.7,1.7,0,0,0,21.935,7Z" transform="translate(-12.75 -7)" fill="#6b6b6b"/>
        </g>
        <g id="Group_1761" data-name="Group 1761" transform="translate(10.877 0.001)">
          <path id="Path_3875" data-name="Path 3875" d="M11.975,7.776a.726.726,0,0,1-.717-.832c.358-2.417,2.246-6.99,6.837-6.99,2.62,0,3.549,1.416,3.549,2.629,0,2.155-3,5.192-9.669,5.192Zm6.119-6.37c-3.463,0-4.778,3.292-5.214,4.9A11.62,11.62,0,0,0,18.328,4.9c1.376-.817,1.866-1.731,1.866-2.314,0-.868-1.084-1.177-2.1-1.177Z" transform="translate(-11.25 0.045)" fill="#6b6b6b"/>
        </g>
        <g id="Group_1762" data-name="Group 1762" transform="translate(1.934 0.002)">
          <path id="Path_3876" data-name="Path 3876" d="M11.67,7.776C5,7.776,2,4.739,2,2.584c0-1.212.93-2.628,3.55-2.628,4.59,0,6.478,4.572,6.836,6.99a.725.725,0,0,1-.717.831ZM5.551,1.406c-1.015,0-2.1.309-2.1,1.178,0,1.235,2.159,3.485,7.313,3.722-.435-1.607-1.75-4.9-5.212-4.9Z" transform="translate(-2.001 0.044)" fill="#6b6b6b"/>
        </g>
      </g>
    </g>
  </g>
</svg>
