<svg xmlns="http://www.w3.org/2000/svg" xmlns:xlink="http://www.w3.org/1999/xlink" width="738.42" height="267.05"><g fill="#fff"><path d="M737.47 3.23l.03.47.93-.06-.03-.47m-2.48-1.55h0l.23-.9h-.01"/><path d="M736.04.7h0v.93m1.9.33l-.95-.93-.65.66.95.93"/><path d="M738.37 3.05l-.3-.9-.88.3.3.9m.01.3l-.38 8.25.93.04.37-8.23-.92-.06z"/><path d="M736.17 2.1c.64.06 1.17.53 1.3 1.17l.9-.18a2.39 2.39 0 0 0-2.13-1.92l-.08.93z"/><path d="M736.66 1.53l-.13-.47-.9.24.13.47"/><path d="M735.27 2.1h.4l.3.01h.26l.14-.03h.02l-.36-.86-.02.01.18.43-.04-.46h-.84l-.03.92zm1.75 2.04l.4.01h.32l.17-.01.1-.02.06-.02-.24-.9h-.8l-.02.95zm-1.3 126.84l.22-11.22-.93-.02-.22 11.22m1.6-34.88l.02-1.1-.93-.02-.02 1.1"/><path d="M735.78 94.52h-.35v.93h.35"/><path d="M735.32 94.97l-.02 1.1.93.02.02-1.1-.93-.02zm-3.26 39.6a3.66 3.66 0 0 0 3.66-3.59l-.93-.02a2.73 2.73 0 0 1-2.73 2.68v.93zm3.88-19.47l-.03-1.86-.93.02.03 1.86h.93zm1.8-92.32l.28-10.55-.93-.02-.27 10.54.92.03z"/><path d="M735.9 96.07l.02-1.1-.93-.02-.02 1.1"/><path d="M735.92 95l1.56-71.9-.93-.02L735 94.96l.93.03zm.02 24.77l.02-1.1v-1.02l-.02-2.56H735l.02 2.55v1.02l-.02 1.08.93.01zm-.04-6.54l-.1-8.14v-1.36l.08-7.65-.93-.02-.08 7.68v1.36l.1 8.15.93-.02z"/><path d="M735.3 96.08l-.1 9.1-.06 7.95.93.02.06-7.96.1-9.1-.93-.02zm1.52-73l-1.5 71.9.93.02 1.5-71.9-.93-.02z"/><path d="M737.74 23.1l.01-.32-.93-.02-.01.32m1.22-10.85l.01-.32h-.93v.32"/><path d="M737.73 22.78l.28-10.54-.93-.02-.28 10.54.93.02z"/><path d="M263.42 54.16h-1.6v-10.1c-.46.42-.96.8-1.5 1.1a10.34 10.34 0 0 1-1.67.82v-1.54a10.31 10.31 0 0 0 2.33-1.5 5.71 5.71 0 0 0 1.4-1.73h1.02v12.97zm-12.16-3.87v-1.6h4.9v1.6h-4.9zm-9.56 2.36h3.2a7.58 7.58 0 0 0 1.17-.06 2.62 2.62 0 0 0 .98-.35c.28-.18.5-.43.65-.72.18-.34.26-.7.25-1.1.01-.45-.12-.9-.37-1.26a1.91 1.91 0 0 0-1.03-.75c-.6-.17-1.25-.24-1.9-.22h-3v4.45zm0-5.97h2.8a6.39 6.39 0 0 0 1.63-.15 1.78 1.78 0 0 0 .98-.65 1.83 1.83 0 0 0 .33-1.13 2.05 2.05 0 0 0-.31-1.13 1.48 1.48 0 0 0-.88-.67c-.64-.15-1.3-.2-1.96-.18h-2.58v3.9zm-1.7 7.48v-12.9h4.85a5.97 5.97 0 0 1 2.37.39 3.09 3.09 0 0 1 1.4 1.2 3.23 3.23 0 0 1 .51 1.71 2.95 2.95 0 0 1-.45 1.56 3.28 3.28 0 0 1-1.35 1.18c.7.18 1.34.6 1.8 1.17.42.56.65 1.25.63 1.95 0 .6-.13 1.17-.4 1.7-.2.47-.54.88-.94 1.2a4.01 4.01 0 0 1-1.41.64 8.11 8.11 0 0 1-2.09.21H240zm-12.5-4.14l1.6-.14c.05.57.23 1.12.53 1.6a3.01 3.01 0 0 0 1.3 1.01c.63.27 1.3.4 1.98.4.6.01 1.17-.1 1.72-.3a2.3 2.3 0 0 0 1.11-.81 1.82 1.82 0 0 0 .37-1.1 1.69 1.69 0 0 0-.35-1.06c-.3-.35-.7-.62-1.16-.76-.34-.13-1.1-.34-2.3-.63a11.48 11.48 0 0 1-2.49-.8c-.56-.27-1.03-.7-1.37-1.2-.3-.48-.46-1.04-.46-1.6a3.29 3.29 0 0 1 .56-1.83 3.44 3.44 0 0 1 1.62-1.3c.75-.3 1.56-.45 2.37-.44.87-.02 1.73.14 2.53.46.7.27 1.27.75 1.7 1.36a3.98 3.98 0 0 1 .63 2.04l-1.64.12c-.04-.7-.36-1.38-.9-1.84-.65-.46-1.45-.68-2.25-.62a3.54 3.54 0 0 0-2.26.57c-.44.32-.7.83-.7 1.37a1.48 1.48 0 0 0 .5 1.15 6.77 6.77 0 0 0 2.58.92 19.04 19.04 0 0 1 2.86.82 4.01 4.01 0 0 1 1.66 1.3c.36.54.55 1.18.54 1.83 0 .7-.2 1.37-.6 1.94-.42.62-1 1.12-1.7 1.4a6.06 6.06 0 0 1-2.49.5c-1 .03-2-.14-2.93-.5a3.98 3.98 0 0 1-1.85-1.54c-.46-.7-.7-1.5-.7-2.33zm-4-8.77h1.72v7.46c.04 1.05-.1 2.1-.44 3.1-.3.78-.87 1.43-1.6 1.86a5.57 5.57 0 0 1-3.01.72 6.19 6.19 0 0 1-2.96-.62c-.75-.4-1.33-1.03-1.64-1.8-.37-1.04-.54-2.14-.5-3.24v-7.46h1.7v7.45c-.04.84.07 1.68.3 2.48.2.52.58.96 1.07 1.23.57.3 1.2.45 1.85.43a3.51 3.51 0 0 0 2.67-.85 4.98 4.98 0 0 0 .8-3.3l.01-7.45zm364.42 11.37v1.52h-8.55a2.59 2.59 0 0 1 .2-1.1 5.7 5.7 0 0 1 1.06-1.71c.63-.7 1.33-1.36 2.07-1.95a18.02 18.02 0 0 0 2.85-2.74 3.27 3.27 0 0 0 .75-1.91 2.16 2.16 0 0 0-.67-1.6 2.51 2.51 0 0 0-1.77-.65c-.68-.03-1.35.22-1.84.7a2.59 2.59 0 0 0-.7 1.89l-1.62-.16a4.02 4.02 0 0 1 1.27-2.78c.83-.67 1.87-1 2.93-.96a4.06 4.06 0 0 1 2.94 1.03c.7.66 1.1 1.6 1.08 2.56a3.64 3.64 0 0 1-.32 1.52c-.26.58-.62 1.1-1.05 1.58-.77.8-1.58 1.57-2.45 2.27l-1.84 1.63a5.09 5.09 0 0 0-.67.86h6.34zm-14.52-2.37v-1.6h4.9v1.6h-4.9zm-9.55 2.37h3.22a7.58 7.58 0 0 0 1.17-.06 2.73 2.73 0 0 0 .99-.35c.28-.18.5-.43.65-.72a2.28 2.28 0 0 0 .25-1.1c.01-.45-.12-.9-.37-1.26a1.91 1.91 0 0 0-1.03-.75c-.6-.17-1.25-.24-1.9-.22h-3v4.45zm0-5.97h2.8a6.35 6.35 0 0 0 1.63-.15 1.82 1.82 0 0 0 .98-.64c.23-.33.34-.73.33-1.13a2.05 2.05 0 0 0-.31-1.13 1.56 1.56 0 0 0-.88-.67c-.64-.15-1.3-.2-1.96-.18h-2.58v3.9zm-1.7 7.48v-12.9H567a5.91 5.91 0 0 1 2.38.4 3.09 3.09 0 0 1 1.4 1.2 3.22 3.22 0 0 1 .51 1.7 2.95 2.95 0 0 1-.45 1.56 3.28 3.28 0 0 1-1.35 1.18 3.31 3.31 0 0 1 1.8 1.17c.42.56.65 1.25.63 1.95a3.97 3.97 0 0 1-.38 1.69 3.39 3.39 0 0 1-.95 1.21 4.06 4.06 0 0 1-1.42.64c-.68.16-1.38.23-2.08.22l-4.93-.01zM549.62 50l1.6-.15c.05.57.23 1.12.53 1.6a3.01 3.01 0 0 0 1.3 1.01c.63.26 1.3.4 1.98.38.6.01 1.17-.1 1.73-.3a2.3 2.3 0 0 0 1.11-.81 1.85 1.85 0 0 0 .37-1.11 1.69 1.69 0 0 0-.35-1.06c-.3-.35-.7-.62-1.16-.76-.35-.13-1.1-.34-2.3-.63-.86-.17-1.7-.44-2.5-.8-.56-.27-1.03-.7-1.37-1.2-.3-.48-.46-1.04-.45-1.6a3.29 3.29 0 0 1 .56-1.83 3.44 3.44 0 0 1 1.62-1.3c.75-.3 1.56-.45 2.37-.44.87-.02 1.73.14 2.53.46a3.67 3.67 0 0 1 1.7 1.36 3.74 3.74 0 0 1 .63 2.03l-1.64.13c-.04-.7-.36-1.38-.9-1.85-.66-.46-1.45-.68-2.25-.62a3.54 3.54 0 0 0-2.26.57c-.44.32-.7.83-.7 1.37a1.48 1.48 0 0 0 .5 1.15c.8.48 1.66.8 2.57.92a19.04 19.04 0 0 1 2.86.82 4.01 4.01 0 0 1 1.66 1.3c.36.54.55 1.18.54 1.83a3.54 3.54 0 0 1-.59 1.94c-.42.63-1 1.12-1.7 1.4-.78.35-1.63.52-2.48.5-1 .03-2-.14-2.93-.5-.76-.3-1.4-.85-1.86-1.54-.48-.66-.72-1.46-.73-2.28h0zm-4-8.77h1.7v7.45c.04 1.05-.1 2.1-.44 3.1-.3.78-.87 1.43-1.6 1.86a5.57 5.57 0 0 1-3.01.72 6.19 6.19 0 0 1-2.96-.62c-.74-.4-1.33-1.03-1.65-1.8-.37-1.04-.53-2.14-.5-3.24v-7.46h1.7v7.46c-.04.84.07 1.68.3 2.48.2.52.58.96 1.07 1.23.57.3 1.2.45 1.85.43.97.1 1.94-.2 2.68-.85a4.96 4.96 0 0 0 .79-3.29l.02-7.46z" fill-rule="evenodd"/><path d="M723.82 11.9v.32h.93v-.32M651.32 1.24l-.01 2.13.93.01.01-2.13"/><path d="M192.96 12.37h544.56v-.93H192.96M129.1 2.57l.15 2.1.93-.06-.15-2.12"/><path d="M26.08 36.3v-.37h-.93v.37m167.8-24.86h-1.02l-30.64.4.02.93 31.64-.4v-.93z"/><path d="M723 3.3l-.3 8.6.93.03.3-8.6-.93-.04zm-593.27 9.98l-7.53.56.08.93 7.52-.56-.07-.93z"/><path d="M122.2 13.83l-1.37.1.08.93 1.36-.1-.07-.93z"/><path d="M120.83 13.94l-2.78.24.08.93 2.77-.24-.07-.93zm-3.6.3l-2.62.24.1.93 2.62-.24-.1-.93zM53.52 25.3l-1.14.33.26.9 1.13-.33-.25-.9z"/><path d="M52.38 25.62l-1.25.37.27.9 1.24-.37-.26-.9zm-1.25.38l-3.43 1.06.28.9 3.4-1.06-.26-.9z"/><path d="M47.7 27.05a211.82 211.82 0 0 0-14.86 5.32l.35.86c4.87-1.95 9.8-3.7 14.8-5.3l-.28-.9zM3.04 47.42l-1.6 1 .5.78 1.6-1-.5-.78zm4.5-2.7l-4.4 2.64.5.8 4.4-2.62-.47-.8z"/><path d="M8.25 44.3l-.7.4.46.8.7-.4m24.14-12.73l-1.07.43.35.86 1.07-.43-.35-.86z"/><path d="M13.06 41.63l-4.8 2.68.46.8 4.8-2.67-.44-.82zm1.97-1.05l-1.63.86.44.82 1.62-.86-.43-.82z"/><path d="M15.5 40.34l-.47.24.43.82.47-.24"/><path d="M16.9 39.6l-1.4.73.43.82 1.4-.73-.42-.82zm1.92-.95l-1.75.88.42.83 1.74-.88-.4-.83z"/><path d="M20.63 37.76l-1.82.9.4.83 1.8-.9-.4-.83zm11.15-4.96a187.81 187.81 0 0 0-11.14 4.96l.4.84c3.64-1.76 7.34-3.4 11.1-4.94l-.36-.86zm-16.06-2l1.1 9.2.92-.14-1.1-9.15-.92.1zM.01 39.28l1.2 9.6.92-.15-1.2-9.53-.93.08z"/><path d="M17 28.47l-1.63.73.4.85 1.6-.72-.37-.86zm-15.9 8.6A2.38 2.38 0 0 0 0 39.08l.01.23.92-.12v-.1c0-.5.25-.96.67-1.22l-.5-.8z"/><path d="M1.6 37.85l.87-.55 2.66-1.63 4.42-2.52 6.2-3.1-.4-.85-6.24 3.13-4.46 2.55L2 36.5l-.9.57.5.77zM3.52 48.2l.06-.04-.47-.8-.07.04"/><path d="M3.6 48.17l.04-.03-.5-.78-.03.03m10.4-4.94l.34-.18-.44-.82-.34.18m4.27-1.2l.16-.08-.42-.83-.16.08m36.87-13.43l9.4-2.5a332.21 332.21 0 0 1 41.54-7.21l9.3-.98-.1-.92-9.32.98c-14.02 1.53-27.94 3.94-41.66 7.23a256.81 256.81 0 0 0-9.43 2.52l.26.9z"/><path d="M114.02 15.48l.66-.06-.1-.92-.66.06m3.38.62l.83-.07-.08-.93-.83.07m12.58-.05l18.45-1 13.08-.44-.02-.93-13.1.45-18.47 1 .05.92zM721.83 1.66l.5.16.43.4.32-.34-.38.27a1.74 1.74 0 0 1 .3.98v.15l.93.05v-.2c0-.54-.16-1.07-.47-1.52l-.06-.07-.5-.47-.18-.1-.62-.2-.26.88z"/><path d="M16.96 28.5a2.36 2.36 0 0 0-1.25 2.09l.02.25.92-.12-.01-.13.17-.68a1.52 1.52 0 0 1 .59-.59l-.44-.82zM129.6 3c10.84-.78 21.7-1.2 32.58-1.46l32.63-.4 32.64-.1 97.93-.1 130.57.02 65.28.1 65.28.23 65.28.43V.8L586.5.36 521.2.13l-65.28-.1L325.37 0l-97.93.1-32.64.1-32.65.4c-10.88.26-21.77.68-32.63 1.46l.08.94z"/><path d="M17.36 29.32l4.13-1.85 7.26-3.14a260.3 260.3 0 0 1 10.46-4.09c4.47-1.64 9-3.15 13.56-4.53a257.52 257.52 0 0 1 16.41-4.39c6.2-1.45 12.48-2.67 18.77-3.7C101.73 5.35 115.66 4 129.6 3l-.06-.93c-13.96 1-27.9 2.36-41.73 4.63-6.32 1.04-12.6 2.26-18.83 3.72a270.07 270.07 0 0 0-16.47 4.4 249.56 249.56 0 0 0-13.61 4.55 248.07 248.07 0 0 0-10.5 4.11 246.36 246.36 0 0 0-7.29 3.15L17 28.47l.37.85zM721.96 1.7l8.55.23 4.76.2.04-.93-4.76-.2-8.57-.23-.02.93zm-70.18 0l10.76.04 29.04-.16 13.85-.06 16.53.15.02-.93L705.44.6 691.6.66l-29.03.16a1282.47 1282.47 0 0 1-10.75-.04l-.03.93zM.7 39.64l3.37-2.07-.5-.8L.2 38.84"/><path d="M4.08 37.57l2.23-1.3a99.81 99.81 0 0 1 10.07-5.07l-.38-.85a99.55 99.55 0 0 0-10.16 5.12l-2.24 1.3.48.8z"/><path d="M16.37 31.2l1.18-.52-.38-.85-.9.4-.26.12.37.85z"/><path d="M17.54 30.67l5-2.18 7.9-3.27a260.35 260.35 0 0 1 10.83-4.02c4.5-1.56 9.06-3 13.65-4.3 5.37-1.53 10.77-2.9 16.23-4.08 6.07-1.33 12.2-2.47 18.33-3.42 13.34-2.08 26.8-3.35 40.28-4.3l-.06-.93c-13.5.95-26.98 2.22-40.36 4.3a311.37 311.37 0 0 0-18.39 3.43c-5.47 1.2-10.9 2.56-16.28 4.1a261.99 261.99 0 0 0-13.7 4.31 276.97 276.97 0 0 0-10.86 4.03 248.81 248.81 0 0 0-7.92 3.28l-5 2.2.36.85z"/><path d="M129.75 5.1c10.84-.78 21.7-1.2 32.57-1.46l32.62-.4 32.63-.1 32.63-.05 65.26-.05 130.52.02 65.26.1 65.26.24 65.26.44.01-.93-65.26-.43-65.26-.24-65.27-.1-130.52-.02-97.9.1-32.63.1-32.64.42c-10.88.26-21.76.68-32.62 1.46l.07.9z"/><path d="M651.77 3.84l11.16.05L708 3.66l15.47.12.02-.93-15.5-.12-15.57.07-29.5.16a1381.41 1381.41 0 0 1-11.15-.05l-.01.93z"/><path d="M723.45 3.77l8.73.2 4.84.16.03-.93-4.83-.16-8.74-.2-.03.93zM125.67 138.3l-2.2-4.4-.83.42 2.2 4.4m75.98-59.06l.02.02.73-.58-.03-.02m453.26 59.64l2.2-4.4-.83-.42-2.2 4.4"/><path d="M198.4 78.2l2.53 1.57.5-.8-2.53-1.57m9.66 7.18L206 82.02l-.66.66 2.55 2.56m-74.93 59.56h47.28v-.93h-47.28m466.44.93h47.3v-.93h-47.3m-468.36-1h51.12v-.93h-51.12m466.46.93h51.12v-.93H597.5m-471.1-2.25h60.4v-.93h-60.4m466.45.93h60.4v-.93h-60.4v.93"/><path d="M654.4 138.05h-62.7v.93h62.68v-.93m-466.43 0h-62.7v.93h62.7m-145.28-4.4h689.4v-.93H42.67v.93m237.36-48.05l-2.52-1.58-.5.8 2.52 1.57"/><path d="M269.88 91.63l2.56 2.55.66-.66-2.56-2.55m7.1-5.9l-.02-.02-.76.53.02.02m323.34-6.52l-.02.02.72.58.02-.02m-7.08 5.58l2.56-2.56-.66-.66-2.56 2.56"/><path d="M602.86 77.4l-2.53 1.57.5.8 2.53-1.57m-161.58 32.44H360v.93h81.8v-.93m-81.8-1.3h81.8v-.92H360v.92m241.2-8.6h-77.32v.93h77.32v-.93m-323.32 0h-77.3v.93h77.3v-.93m-77.3-.04h77.3v-.93h-77.3v.93m323.3 0h77.32v-.93h-77.32v.93m-323.95-1.9h78.6v-.93h-78.6v.93m323.32 0h78.6v-.93h-78.6v.93m-2.55-2.85h-.96v.93h.96m64.3-1.76h-.24v.93h.24m-8.26-.93h-.24v.93h.24m-28.16-.93h-.24v.93h.24m-8.26-.93h-.24v.93h.24m-278.64-.93h-.24v.93h.24m-8.26-.93h-.24v.93h.24m-28.15-.93h-.25v.93h.25m-8.27-.93h-.24v.93h.24m367.64-2.55h-7.77v.93h7.77m-36.42-.93h-7.78v.93h7.78m-286.9-.93h-7.77v.93h7.77m-36.42-.93h-7.78v.93h7.78"/><path d="M596.1 93.4H529v.93h67.1v-.93m-323.33 0h-67.1v.93h67.1v-.93m320.76-2.56h-61.98v.92h61.98v-.92m-323.33 0h-61.98v.92h61.98v-.92m-61.97-5.47h61.98v-.93h-61.98m323.32.93h61.98v-.93h-61.98m-250.47-.34h.96v-.92h-.96m239.62-.01h-.96v.93h.96m83.7-.64h.96v-.93h-.96m-398.72.3h67.1v-.93h-67.1"/><path d="M529 82.82h67.1v-.93H529"/><path d="M589.44 81.4h-5.1v.93h5.1m-16.24-.93h-5.1v.93h5.1m-16.22-.93h-5.1v.93h5.1m-16.23-.93h-5.1v.93h5.1m-274.63-.93H261v.93h5.1m-16.2-.93h-5.12v.93h5.12m-16.24-.93h-5.1v.93h5.1m-16.23-.93h-5.1v.93h5.1m430.72 56.9v3.2h.92v-3.2m-124.2-53.6l.02-.03-.73-.58-.02.03"/><path d="M531.22 90.97l-2.55 2.56.66.65 2.55-2.55m-9.66-4.33l2.53-1.57-.5-.8-2.53 1.58m67.72-8.78h-5.1v.93h5.1m-16.24-.93h-5.1v.93h5.1"/><path d="M556.98 77.73h-5.1v.93h5.1m-16.23-.93h-5.1v.93h5.1m-274.63-.93H261v.93h5.1m-16.2-.93h-5.12v.93h5.12m-16.24-.93h-5.1v.93h5.1m-16.23-.93h-5.1v.93h5.1"/><path d="M212.32 78.02h5.1v-.93h-5.1m16.23.93h5.1v-.93h-5.1m16.23.93h5.1v-.93h-5.1m16.22.93h5.1v-.93H261m274.64.93h5.1v-.93h-5.1m16.23.93h5.1v-.93h-5.1m16.23.93h5.1v-.93h-5.1m16.23.93h5.1v-.93h-5.1m-367.45-5.14h8.27v-.93h-8.27m36.42.93h8.27v-.93h-8.27m286.9.93h8.26v-.93h-8.26m36.42.93h8.26v-.93h-8.27"/><path d="M217.12 71.2h7.78v-.93h-7.78m36.43.93h7.77v-.93h-7.77m286.9.93h7.77v-.93h-7.77m36.42.93h7.77v-.93h-7.77m-360.1-.7h.24v-.93h-.24m8.26.93h.25v-.93h-.25m28.16.93h.24v-.93h-.24m8.26.93h.24v-.93h-.24m278.64.93h.24v-.93h-.24m8.26.93h.24v-.93h-.24m28.16.93h.24v-.93h-.24m8.26.93h.24v-.93h-.24m-142.36-.82h-83.06v.93h83.06m-2.54-2.2H360.5v.93h79.36m-80.74-.93h-1.05v.93h1.05m242.72-1.58h-78.6v.93h78.6"/><path d="M440.18 65.9h-78.6v.93h78.6m-161.66-.93h-78.6v.93h78.6m-77.95-1.9h77.3V64h-77.3m161.65.92h3V64h-3"/><path d="M436.54 64.92h3V64h-3m87.34.92h77.32V64h-77.32m-323.3-.03h77.3v-.93h-77.3m323.3.93h77.32v-.93h-77.32m-87.34-3.52h-71.3v.93h71.3m-77.2-1.9h83.06v-.93h-83.06m82.43-7.67H360v.93h81.8M360 48.63h81.8v-.93H360m244.9 19.95v29.4h.92v-29.4m-1.9-2.55v31.94h.93V65.1m-.5 35.06v-1.4h-.93v1.4m.16-3.1v-29.4h-.93v29.4m0-33v1.06h.93v-1.06m-2.2-.4v.9h.93v-.9m-2.18 15.74v5.97h.92v-5.97"/><path d="M601.02 85.3v-5.9h-.93v5.92m-3.06 53.9v3.2h.93v-3.2m-2.34-56.87v11.5h.93v-11.5m-3.48 2.55v6.4h.93v-6.4h-.93m-4.1-7.34v4.8h.93v-4.8m-4.83-10.76l-.36 3.5.92.1.36-3.52"/><path d="M585.46 69.17l.28-2.74-.92-.1-.28 2.74m-8.5 26.47l-.28 2.74.93.1.27-2.73"/><path d="M576.43 97.92l.35-3.5-.92-.1-.36 3.5m9.2-29.78l.17-1.38-.93-.1-.16 1.37m-6.98 28.74l-.16 1.37.92.1.16-1.37m7.14 1.4l.4-2.66-.92-.14-.38 2.67"/><path d="M584.17 93.9l-.4 2.76.92.13.4-2.76m-7.76-23.23l.4-2.76-.92-.13-.4 2.76"/><path d="M576.64 66.54l-.38 2.67.92.13.38-2.66M130.13 23.55h607.15v-.93H130.13"/><path d="M521.73 78.2l2.53 1.57.5-.8-2.53-1.57m61.72-10.72l.38 2.66.92-.13-.4-2.67"/><path d="M585.1 70.68l-.4-2.76-.92.13.4 2.76m.7 27.23l-.17-1.37-.92.1.17 1.37"/><path d="M576.64 66.66l.16 1.38.92-.1-.16-1.37M586 97.82l-.36-3.5-.92.1.36 3.52"/><path d="M584.54 95.64l.28 2.74.92-.1-.28-2.74m-8.5-26.47l-.27-2.74-.93.1.28 2.75"/><path d="M575.5 66.88l.36 3.52.92-.1-.35-3.5m8.75 34.4v-.96h-.93v.96"/><path d="M583.86 77.56v4.8h.93v-4.8m-12.04 0v4.8h.93v-4.8m-5.22-14.06v.96h.93v-.96m-1.76 14.06v4.8h.93v-4.8m-12.04 0v4.8h.93v-4.8M555.7 63.5v.96h.93v-.96m-5.23 14.06v4.8h.92v-4.8m-3.67-10.76l-.35 3.5.92.1.35-3.52"/><path d="M549.05 69.17l.27-2.74-.92-.1-.28 2.74m-8.5 26.47l-.28 2.74.92.1.28-2.73"/><path d="M540 97.92l.35-3.5-.92-.1-.36 3.5m9.2-29.78l.16-1.38-.92-.1-.16 1.37m-6.98 28.74l-.16 1.37.92.1.16-1.37m7.14 1.4l.4-2.66-.92-.14-.4 2.67"/><path d="M547.76 93.9l-.4 2.76.92.13.4-2.76M540.9 70.8l.4-2.76-.9-.13-.4 2.76"/><path d="M540.22 66.54l-.4 2.67.92.13.4-2.66m62.2 19.84l-2.53-1.58-.5.8 2.53 1.57m-26.45 6.72l.4 2.76.92-.13-.4-2.76"/><path d="M577.55 98.03l-.38-2.67-.92.14.38 2.66m-29.1-31.48l.4 2.66.92-.13-.4-2.67"/><path d="M548.68 70.68l-.4-2.76-.92.13.4 2.76M540 94.03l.4 2.76.92-.13-.4-2.76"/><path d="M541.14 98.03l-.4-2.67-.9.14.38 2.66m8.22-.12l-.16-1.37-.92.1.16 1.37m-7.3-31.48l.16 1.38.92-.1-.16-1.37m8.43 31.25l-.35-3.5-.92.1.35 3.52"/><path d="M548.12 95.64l.28 2.73.92-.1-.28-2.74m-8.5-26.46l-.28-2.74-.92.1.28 2.75m-.54-2.3l.36 3.52.92-.1-.35-3.5m.3 10.76v4.8h.92v-4.8m-2.47 22.68v.96h.93v-.96m-4.5-22.68v4.8h.93v-4.8M532 91.3v-6.4h-.93v6.4m-1.6 2.55v-11.5h-.93v11.5m-4.47-14.45v5.92h.93V79.4"/><path d="M524.97 85.34v-5.97h-.93v5.97m-1.26-21.7v.9h.93v-.9m-1.28 33.42v-29.4h-.93v29.4m0-33v1.06h.93v-1.06"/><path d="M520.22 65.1v31.95h.93V65.1m-.95 31.95v-29.4h-.93v29.4m12.6-12.47l-2.56-2.56-.65.66 2.55 2.56m-7.1-5.6l.02.03.76-.53-.02-.03m-245.34-1.7l-2.52 1.57.5.8 2.52-1.57m-81.14 9.1l2.53-1.57-.5-.8-2.53 1.58m394.8 5.12l2.56 2.55.65-.66-2.55-2.55-.66.66M453.13 60v39.3h.93V60m-2.24 39.3V60h-.92v39.3m-7.67-39.95v7.67h.93v-7.67m-1.9-1.2V68.2h.93V58.16m-.96 6.94v-7.03h-.93v7.03m.6 3.2v-.64H441v.64m-4.93-8.3v6.4h.93V60m-13.6 6.97l-.13 1.28.92.1.13-1.28"/><path d="M423.9 68.34l.13-1.28-.93-.1-.13 1.28"/><path d="M423.04 68.04l.12-.97-.92-.1-.12.97m-6.1.42l.04-.32-.92-.12-.04.3"/><path d="M414.92 66.96l-.18 1.27.92.14.18-1.28m-145.3 18.15l2.56-2.56-.66-.66-2.56 2.56m331.08.5l-.01-.02-.76.53v.02m-8.07 52.7l-2.2-4.4-.83.42 2.2 4.4.83-.4"/><path d="M422.34 67.08l.2 1.28.92-.13-.2-1.28"/><path d="M423.1 68.23l-.05-.3-.92.13.05.3m-6.96-.1l-.13-1.28-.92.1.12 1.28"/><path d="M413.86 67.07l.13 1.28.93-.1-.13-1.27m18.38-.6V60h-.93v6.4m-45.27.57l-.12 1.28.92.1.13-1.28"/><path d="M387.47 68.34l.13-1.28-.93-.1-.13 1.28"/><path d="M386.62 68.04l.1-.97-.92-.1-.1.97m-6.1.42l.05-.3-.92-.14-.04.32"/><path d="M378.5 66.96l-.18 1.27.92.14.18-1.28m-102.52 12l-.02.02.72.58.02-.02"/><path d="M207.9 90.97l-2.55 2.56.65.65 2.56-2.55m177.36-24.55l.2 1.28.92-.13-.2-1.28"/><path d="M386.67 68.23l-.05-.3-.92.13.05.3m29.28-1.3l.1.97.92-.1-.1-.97m-37.35.1l.1.97.92-.1-.1-.97"/><path d="M378.8 68.25l-.13-1.28-.92.1.13 1.28"/><path d="M377.44 67.07l.13 1.28.93-.1-.13-1.27m-2.92-8.9v1.9h.93v-1.9m-.93 8.3v.64h.93v-.64M368.6 60v6.4h.92V60m-3.82 6.38V60h-.93v6.4m-3.67.62v-.2h-.93v.2m.93-2.12v-6.82h-.93v6.82m.6 3.4v-.64h-.93v.64m-158.3 17.35l.02-.03-.7-.62-.02.03m157.74-18v1.2h.93v-1.2m-.96 0v-7.67h-.93v7.67M349.94 60v39.3h.93V60m-2.24 39.3V60h-.93v39.3m-159.34 39.42l2.2-4.4-.83-.42-2.2 4.4"/><path d="M261.55 98.16l.38-2.66-.92-.14-.38 2.67"/><path d="M260.86 93.9l-.4 2.76.92.13.4-2.76m19.8-26.38v29.4h.93v-29.4m-1.9-2.55v31.94h.93V65.1m-1.27 31.95v-29.4h-.93v29.4m0-33v1.06h.93v-1.06m-2.2-.4v.9h.93v-.9m-2.18 15.74v5.97h.93v-5.97"/><path d="M277.7 85.3v-5.9h-.93v5.92m-4.47-2.97v11.5h.92v-11.5m-2.72 17.9v.96h.93v-.96m-1.68-15.34v6.4h.93v-6.4m-4.03 16.3v-.96h-.93v.96m-.06-23.64v4.8h.93v-4.8m-6.04 0v4.8h.93v-4.8m-3.13 23.64v-.96h-.93v.96m-8-23.64v4.8h.93v-4.8m-.64 23.64v-.96h-.93v.96m-3.64-37.7v.96h.93v-.96m15.67 3.3l-.35 3.5.92.1.36-3.52"/><path d="M262.15 69.17l.27-2.74-.92-.1-.28 2.74m-8.5 26.47l-.28 2.74.93.1.27-2.74"/><path d="M253.1 97.92l.36-3.5-.93-.1-.35 3.5m9.2-29.78l.17-1.38-.92-.1-.17 1.37m-6.98 28.74l-.16 1.37.92.1.16-1.37m-29.44-28.73l.16-1.38-.92-.1-.16 1.37"/><path d="M254 70.8l.4-2.76-.92-.13-.4 2.76"/><path d="M253.32 66.54l-.38 2.67.92.13.38-2.66m-29.12 31.48l.4-2.66-.92-.14-.4 2.67"/><path d="M224.44 93.9l-.4 2.76.92.13.4-2.76m35.27-27.35l.38 2.66.92-.13-.38-2.67"/><path d="M261.78 70.68l-.4-2.76-.92.13.4 2.76m-7.76 23.22l.4 2.76.92-.13-.4-2.76"/><path d="M254.24 98.03l-.38-2.67-.92.14.38 2.66m8.23-.12l-.17-1.37-.92.1.17 1.37m-7.3-31.48l.16 1.38.92-.1-.16-1.37m8.44 31.25l-.36-3.5-.92.1.35 3.52"/><path d="M261.22 95.64l.28 2.74.92-.1-.27-2.74m-8.5-26.47l-.27-2.74-.93.1.28 2.74m-.52-2.3l.35 3.52.93-.1-.36-3.5m-8.8 10.76v4.8h.93v-4.8m-.97 23.64v-.96h-.93v.96m-6.5 0v-.96h-.93v.96m-2.73-23.64v4.8h.93v-4.8m-1.76-14.06v.96h.93v-.96m-5.2 14.06v4.8h.93v-4.8m-1.93 23.64v-.96h-.93v.96m-9.2-23.64v4.8h.93v-4.8m-6.04 0v4.8h.93v-4.8m-4.1 13.74v-6.4h-.93v6.4m17.57-24.5l-.36 3.5.92.1.36-3.52"/><path d="M225.73 69.17l.27-2.74-.92-.1-.28 2.74m-8.5 26.47l-.28 2.74.93.1.27-2.73"/><path d="M216.7 97.92l.36-3.5-.93-.1-.35 3.5m1.28-1.15l-.16 1.37.92.1.16-1.37m-.38-25.97l.4-2.76-.92-.13-.4 2.76"/><path d="M216.9 66.54l-.38 2.67.92.13.38-2.66m6.38 0l.4 2.66.92-.13-.4-2.67"/><path d="M225.36 70.68l-.4-2.76-.92.13.4 2.76m-7.77 23.22l.4 2.76.92-.13-.4-2.76"/><path d="M217.82 98.03l-.38-2.67-.92.14.38 2.66m8.22-.12l-.16-1.37-.92.1.16 1.37m-7.3-31.48l.16 1.38.92-.1-.16-1.37m8.44 31.25l-.36-3.5-.92.1.35 3.52"/><path d="M224.8 95.64l.28 2.73.92-.1-.27-2.74m-8.5-26.46l-.27-2.74-.93.1.28 2.75m-.53-2.3l.36 3.52.92-.1-.36-3.5m-13.96 64.93v2.38h.92v-2.38"/><path d="M206.14 93.85v-11.5h-.93v11.5m-3.4 7.35v-.96h-.93v.96m-.13-21.8v5.92h.93V79.4"/><path d="M201.65 85.34v-5.97h-.93v5.97m-1.26-21.7v.9h.93v-.9m-1.3 33.42v-29.4h-.93v29.4m.01-33v1.06h.93v-1.06m-2.2 1.06v31.94h.92V65.1m-.94 31.95v-29.4h-.93v29.4m-14.25 42.17v3.2h.92v-3.2M15.6 75.3l9.55-14.46-.77-.52-9.56 14.47"/><path d="M33.78 49.72l-2.04 3.02.38.26-.37-.27-2.2 2.98-.7.9.73.57.7-.9v-.01l2.2-3v-.02l2.04-3.02-.76-.52zm112.45 81.98v2.4h.93v-2.4m-16.58 7.52v3.2h.93v-3.2m-110.74-56l-.25.84.9.27.25-.84m174.27-15.76l.3 3.33.93-.08-.3-3.33-.93.08zm.6 6.74l.27 2.9.93-.1-.27-2.9-.93.1z"/><path d="M196.23 71.06l.3 3.42.93-.08-.3-3.4-.93.07zm-.56-3.34l.28 3.33.92-.08-.27-3.32-.93.07zM5.62 45.84l-2.48 1.5.5.8 2.48-1.5-.5-.8zM454.06 60a12.27 12.27 0 0 0-12.26-12.28h-.02v.93A11.35 11.35 0 0 1 453.13 60h.93zM360 47.7c-6.78 0-12.28 5.5-12.28 12.28h.93c0-6.27 5.08-11.35 11.35-11.36h0v-.92zm-12.3 51.6a12.29 12.29 0 0 0 12.28 12.3v-.93a11.37 11.37 0 0 1-11.36-11.36h-.92zm94.08 12.27c6.78 0 12.28-5.5 12.28-12.28v-.01h-.93a11.36 11.36 0 0 1-11.36 11.36v.93h.01zm0-2.24c5.54 0 10.04-4.5 10.05-10.03v-.02h-.93c0 5.03-4.07 9.12-9.1 9.12h-.01v.93zM349.94 99.3c0 5.55 4.5 10.05 10.05 10.05h0v-.93c-5.03-.01-9.1-4.1-9.12-9.12h-.93zM360 49.94c-5.55 0-10.05 4.5-10.05 10.05h.93a9.12 9.12 0 0 1 9.12-9.12v-.94zM451.82 60a10.05 10.05 0 0 0-10.04-10.05h-.01v.93a9.12 9.12 0 0 1 9.12 9.12h.93zm153.98 7.66c0-2.55-2.07-4.62-4.62-4.62v.93a3.69 3.69 0 0 1 3.69 3.69h.93zm-81.92-4.62c-2.55 0-4.62 2.07-4.62 4.62h.93a3.69 3.69 0 0 1 3.69-3.69v-.93zm-4.6 34c0 2.55 2.07 4.62 4.62 4.62v-.93c-2.04-.01-3.68-1.66-3.7-3.7h-.93zm81.93 4.62c2.55 0 4.62-2.06 4.62-4.6v-.01h-.93a3.69 3.69 0 0 1-3.69 3.69h0v.93zM362.22 64c-2.02 0-3.66 1.63-3.66 3.65v.01h.93a2.73 2.73 0 0 1 2.73-2.73V64z"/><use xlink:href="#B"/><path d="M520.22 97.05c0 2.02 1.64 3.66 3.66 3.66v-.93a2.73 2.73 0 0 1-2.73-2.73h-.93zM523.88 64c-2.02 0-3.66 1.64-3.66 3.66h.93a2.73 2.73 0 0 1 2.73-2.73V64z"/><use xlink:href="#B" x="161.66"/><path d="M601.2 100.7c2.02 0 3.66-1.63 3.66-3.65v-.01h-.93c0 1.5-1.22 2.73-2.72 2.73h-.01v.93zm-4.17 41.72a2.38 2.38 0 0 0 2.38 2.38v-.93c-.8 0-1.45-.65-1.46-1.45h-.92zm49.67 2.38a2.38 2.38 0 0 0 2.38-2.38h0-.92a1.45 1.45 0 0 1-1.45 1.45l-.01.93zM442.22 65.4l.02-.26-.93-.06v.26m-1.45 2.14c.5 0 .98-.15 1.38-.44l-.54-.75c-.25.17-.54.27-.84.27v.92zm136.84-1.2l-.06.24.9.2.05-.23"/><path d="M584.86 66.5l-.06-.24-.9.2.05.23m-142.03.96c0-.96-.78-1.74-1.75-1.74v.93l.57.24.24.57h.94zm-80.34-1.75a1.74 1.74 0 0 0-1.74 1.74h.93l.23-.57.58-.24v-.93zM521.5 97.05a1.74 1.74 0 0 0 1.74 1.74v-.93c-.45 0-.8-.36-.8-.8h-.93zm80.34 1.75a1.74 1.74 0 0 0 1.74-1.73v-.01h-.93l-.24.58-.57.24v.92zm1.74-31.15a1.74 1.74 0 0 0-1.74-1.74v.93l.57.24.24.57h.93z"/><use xlink:href="#C"/><path d="M653.25 139.7c.66 0 1.26-.37 1.56-.96l-.83-.42a.81.81 0 0 1-.73.45v.93zm-61.95-.97a1.73 1.73 0 0 0 1.56.96v-.93a.81.81 0 0 1-.73-.45l-.83.42M442.4 68.76c.96 0 1.74-.78 1.75-1.74h0-.93l-.24.58-.58.24v.92zm1.76-9.4c0-.96-.78-1.74-1.75-1.74v.93l.57.24.24.57h.94z"/><use xlink:href="#C" x="-163.89" y="-8.3"/><path d="M357.6 67.02a1.74 1.74 0 0 0 1.74 1.74v-.93c-.45 0-.8-.36-.8-.8h-.93zM180.24 144.8c1.3 0 2.38-1.06 2.38-2.37v-.01h-.93a1.45 1.45 0 0 1-1.45 1.45h0v.93zm6.56-5.1c.66 0 1.26-.37 1.56-.96l-.83-.42a.81.81 0 0 1-.73.45v.93zM109.27 23.45l-9.16.93.1.92 9.12-.93-.07-.92zm12.5-.68l-7.72.44.07.93 7.68-.43-.03-.94z"/><path d="M114.04 23.2l-1.2.1.08.93 1.2-.1-.07-.93zm10.16-.5l-2.45.08.04.93 2.44-.08-.03-.93z"/><path d="M112.84 23.3l-.98.08.08.93.97-.08-.07-.93zm13.52-.65l-2.15.05.02.93 2.15-.05-.02-.93z"/><path d="M111.87 23.38l-2.45.22.1.93 2.44-.22-.08-.93zm15.97-.75l-1.23.02.02.93 1.22-.01-.01-.94z"/><path d="M128.27 22.62h-.42v.93h.43"/><path d="M129.56 22.62h-1.3v.93h1.3v-.93z"/><path d="M130.13 22.62h-.57v.93h.57m.45 118.87c0 1.3 1.07 2.38 2.38 2.38v-.93a1.45 1.45 0 0 1-1.45-1.45h-.93zm-5.73-3.7a1.73 1.73 0 0 0 1.56.96v-.93a.81.81 0 0 1-.73-.45l-.83.42zM39.9 133.3a3.68 3.68 0 0 0 2.79 1.28v-.93a2.73 2.73 0 0 1-2.08-.96l-.7.6zM24.1 66.36c7.75 23.58 18.7 45.98 32.55 66.58l.77-.52c-13.8-20.53-24.7-42.86-32.44-66.36l-.88.3zM1.2 48.88C3.54 64 7.9 78.76 14.2 92.72l.85-.38a168.87 168.87 0 0 1-12.92-43.6l-.92.14z"/><path d="M14.2 92.72c6.6 14.67 15.26 28.33 25.7 40.57l.7-.6a169.02 169.02 0 0 1-25.56-40.35l-.85.38zm263.68 8.95c2.55 0 4.62-2.07 4.62-4.62h-.93a3.69 3.69 0 0 1-3.69 3.69v.93zm4.62-34c0-2.55-2.07-4.62-4.62-4.62v.93a3.69 3.69 0 0 1 3.69 3.69h.93zm-81.93-4.62c-2.55 0-4.62 2.06-4.62 4.6v.01h.93a3.69 3.69 0 0 1 3.69-3.69h0v-.93zm-4.62 34c0 2.55 2.07 4.62 4.62 4.62v-.93c-2.04 0-3.7-1.66-3.7-3.7h-.93z"/><path d="M196.9 97.05c0 2.02 1.64 3.66 3.66 3.66h0v-.93a2.73 2.73 0 0 1-2.73-2.73h-.93zM200.57 64c-2.02 0-3.66 1.64-3.66 3.66h.93a2.73 2.73 0 0 1 2.73-2.73V64z"/><use xlink:href="#B" x="-161.66"/><path d="M277.88 100.7c2.02 0 3.66-1.63 3.66-3.65v-.01h-.93a2.73 2.73 0 0 1-2.73 2.73v.93zm-24.5-34.43l-.05.24.9.2.06-.23"/><path d="M261.54 66.5l-.05-.24-.9.2.05.23m-62.46 30.36a1.74 1.74 0 0 0 1.74 1.74h0v-.93c-.45 0-.8-.36-.8-.8h-.93zm80.34 1.75a1.74 1.74 0 0 0 1.74-1.74h0-.93l-.24.58-.57.24v.92zm1.74-31.15a1.74 1.74 0 0 0-1.74-1.74v.93l.57.24.24.57h.93z"/><use xlink:href="#C" x="-323.31"/><path d="M48.94 38.44l-2.17 1.12.44.82 2.14-1.1-.4-.83zm675.1-26.54v.34l.92.01.01-.34"/><path d="M723.84 22.77v.33l.93.02v-.33M1.92 49.2l.24-.16.7-.43.66-.4-.48-.8-1.37.84-.24.16.5.78z"/><path d="M3.52 48.2l.1-.06-.5-.8-.1.06m21.06 18.74l-1.62 9.5-1.7 7.58.9.25c.7-2.52 1.23-5.1 1.7-7.65L25 66.3l-.92-.15zM724.32 11.9l-.01.37.93.02.01-.37m-1.23 10.86l-.01.3.93.03.01-.3M34.56 50.23a14.84 14.84 0 0 1 1.85-2.26c.85-.87 1.76-1.68 2.72-2.43 2.54-1.96 5.24-3.7 8.08-5.17l-.44-.82c-2.9 1.5-5.64 3.27-8.22 5.26-1 .78-1.93 1.62-2.82 2.5-.73.73-1.38 1.54-1.96 2.4l.8.5zm14.8-10.96l2.88-1.38c3.28-1.5 6.64-2.82 10.05-4.02l-.3-.87c-3.43 1.2-6.82 2.54-10.13 4.05l-2.92 1.4.42.83zm60-14.9l.16-.01-.08-.93-.15.01m17.1.12h.25l-.01-.92h-.26"/><path d="M25 66.3c.1-.73.3-1.45.53-2.15a22.8 22.8 0 0 1 4.06-6.97l-.72-.58a23.43 23.43 0 0 0-4.22 7.27c-.25.75-.44 1.52-.57 2.3l.92.13zm412.94 1.84c-1.4 3.8-3.37 7.35-5.83 10.56-2.47 3.22-5.4 6.04-8.73 8.36-6.75 4.7-14.77 7.24-23 7.3h-.07a40.06 40.06 0 0 1-37.6-26.2l-.87.32c5.97 16.1 21.3 26.8 38.47 26.82h.08a41.6 41.6 0 0 0 23.52-7.46c3.4-2.38 6.4-5.26 8.94-8.56a40.9 40.9 0 0 0 5.96-10.81l-.88-.3m-237.75 32.8l-.07-.63-.92.1.07.63"/><path d="M200.1 100.33v-.2l-.92.1.02.2m-1.45-22.87l-.02-.27-.93.08.03.27M22.5 37.27l.07.32.9-.2-.07-.32m6.2 20.1l1.2-1.4a48.45 48.45 0 0 1 4.35-4.25l-.6-.7a48.96 48.96 0 0 0-4.43 4.33l-1.22 1.43.72.58z"/><path d="M35.13 51.52l2.8-2.3a85.33 85.33 0 0 1 10.34-6.8l-.46-.8c-3.65 2.04-7.14 4.33-10.45 6.88a69.73 69.73 0 0 0-2.83 2.32l.6.7z"/><path d="M48.26 42.43c3.95-2.22 8.02-4.2 12.2-5.96a146.79 146.79 0 0 1 14.51-5.24 172.44 172.44 0 0 1 16.48-4.1c5.92-1.16 11.9-2 17.9-2.6l-.1-.92c-6.03.6-12.04 1.45-18 2.6-5.6 1.1-11.12 2.46-16.57 4.1-4.96 1.5-9.83 3.26-14.6 5.27-4.2 1.77-8.32 3.77-12.3 6l.45.8zm61.1-17.9l.15-.02-.1-.92h-.15m611.6 107.68a2.95 2.95 0 0 1-.76 1.7c-.2.2-.42.37-.67.48a1.94 1.94 0 0 1-.75.16v.93a2.65 2.65 0 0 0 1.12-.24c.36-.17.7-.4.97-.7a3.94 3.94 0 0 0 1.01-2.25l-.92-.1zm-69.2.58v2.1h.46l-.46-.01v.12l.02.15.01.05.9-.3-.02-.04-.44.14.46.01v-2.22zm-504.96.32l56.5.02v-.93l-56.5-.02v.93zm-90.05.76c.33.5.78.9 1.3 1.2.53.28 1.12.43 1.7.43v-.93a2.73 2.73 0 0 1-1.28-.32 2.47 2.47 0 0 1-.97-.9l-.77.5z"/><path d="M57.05 133.15l.43-.02 1.9-.04-.02-.93-1.9.04-.44.02.03.93z"/><path d="M59.38 133.1l12.1-.18 20.12-.24 55.1-.5v-.93l-55.1.5-20.12.24-12.12.18.02.93zm-19.13.35l5-.1-.02-.93-5 .1"/><path d="M45.24 133.36l11.8-.2-.01-.93-11.8.2m-29.6-57.57l-3.02-7.7c-2.53-6.87-4.64-13.9-6.3-21.03l-.9.2a180.84 180.84 0 0 0 6.33 21.14c.96 2.6 1.97 5.18 3.04 7.74l.85-.36z"/><path d="M20.6 83.92l-.02.03-.1-.03-.23.9.4.1.5-.18.2-.28z"/><path d="M20.68 84.03l-.4-.37-.5-.64-.36.3.38-.27a20.06 20.06 0 0 1-1.3-2.12L17.02 78l-1.38-3.14-.86.36 1.4 3.17 1.5 2.98a21.75 21.75 0 0 0 1.35 2.21l.01.02.53.67.05.05.42.4.63-.67zm-1.74-45.05l.08.4.9-.2-.1-.4m701.5 93.02l3.2-.05 2.8-.05 2.4-.05 1.98-.05 2.16-.07.5-.02h.4.3.03l.17-.02.1-.02.06-.02-.3-.88h-.01l-.1.01-.27.02-.4.02.03.46-.02-.46-.5.02-2.15.07-1.98.05-2.4.05-2.8.05-3.2.05.01.93z"/><path d="M721.78 131.34l.4-26.9 1.25-81.35-.93-.02-1.66 108.25.93.02z"/><path d="M652.12 132.32l39.26-.2 29.95-.32-.01-.93-29.94.32-39.25.2-.01.93z"/><path d="M203.2 132.2l334.1.24 114.84-.1v-.93l-114.84.12c-36.54 0-73.08-.02-109.63-.06l-224.46-.18v.92m-3.36-30.9l-.04-.32-.92.1.03.32m-.62-14.77v.01l.74.56h.01m-.74-9.1h0l.7-.6m26.92-11.6l-.33.13-.2.4-.06.36.93.1.04-.27-.26-.1.22.16.04-.07-.26-.1.22.16-.35-.26v.43l.35-.17-.35-.26v-.5zm-9.22.9l-.07-.4-.07-.2-.1-.14-.33-.14v.5l-.3.33.3.1v-.44l-.3.33.23-.25-.32.12.1.13.23-.25-.32.12.02.07.03.2.92-.1zm8.42-.3l-.05-.23-.9.2.05.23m-7.26-.42l-.05.23.9.2.05-.23m44.48-.58l-.34.14-.2.37-.06.36.93.1.04-.27-.24-.1.2.15.03-.06-.24-.1.2.15-.36-.25v.43l.36-.18-.36-.25v-.5zm-9.24.9l-.07-.4-.07-.2-.1-.14-.34-.14v.5l-.3.33.3.1v-.44l-.3.33.23-.25-.3.12.08.13.23-.25-.3.12.04.28.92-.1z"/><use xlink:href="#D"/><path d="M216.9 98.2l.05.24.9-.2-.05-.23m7.27.42l.05-.24-.9-.2-.05.23m-7.97-4.42l-.07.5.93.1.06-.5m8.78.4l-.06-.5-.92.1.06.5m.36 3.52l.06.4.08.2.1.15.33.12v-.5l.3-.32-.3-.1v.43l.3-.32-.23.25.32-.13-.1-.12-.23.25.32-.13-.04-.27-.92.1z"/><use xlink:href="#D" x="36.43"/><path d="M253.33 98.2l.05.23.9-.2-.06-.23m7.28.43l.05-.23-.9-.2-.06.23m-8-4.43l-.07.5.93.1.06-.5m8.8.4l-.06-.5-.92.1.06.5m.35 3.52l.07.4.08.2.1.15.34.13v-.5l.3-.33-.3-.1v.44l.3-.33-.23.25.3-.13-.08-.12-.23.25.3-.13v-.07l-.03-.2-.93.1zM216.12 70.4c.02.28.06.56.13.84.03.24.14.46.32.62l.3.1c.18 0 .35-.1.45-.25.15-.28.23-.58.26-.9l-.92-.14-.1.48-.02.04.15.07-.12-.1-.03.04.15.07-.12-.1.3.27v-.4l-.3.12.3.27v.02l.24-.33-.24-.08v.4l.24-.33-.18.25.27-.17-.08-.08-.2.25.27-.17h-.02.02a3.87 3.87 0 0 1-.16-.89l-.92.1z"/><use xlink:href="#E"/><path d="M255.14 65.96a2.72 2.72 0 0 0-1.66 1.96l.92.13a1.81 1.81 0 0 1 1.14-1.25l-.4-.84zm6.24 1.96a2.72 2.72 0 0 0-1.66-1.96l-.4.84a1.81 1.81 0 0 1 1.14 1.25l.92-.13z"/><use xlink:href="#F"/><path d="M217.06 96.8c.2.9.8 1.63 1.66 1.96l.4-.84a1.81 1.81 0 0 1-1.14-1.25l-.92.13zm43.8-26c.03.22.07.43.13.64l.12.26c.1.15.27.25.45.25l.27-.08.04-.02a1 1 0 0 0 .33-.62 8.13 8.13 0 0 0 .13-.84l-.92-.1a5.97 5.97 0 0 1-.11.72l-.05.16.27.17-.18-.25-.08.08.27.17-.18-.25.27.38-.23-.4.2.34V71l-.2.05.2.34v-.03l.32-.2-.32-.16v.37l.32-.2v-.01c-.05-.16-.08-.33-.1-.5l-.95.13zm-8.3-.4a6.1 6.1 0 0 0 .13.84 1 1 0 0 0 .33.62l.3.1c.18 0 .35-.1.45-.25.15-.28.23-.58.26-.9l-.92-.14-.1.48-.02.04.15.07-.12-.1-.03.04.15.07-.12-.1.3.27v-.4l-.3.12.3.27v.02l.24-.33-.24-.08v.4l.24-.33-.18.25.26-.17-.08-.08-.18.25.26-.17h-.03.03l-.03.02.03-.01a3.87 3.87 0 0 1-.16-.89l-.9.07zm-33.83-4.44a2.72 2.72 0 0 0-1.66 1.96l.92.13a1.81 1.81 0 0 1 1.14-1.25l-.4-.84z"/><path d="M224.96 67.9c-.2-.9-.82-1.62-1.66-1.96l-.4.84c.56.2 1 .68 1.14 1.26l.92-.14zm-7.36 26l-.02-.1-.92.13.02.1m9.05 1.5l-.06-.37a.6.6 0 0 0-.25-.42l-.7.22-.1.3.87.33.1-.3-.43-.16-.26.38.2-.3-.34.14.14.16.2-.3-.34.14.04.27.9-.1zm-9.43-26.37l.05.37.23.4.72-.2.1-.3-.87-.33-.1.3.44.17.28-.37-.22.28.34-.14-.12-.14-.22.28.34-.14v-.01l-.05-.26-.92.1z"/><path d="M224.45 93.8l-.01.1.92.14.01-.1m-.93-23.14a4.4 4.4 0 0 0 .13.63l.12.26c.1.15.27.25.45.25l.27-.08.03-.02a.94.94 0 0 0 .32-.62 8.13 8.13 0 0 0 .13-.84l-.92-.1a5.97 5.97 0 0 1-.11.72l-.05.16.26.17-.18-.25-.08.08.26.17-.18-.25.27.38-.24-.4.2.34V71l-.2.05.2.34.32-.22-.32-.15v.37l.32-.22c-.05-.16-.1-.33-.1-.5l-.9.14zm29.4 24.46l-.1-.3-.7-.2-.18.25-.1.53.92.1.04-.26.01-.02-.34-.14.2.3.13-.15-.34-.14.2.3-.27-.38-.44.17.1.3.87-.33z"/><use xlink:href="#F" x="36.42"/><path d="M253.48 96.8a2.72 2.72 0 0 0 1.66 1.96l.4-.84a1.81 1.81 0 0 1-1.14-1.25l-.92.13zm7.56-27.36l.1.3.72.2.22-.4.06-.37-.93-.1-.03.25-.01.03.34.13-.22-.28-.12.15.34.13-.22-.28.28.37.44-.17-.12-.3-.86.33zm-36.44 0l.1.3.7.22.24-.4.06-.37-.92-.1-.04.26-.01.02.3.1-.17-.25-.13.16.3.1-.17-.24.27.37.43-.16-.1-.3-.87.32zm28.12-.27l.06.37.22.4.72-.2.1-.3-.86-.33-.12.3.44.17.28-.37-.22.28.34-.13-.12-.15-.22.28.34-.13v-.01l-.04-.27-.93.1zM254 93.9v-.1l-.92.15.02.1m9.05 1.5l-.06-.37-.05-.16-.18-.25-.7.2-.1.3.86.34.12-.3-.44-.16-.27.37.2-.3-.34.13.13.16.2-.3-.34.13v.01l.04.27.93-.1z"/><path d="M260.88 93.8l-.02.1.92.14.01-.1M415.77 66.7c-.33.33-.54.76-.62 1.22l.92.14.38-.72-.68-.64z"/><path d="M423.04 67.92a2.2 2.2 0 0 0-.62-1.22l-.67.64.37.72.92-.14zm-43.7-1.22a2.2 2.2 0 0 0-.62 1.22l.92.13.37-.7-.67-.64zm7.28 1.22a2.2 2.2 0 0 0-.62-1.22l-.67.64.37.7.92-.13zm134.98 18.7v.01l.75.56h.01m-.76-9.1h.01l.7-.6h-.01m26.93-11.6l-.33.14-.2.38-.06.36.93.1.04-.27-.25-.1.2.15.04-.06-.25-.1.2.15-.35-.25v.43l.35-.17-.35-.26v-.5z"/><path d="M540 66.8l-.06-.4-.07-.2-.12-.14-.33-.13v.5l-.3.33.3.1v-.44l-.3.33.23-.25-.32.12.1.13.23-.25-.32.12.04.28.92-.1zm8.43-.3l-.05-.23-.9.2.05.23m-7.25-.42l-.06.23.9.2.05-.23m44.5-.58l-.33.13-.2.4-.05.36.93.1.04-.27-.26-.1.22.16.04-.07-.26-.1.22.16-.35-.26v.43l.35-.17-.35-.26v-.5z"/><path d="M576.43 66.8l-.06-.4-.08-.2-.1-.14-.33-.13v.5l-.3.33.3.1v-.44l-.3.33.23-.25-.32.12.1.13.23-.25-.32.12.04.28.93-.1zm-37 32l.32-.12.2-.4.05-.36-.93-.1-.04.26.26.1-.22-.16-.04.07.26.1-.22-.16.35.25v-.42l-.35.17.35.25v.5zm.8-.6l.06.23.9-.2-.05-.23m7.25.43l.05-.24-.9-.2-.05.23m-7.98-4.42l-.06.5.92.1.07-.5m8.8.4l-.06-.5-.93.12.07.5m.35 3.5l.07.4.07.2.1.14.33.13v-.5l.3-.32-.3-.12v.44l.3-.32-.23.24.32-.12-.1-.12-.23.24.32-.12v-.07l-.03-.2-.93.1zm27.2.88l.33-.12.2-.4.05-.36-.92-.1-.04.26.25.1-.22-.16-.03.07.25.1-.22-.16.35.25v-.42l-.35.17.35.25v.5z"/><path d="M576.65 98.2l.05.24.9-.2-.05-.23m7.25.42l.06-.23-.9-.2-.05.23m-8-4.43l-.06.5.92.1.07-.5m8.8.4l-.06-.5-.92.1.06.5m.35 3.52l.07.4.07.2.12.15.33.12v-.5l.3-.32-.3-.1v.43l.3-.32-.23.25.32-.13-.1-.12-.23.25.32-.13-.04-.27-.92.1zM539.44 70.4a6.1 6.1 0 0 0 .13.84c.03.24.14.46.32.62l.3.1c.18 0 .35-.1.45-.25.15-.28.24-.58.26-.9l-.92-.14-.1.48-.02.04.15.07-.12-.1-.03.04.15.07-.12-.1.3.27v-.4l-.3.12.3.27v-.4.4l.24-.33-.24-.08v.4l.24-.33-.18.25.27-.17-.08-.08-.18.25.27-.17-.02.01.02-.01-.02.01.02-.01a3.87 3.87 0 0 1-.16-.89l-.93.1zm1.3 24.86l-.1-.3-.7-.22a.6.6 0 0 0-.25.42l-.06.37.92.1.04-.26v-.02l-.3-.1.18.25.14-.16-.3-.1.18.25-.26-.38-.43.17.1.3.86-.33zm37.73-29.3c-.84.34-1.47 1.07-1.66 1.96l.92.13a1.81 1.81 0 0 1 1.14-1.25l-.4-.84z"/><path d="M584.7 67.92c-.2-.9-.82-1.62-1.66-1.96l-.4.84a1.83 1.83 0 0 1 1.14 1.25l.92-.13z"/><use xlink:href="#F" x="323.32"/><path d="M540.38 96.8a2.72 2.72 0 0 0 1.66 1.96l.4-.84a1.83 1.83 0 0 1-1.14-1.25l-.92.13zm43.8-26a4.4 4.4 0 0 0 .13.63l.12.26c.1.15.27.25.45.25l.27-.08.03-.02a1 1 0 0 0 .33-.62 8.13 8.13 0 0 0 .13-.84l-.92-.1a5.97 5.97 0 0 1-.11.72l-.05.16.27.17-.18-.25-.08.08.27.17-.18-.25.27.38-.24-.4.2.34V71l-.2.05.2.34v-.03l.32-.22-.32-.15v.37l.32-.22c-.05-.16-.08-.33-.1-.5l-.94.15zm-8.32-.4a6.1 6.1 0 0 0 .13.84c.03.24.14.46.32.62l.3.1c.18 0 .35-.1.45-.25.15-.28.24-.58.26-.9l-.92-.14-.1.48v.04l.15.07-.12-.1-.03.04.15.07-.12-.1.3.27v-.4l-.3.12.3.27v.02l.24-.33-.24-.08v.4l.24-.33-.18.25.27-.17-.08-.08-.2.25.27-.17h-.02.02a3.87 3.87 0 0 1-.16-.89l-.92.1zm-33.82-4.44c-.85.33-1.47 1.07-1.66 1.96l.92.13a1.81 1.81 0 0 1 1.14-1.25l-.4-.84z"/><path d="M548.28 67.92c-.2-.9-.82-1.62-1.66-1.96l-.4.84a1.83 1.83 0 0 1 1.14 1.25l.92-.13zM540.9 93.9v-.1l-.92.13.02.1m9.04 1.5l-.05-.37-.05-.16-.2-.25-.7.2-.12.3.87.34.1-.3-.43-.16-.28.37.22-.3-.34.14.12.15.22-.3-.34.14v.01l.04.27.92-.1zm-9.42-26.37l.05.36.24.4.7-.2.1-.3-.86-.33-.1.3.43.17.27-.38-.2.3.34-.14-.13-.15-.2.3.34-.14v-.01l-.04-.26-.93.1z"/><path d="M547.77 93.8l-.01.1.9.14.02-.1m-.92-23.14a4.4 4.4 0 0 0 .13.63l.12.26c.1.15.27.25.45.25l.27-.08.03-.02a1 1 0 0 0 .33-.62 8.13 8.13 0 0 0 .13-.84l-.92-.1a5.97 5.97 0 0 1-.11.72l-.05.16.26.17-.18-.25-.08.08.26.17-.18-.25.27.38-.24-.4.2.34V71l-.2.05.2.34.32-.22-.32-.15v.37l.32-.22c-.05-.16-.1-.33-.1-.5l-.9.14z"/><use xlink:href="#E" x="359.75"/><use xlink:href="#F" x="359.74"/><path d="M576.8 96.8a2.72 2.72 0 0 0 1.66 1.96l.4-.84a1.81 1.81 0 0 1-1.14-1.25l-.92.13zm7.55-27.36l.1.3.7.22.24-.42.05-.36-.92-.1-.04.25v.03l.3.1-.17-.25-.13.16.3.1-.17-.25.27.38.43-.16-.1-.3-.87.33zm-36.42 0l.1.3.72.2.23-.4.05-.37-.92-.1-.04.26v.02l.33.14-.22-.28-.1.14.33.14-.22-.28.3.36.43-.16-.1-.3-.87.34zm28.1-.27l.05.37.23.4.72-.2.1-.3-.87-.33-.1.3.44.17.28-.37-.22.28.33-.13-.1-.15-.22.28.33-.13v-.01l-.04-.27-.92.1zm1.3 24.73l-.02-.1-.92.13v.1m9.07 1.5l-.06-.37a.6.6 0 0 0-.25-.42l-.7.22-.1.3.87.33.1-.3-.44-.16-.26.38.2-.3-.34.14.13.16.2-.3-.34.14v.01l.04.27.93-.1z"/><path d="M584.2 93.8v.1l.92.14v-.1m137.1-81.72v-.32h-.92v.32"/><path d="M722.02 12.22v-.32h-.92v.32m-10.73 0v-.32h-.93v.32m-57.22 0v-.32h-.93v.32M128.27 22.3h-1.65l.01.93 1.65-.02m609-.92h-607.7v.93h607.7M192.97 12.7h544.58v-.93H192.97"/><path d="M193.43 12.22v-.32h-.93v.32m-59.05 1.64v-.3h-.93v.3m-8.77 8.97v.33h.92v-.33m-8.24-7.68v-.3h-.93v.3m-68.82 13.2v-.3h-.93v.3m-2.45 1.12v-.3h-.93v.3"/><path d="M34.35 32.8v-.35h-.93v.35m159.55-21.04h-1.04l-30.57.4.02.93 31.6-.4v-.93z"/><path d="M23.6 58.9L8.27 45.06l-.62.7L22.98 59.6l.62-.68zm106.13-45.3l-2.54.17.07.93 2.54-.17-.07-.93z"/><path d="M127.2 13.77l-4.96.37.07.93 4.95-.37-.06-.93zm-4.98.38l-1.37.1.08.93 1.37-.1-.08-.93z"/><path d="M120.85 14.26l-6.9.6.1.93 6.87-.6-.07-.93zm8.7 8.04h-.65v.93h.65M53.6 25.6l-7.54 2.3.3.88 7.5-2.3-.25-.9zm58.16-2.56l-2.4.2.1.93 2.4-.2-.08-.93z"/><path d="M113.94 22.87l-2.2.17.08.93 2.18-.17-.07-.93zm7.8-.43l-7.8.43.07.93 7.78-.42-.04-.94z"/><path d="M126.1 22.33l-4.35.1.04.93 4.33-.12-.02-.92z"/><path d="M126.6 22.32l-.5.01v.93l.52-.01m-80.55 4.67a206.49 206.49 0 0 0-13.1 4.75l.35.86c4.3-1.72 8.65-3.3 13.05-4.72l-.3-.9zM15.2 40.87L7.72 45l.47.8 7.43-4.12-.43-.82z"/><path d="M15.8 40.56l-.6.3.43.82.6-.3"/><path d="M16.42 40.23l-.63.33.43.82.62-.32"/><path d="M17.06 39.9l-.64.33.42.83.65-.34m1.47-1.78l-1.75.88.42.83 1.74-.88-.4-.83zm48-7.54l-5.04 1.58.3.88 5.02-1.57-.27-.9zm61.94-9.1h-.64v.93h.64"/><path d="M26.18 61.06a12.17 12.17 0 0 1-1.14-.9L23.6 58.9l-.62.7 1.46 1.3 1.2.95.53-.78zm135.12-48.9l-7.96.25-23.6 1.2.06.93c7.85-.53 15.7-.92 23.58-1.2l7.96-.25-.03-.93zm-47.33 2.7c-8.3.78-16.58 1.77-24.82 3.05-7.53 1.17-15.02 2.58-22.45 4.3a266.95 266.95 0 0 0-13.08 3.39l.26.9a249.26 249.26 0 0 1 13.04-3.38 314.16 314.16 0 0 1 22.38-4.28c8.22-1.28 16.48-2.26 24.77-3.05l-.1-.92zm-81 17.8l-8.42 3.6-5.58 2.67.4.83 5.55-2.65 8.4-3.6-.35-.87zM17.2 39.82l-.15.08.43.83.14-.08m91.74-17.4l-.16.02.1.92.15-.01"/><path d="M109.2 23.27c-7.65.7-15.27 1.83-22.8 3.33-3.38.68-6.73 1.43-10.07 2.25-3.07.76-6.12 1.6-9.15 2.48l.27.9c3-.9 6.05-1.72 9.1-2.47 3.33-.82 6.67-1.57 10.03-2.25 7.5-1.5 15.1-2.6 22.7-3.3l-.08-.92z"/><path d="M67.17 31.33l-.2.07.27.9.2-.07m-5.52.75l-4.23 1.47a97.4 97.4 0 0 0-10.96 4.74l.43.82a94.82 94.82 0 0 1 10.86-4.69l4.2-1.47-.3-.87z"/><path d="M46.7 39.2l-4.6 2.86a41.51 41.51 0 0 0-3.69 2.79l.6.7c1.15-.98 2.35-1.9 3.6-2.73L47.17 40l-.46-.8z"/><path d="M47.14 39.18l-13.8-6.5-.4.84 13.8 6.5.4-.84zm-11.87 9.24l-.12-.08-.48.8.13.07"/><path d="M35.14 48.34l-15.73-9.4-.48.8 15.74 9.38m-.83 1.36l-16.3-10.56-.5.77 16.3 10.57"/><path d="M32.17 52.93L15.68 40.9l-.55.75 16.5 12.03M711.35 23.4l.05-.05.36-.14-.33-.87-.45.18-.17.1-.13.12.67.65zm11.33-11.2l-.16 10.54.93.02.16-10.54"/><path d="M210.27 80.57a6.08 6.08 0 1 1 0 12.16c-3.36 0-6.08-2.72-6.1-6.08h0c.02-3.35 2.74-6.08 6.1-6.08" fill-rule="evenodd"/><path d="M211.8 101.67h-2.44v29.6h2.44v-29.6m0-.96h-2.44v.03h2.44v-.03m0-1.92h-2.44v1h2.44v-1m0-4.47h-2.44v3.54h2.44v-3.54m0-1.78a5.94 5.94 0 0 1-1.53.19c-.3 0-.6-.02-.9-.07v.72h2.44v-.84" opacity=".1"/><use xlink:href="#G"/><use xlink:href="#G" y="-0.96"/><use xlink:href="#G" y="-2.88"/><use xlink:href="#G" y="-7.34"/><path d="M211.8 134.57h-2.44v61.33h2.44v-61.33m-2.44-2.37v1.44h2.44v-1.44h-2.44" opacity=".1"/><use xlink:href="#G" y="32.9"/><path d="M209.37 131.27v.93h2.44v-.93h-2.44m2.43-39.82h-2.44v1.22a6.69 6.69 0 0 0 .9.07 6.41 6.41 0 0 0 1.53-.19v-1.1"/><path d="M592.85 80.57a6.08 6.08 0 1 1 0 12.16c-3.36 0-6.08-2.72-6.1-6.08h0a6.1 6.1 0 0 1 6.09-6.08" fill-rule="evenodd"/><path d="M592.85 138.98h0v.7c-.25 0-.5-.05-.7-.15v56.36h2.44v-56.2h-1.73v-.7m1.73-4.4h-2.44v3.48h2.44v-3.48m0-2.16h-2.44v1.24h2.44v-1.24m0-30.74h-2.44v29.82h2.44v-29.82m0-.96h-2.44v.03h2.44v-.03m0-1.92h-2.44v1h2.44v-1m0-4.47h-2.44v3.54h2.44v-3.54m-.4-1.73a6.26 6.26 0 0 1-1.31.14 5.53 5.53 0 0 1-.71-.04v.7h2.44V93l-.42-.4" opacity=".1"/><path d="M594.58 138.98h-1.73v.7h1.73v-.7"/><path d="M594.58 138.05h-2.44v.3c.14.26.42.4.7.4v.22h1.73v-.92"/><use xlink:href="#G" x="382.78" y="32.9"/><use xlink:href="#G" x="382.78"/><use xlink:href="#G" x="382.78" y="-0.96"/><use xlink:href="#G" x="382.78" y="-2.88"/><use xlink:href="#G" x="382.78" y="-7.34"/><path d="M594.58 92.5l-.4.1.4.4v-.52m-2.44 45.86v1.2c.22.1.46.15.7.15v-.93c-.3.01-.56-.15-.7-.4"/><path d="M594.58 131.48h-2.44v.92h2.44v-.92m0-40.88h-2.44v2.1a5.53 5.53 0 0 0 .71.04 6.26 6.26 0 0 0 1.31-.14l.4-.1v-1.9"/><path d="M400.88 60.3c3.36 0 6.08 2.72 6.1 6.08 0 3.36-2.72 6.08-6.08 6.1-3.36 0-6.08-2.72-6.1-6.08h0a6.1 6.1 0 0 1 6.08-6.09h0" fill-rule="evenodd"/><path d="M402.16 134.57h-2.44v61.33h2.44v-61.33m-2.44-2.22v1.3h2.44v-1.3h-2.44m2.44-20.78h-2.44v19.85h2.44v-19.85m0-2.24h-2.44v1.3h2.44v-1.3m0-14.1l-1.76.05h-.08c-.2 0-.4 0-.6-.01v13.14h2.44V95.23m0-22.9c-.4.1-.83.13-1.27.13-.4 0-.8-.04-1.16-.1v22h.67l1.77-.05V72.33" opacity=".1"/><use xlink:href="#G" x="190.36" y="32.9"/><use xlink:href="#G" x="190.36" y="9.9"/><path d="M402.16 108.4h-2.44v.92h2.44v-.92m0-14.1l-1.77.05h-.67v.93l.6.01h.08l1.76-.05v-.94m-2.44 37.13v.92h2.44v-.92h-2.44M402.16 70h-2.44v2.34c.38.07.76.1 1.16.1a6.59 6.59 0 0 0 1.27-.13V70m-24.3-37.63l2.8 6.96 2.8-6.96h1.46v8.53h-1.13v-3.32l.1-3.58-2.8 6.9h-.86l-2.8-6.9.1 3.57v3.32h-1.12v-8.53h1.45zm10.03 8.53h-1.08v-6.34h1.08v6.34zm-1.17-8.02c0-.16.05-.33.16-.45.12-.13.3-.2.48-.18.18-.01.35.05.48.18a.6.6 0 0 1 .16.44.6.6 0 0 1-.16.44.61.61 0 0 1-.48.17c-.18.01-.35-.05-.48-.17a.58.58 0 0 1-.16-.43zm5.45 7.25a1.49 1.49 0 0 0 1-.35c.28-.2.45-.53.48-.88h1.03a2.09 2.09 0 0 1-.38 1.04 2.48 2.48 0 0 1-.92.78 2.62 2.62 0 0 1-1.22.3c-.78.04-1.54-.28-2.06-.86a3.48 3.48 0 0 1-.77-2.36v-.2a3.76 3.76 0 0 1 .34-1.65c.2-.46.55-.85.98-1.12a2.84 2.84 0 0 1 1.5-.4 2.56 2.56 0 0 1 1.77.64c.47.43.75 1.03.75 1.66h-1.03a1.5 1.5 0 0 0-.47-1.01c-.28-.26-.65-.4-1.03-.4a1.52 1.52 0 0 0-1.28.6 2.82 2.82 0 0 0-.45 1.72v.2a2.73 2.73 0 0 0 .45 1.69 1.55 1.55 0 0 0 1.3.61zm6.8-4.6c-.18-.03-.36-.04-.54-.04a1.42 1.42 0 0 0-1.44.9v4.5h-1.08v-6.34h1.05l.02.73a1.68 1.68 0 0 1 1.5-.85c.17-.01.33.02.48.08v1zm.7 2.14c-.01-.58.12-1.15.38-1.67.22-.47.58-.87 1.02-1.15.45-.27.97-.4 1.5-.4a2.68 2.68 0 0 1 2.1.9c.56.67.84 1.52.8 2.38v.07a3.81 3.81 0 0 1-.35 1.66 2.74 2.74 0 0 1-1.01 1.15 2.71 2.71 0 0 1-1.52.4 2.67 2.67 0 0 1-2.09-.89 3.4 3.4 0 0 1-.8-2.37v-.1zm1.1.13c-.03.6.14 1.2.5 1.7.3.42.8.65 1.3.64a1.54 1.54 0 0 0 1.31-.65 2.93 2.93 0 0 0 .49-1.82 2.69 2.69 0 0 0-.5-1.69 1.6 1.6 0 0 0-1.32-.65 1.58 1.58 0 0 0-1.3.64 3.07 3.07 0 0 0-.48 1.84h0zm12.36-.7a5.38 5.38 0 0 1-2.11-1.02 1.96 1.96 0 0 1-.66-1.5 2.09 2.09 0 0 1 .8-1.67 3.22 3.22 0 0 1 2.09-.66c.54-.01 1.08.1 1.57.34.44.2.8.53 1.07.94a2.43 2.43 0 0 1 .38 1.3h-1.12c.02-.46-.16-.9-.5-1.22a2 2 0 0 0-1.39-.44 2.02 2.02 0 0 0-1.3.37c-.3.24-.5.62-.47 1.02a1.09 1.09 0 0 0 .44.88 4.43 4.43 0 0 0 1.51.66 7.26 7.26 0 0 1 1.67.66 2.47 2.47 0 0 1 .89.84 2.12 2.12 0 0 1 .29 1.13 2 2 0 0 1-.8 1.66 3.46 3.46 0 0 1-2.16.62 3.86 3.86 0 0 1-1.64-.34c-.47-.2-.87-.5-1.17-.92a2.25 2.25 0 0 1-.41-1.33h1.13a1.45 1.45 0 0 0 .57 1.22 2.38 2.38 0 0 0 1.53.45 2.25 2.25 0 0 0 1.36-.36c.3-.23.5-.6.48-1 .02-.38-.14-.74-.44-.97a5.07 5.07 0 0 0-1.61-.68h0zm4.6 3.8v-8.53h2.4a3.97 3.97 0 0 1 1.97.49 3.3 3.3 0 0 1 1.32 1.4c.32.65.48 1.36.47 2.08v.55a4.45 4.45 0 0 1-.46 2.1 3.19 3.19 0 0 1-1.33 1.39 4.06 4.06 0 0 1-2.02.5h-2.35zm1.13-7.6V40h1.18a2.6 2.6 0 0 0 2.03-.81 3.31 3.31 0 0 0 .72-2.31v-.5a3.36 3.36 0 0 0-.68-2.25 2.46 2.46 0 0 0-1.94-.82h-1.3z"/></g><g fill="#ededed"><path d="M539.27 218.15v9.7a4.76 4.76 0 0 1-.64 2.5c-.4.7-1.03 1.28-1.76 1.63-.8.4-1.7.6-2.6.57-1.3.07-2.6-.37-3.6-1.22a4.49 4.49 0 0 1-1.4-3.4v-9.8h1.2v9.62a3.7 3.7 0 0 0 1.03 2.79c.76.7 1.76 1.05 2.78 1 1.02.05 2.02-.3 2.78-1 .7-.74 1.08-1.75 1.02-2.78v-9.63l1.2.02zm11.4 10.72c.03-.72-.28-1.4-.83-1.87-.92-.62-1.95-1.07-3.04-1.3-1.14-.27-2.23-.73-3.22-1.35a3.17 3.17 0 0 1-1.45-2.71 3.19 3.19 0 0 1 1.34-2.66c1-.7 2.2-1.07 3.44-1.02.88-.02 1.74.17 2.54.55.7.33 1.3.86 1.73 1.53.4.65.62 1.4.6 2.18h-1.2c.03-.9-.33-1.75-1-2.34-.75-.62-1.7-.94-2.67-.9-.92-.05-1.84.2-2.6.73-.62.43-.98 1.15-.96 1.9a2.16 2.16 0 0 0 .87 1.77c.84.57 1.8.98 2.78 1.2a12.53 12.53 0 0 1 2.9 1.09 4.06 4.06 0 0 1 1.48 1.34c.34.55.52 1.2.5 1.85a3.2 3.2 0 0 1-1.34 2.7c-1.04.72-2.28 1.07-3.54 1a7.03 7.03 0 0 1-2.76-.53c-.77-.3-1.43-.82-1.9-1.5-.44-.66-.66-1.43-.65-2.22h1.2c-.04.93.38 1.8 1.12 2.37.87.62 1.92.92 3 .87.94.05 1.88-.2 2.66-.74.65-.44 1.03-1.18 1-1.95zm3.8 3.5v-14.22h4.2a5.5 5.5 0 0 1 3.46.94 3.33 3.33 0 0 1 1.18 2.77 3.15 3.15 0 0 1-.6 1.92 3.33 3.33 0 0 1-1.64 1.17c.8.16 1.5.6 2 1.22a3.44 3.44 0 0 1 .76 2.2c.06 1.1-.4 2.2-1.22 2.94-.96.76-2.16 1.13-3.38 1.06h-4.76zm1.2-6.84v5.82h3.6a3.62 3.62 0 0 0 2.45-.78c.6-.55.94-1.35.9-2.18.04-.8-.28-1.55-.86-2.1a3.45 3.45 0 0 0-2.39-.76l-3.7-.01zm0-1h3.28a3.67 3.67 0 0 0 2.33-.7c.57-.5.88-1.23.83-1.98.06-.77-.26-1.52-.86-2-.77-.5-1.67-.7-2.58-.65h-3v5.34zm40.9.7c.2 0 .4.01.6.04l.54.1.43.12.3.1-.16.34-.15.3-.14.3-.16.33c-.17-.06-.34-.1-.5-.14-.24-.05-.48-.08-.73-.07h-.1c-.3 0-.6.05-.9.14-.3.1-.6.24-.86.4-.28.18-.54.4-.78.63a4.42 4.42 0 0 0-.61.76c-.17.26-.3.54-.4.83a2.45 2.45 0 0 0-.14.8 1.35 1.35 0 0 0 .21.78 1.59 1.59 0 0 0 .54.49c.22.13.47.23.72.3l.77.2.94.26a3.01 3.01 0 0 1 .82.36c.23.15.43.35.57.6.16.28.24.6.22.93.01.5-.1 1-.33 1.47-.22.42-.52.8-.88 1.1-.38.32-.8.58-1.27.77a8.8 8.8 0 0 1-1.5.5c-.52.12-1.05.2-1.58.26l-1.5.08a8.4 8.4 0 0 1-2.39-.32c-.7-.2-1.33-.5-1.9-.95a4.31 4.31 0 0 1-1.26-1.58 5.02 5.02 0 0 1-.45-2.22c0-.28.02-.56.05-.84l.18-1.02.23-1.04.25-1 .25-.88.2-.7.15-.45.68.24.65.24-.36 1.16-.33 1.2-.28 1.22-.2 1.18-.03.32c-.01.1-.01.24-.01.36a3.64 3.64 0 0 0 .35 1.62c.22.45.55.84.96 1.14.44.3.93.54 1.45.66.6.15 1.2.22 1.82.22.77.01 1.54-.06 2.3-.2a7.22 7.22 0 0 0 1.76-.56 3.76 3.76 0 0 0 1.14-.79c.25-.24.4-.57.46-.9v-.04c0-.12-.05-.24-.13-.33-.1-.1-.23-.2-.36-.26-.17-.08-.35-.15-.53-.2l-.6-.17a9.85 9.85 0 0 1-1.3-.42 3.36 3.36 0 0 1-.97-.56c-.27-.22-.47-.5-.6-.82a3.07 3.07 0 0 1-.21-1.2c0-.45.07-.9.2-1.34s.32-.84.55-1.23.5-.74.83-1.07a5.56 5.56 0 0 1 1.05-.83c.37-.23.77-.4 1.2-.54.37-.12.8-.18 1.23-.18zm7.15 6.97c-.3 0-.62-.03-.93-.1l-1.06-.23a8.68 8.68 0 0 1-.98-.33c-.24-.1-.47-.2-.67-.37l.58-1.33c.23.13.47.25.7.35l.84.3.9.2a5.62 5.62 0 0 0 .92.08c.2 0 .42-.01.63-.04a2.98 2.98 0 0 0 .59-.14c.2-.06.36-.15.53-.25a2 2 0 0 0 .43-.39 1.15 1.15 0 0 0 .26-.76c0-.05-.01-.17-.03-.37a2.9 2.9 0 0 0-.33-.89c-.2-.42-.46-.82-.75-1.2-.3-.4-.63-.78-.97-1.14-.32-.33-.66-.65-1-.94a5.81 5.81 0 0 0-.86-.61l.57-1.27a7.74 7.74 0 0 1 .97.64 9.62 9.62 0 0 1 .96.84 10.57 10.57 0 0 1 .9.99c.28.34.54.7.78 1.07a7.82 7.82 0 0 1 .6 1.1 5.67 5.67 0 0 1 .38 1.07l.1.6c.01.1.01.18.01.27a2.73 2.73 0 0 1-.03.41c-.02.18-.07.36-.14.53a1.67 1.67 0 0 1-.32.53c-.2.25-.45.46-.72.64s-.56.32-.87.43a5.5 5.5 0 0 1-.97.24 7.19 7.19 0 0 1-1.02.07zm5.93 4.75c.82-.17 1.62-.44 2.38-.8.65-.3 1.26-.7 1.82-1.15.47-.4.88-.85 1.2-1.36.28-.43.47-.92.56-1.43h-.57c-.27 0-.6-.01-.94-.02a10.64 10.64 0 0 1-1.12-.12 4.85 4.85 0 0 1-1.07-.3c-.3-.12-.6-.3-.83-.53s-.42-.5-.54-.82c-.14-.37-.2-.77-.2-1.16.01-.3.04-.6.1-.88.06-.3.15-.62.26-.92s.25-.6.4-.87a2.83 2.83 0 0 1 .57-.72 2.9 2.9 0 0 1 .71-.49c.27-.13.56-.2.86-.2a2.38 2.38 0 0 1 1.17.28c.35.2.67.45.93.75.3.33.53.7.72 1.08.2.4.37.84.5 1.28a10 10 0 0 1 .3 1.34 8.66 8.66 0 0 1 .1 1.25 6.42 6.42 0 0 1-.27 1.85 6.69 6.69 0 0 1-.73 1.61c-.3.5-.7.95-1.12 1.34-.44.4-.92.76-1.43 1.07a9.26 9.26 0 0 1-1.66.77c-.6.2-1.2.36-1.8.46l-.33-1.33zm3.63-10.4c-.24.01-.46.1-.64.26-.22.2-.4.4-.56.66a3.82 3.82 0 0 0-.4.87c-.1.3-.15.6-.15.9a1.29 1.29 0 0 0 .27.7c.16.2.35.34.57.45a3.11 3.11 0 0 0 .78.26c.3.06.58.1.88.1l.87.03h.77c0-.3-.03-.57-.07-.86-.05-.32-.12-.63-.2-.93-.1-.3-.2-.62-.35-.9-.13-.28-.3-.54-.47-.78-.16-.2-.36-.4-.6-.54a1.25 1.25 0 0 0-.7-.21zm9.05.4l.32 1.02.33 1.18.27 1.24c.07.4.1.8.1 1.2 0 .48-.07.96-.2 1.4a5.99 5.99 0 0 1-.59 1.32c-.26.43-.56.84-.9 1.2-.35.4-.73.75-1.13 1.1a11.18 11.18 0 0 1-1.3.96c-.45.3-.9.56-1.4.8l-.6-1.22c.6-.32 1.2-.68 1.77-1.08.55-.4 1.05-.83 1.5-1.3.42-.45.78-.96 1.06-1.5a3.66 3.66 0 0 0 .4-1.66c0-.34-.04-.67-.1-1l-.24-1.08-.32-1.1-.33-1.06 1.33-.4zm3.12 10c.82-.17 1.62-.44 2.38-.8.65-.3 1.26-.7 1.82-1.15.47-.4.88-.85 1.2-1.36.28-.43.47-.92.55-1.43h-.57c-.27 0-.6-.01-.94-.02a10.64 10.64 0 0 1-1.12-.12 4.85 4.85 0 0 1-1.07-.3c-.3-.12-.6-.3-.83-.53s-.42-.5-.54-.82c-.14-.37-.2-.77-.2-1.16a5.04 5.04 0 0 1 .1-.87c.06-.3.15-.62.26-.92s.25-.6.4-.87a2.83 2.83 0 0 1 .57-.72 2.94 2.94 0 0 1 .71-.5c.27-.13.56-.2.86-.2a2.38 2.38 0 0 1 1.17.28c.35.2.67.45.93.75.3.33.53.7.72 1.08.2.4.37.84.5 1.28s.23.88.3 1.33a8.66 8.66 0 0 1 .1 1.25 6.42 6.42 0 0 1-.27 1.85 6.69 6.69 0 0 1-.73 1.61c-.3.5-.7.95-1.12 1.34-.44.4-.92.76-1.43 1.07a9.26 9.26 0 0 1-1.66.77c-.6.2-1.2.36-1.8.46l-.32-1.32zm3.63-10.4c-.24.01-.46.1-.64.26-.22.2-.4.4-.56.66a3.82 3.82 0 0 0-.4.87c-.1.3-.15.6-.15.9a1.29 1.29 0 0 0 .27.7c.16.2.35.34.57.45a3.04 3.04 0 0 0 .77.26c.3.06.58.1.88.1l.87.03h.77c0-.3-.03-.57-.07-.86a7.51 7.51 0 0 0-.21-.94 7.83 7.83 0 0 0-.34-.92c-.13-.28-.3-.54-.47-.78-.16-.2-.36-.4-.6-.54-.2-.12-.45-.2-.7-.2zm-58.9-2.14h1.13c.57.01 1.13-.1 1.65-.33.44-.2.8-.5 1.07-.9a2.42 2.42 0 0 0 .37-1.34c.04-.74-.22-1.46-.72-2-.56-.5-1.3-.77-2.07-.72-.77-.03-1.52.24-2.1.75-.55.5-.84 1.24-.8 1.98h-1.1a3.5 3.5 0 0 1 .52-1.89c.35-.57.85-1.03 1.45-1.32.64-.32 1.34-.48 2.05-.47 1.04-.06 2.06.3 2.84 1 .72.7 1.1 1.7 1.05 2.7 0 .64-.2 1.26-.6 1.77-.43.56-1 .98-1.66 1.2.74.18 1.4.6 1.88 1.2.43.58.65 1.3.63 2 .04 1.03-.36 2.03-1.1 2.75a4.2 4.2 0 0 1-2.97 1.04c-.75.01-1.5-.15-2.18-.47-.63-.3-1.16-.75-1.54-1.33a3.54 3.54 0 0 1-.54-1.98h1.1a2.68 2.68 0 0 0 .88 2.06 3.24 3.24 0 0 0 2.28.8 3.17 3.17 0 0 0 2.21-.72c.56-.55.84-1.32.8-2.1.05-.78-.27-1.53-.86-2.04a3.86 3.86 0 0 0-2.52-.7h-1.1l-.01-.94z"/><path d="M327.6 224.1l-.5.23-.62.3-.63.37a4.02 4.02 0 0 0-.56.44 2.2 2.2 0 0 0-.4.51c-.1.18-.15.38-.15.6-.01.2.06.38.18.53.13.15.3.26.46.33.2.1.43.15.65.17.25.03.5.05.75.05a7.7 7.7 0 0 0 .83-.05l.75-.1-.25-1.47-.26-2-.24.1zm-.78 4.87c-.45 0-.9-.04-1.34-.12a3.41 3.41 0 0 1-1.08-.39 2.07 2.07 0 0 1-.73-.71c-.2-.33-.28-.7-.27-1.08 0-.37.08-.74.24-1.07.17-.34.38-.64.63-.92a5.71 5.71 0 0 1 .87-.76c.3-.22.62-.42.95-.6l.88-.44.66-.26-.13-1.26 1.37-.3c.01.05.02.15.04.3l.06.55.14 1.32.06.54.04.3.26 1.86.2 1.15.14.6.08.25v-.01c.06.16.15.3.26.44a1.17 1.17 0 0 0 .35.28c.15.07.3.12.46.15a3.9 3.9 0 0 0 .59.04h.17v1.37h-.17c-.26 0-.5-.02-.76-.05-.3-.04-.6-.12-.86-.25h.01a2.69 2.69 0 0 1-1.14-1.1c-.65.1-1.3.16-1.98.17h0zm4.57-.13h1.56l.1-.15a1.28 1.28 0 0 0 .11-.2l-.01.01.42-.7.74-1.02c.07-.4.12-.86.15-1.4l.06-1.95v-.3l-.05-1.9-.15-1.98-.18-1.87 1.42-.25.3 3.03.1 3.18v.38l-.02.94c-.01.15-.01.28 0 .4a12.41 12.41 0 0 1 2.24-1.71 7 7 0 0 1 1.96-.81 3.53 3.53 0 0 1 .72-.08 5.18 5.18 0 0 1 .78.09 2.93 2.93 0 0 1 1.03.43c.36.23.68.53.9.88a2.71 2.71 0 0 1 .43 1.26l.02.4c0 .3-.03.6-.1.9-.07.33-.2.65-.36.94-.17.3-.38.6-.63.84a4.8 4.8 0 0 1-.82.67h3.42v1.36h-3.26a7.51 7.51 0 0 1-.84-.04l-.77-.12c-.26-.06-.52-.13-.77-.23-.53.14-1.07.25-1.6.3-.46.06-.9.1-1.37.1h-.1-5.38l-.03-1.36zm3.13-.01c.1.01.27.01.53.01h1.13l1.38-.05c.5-.03.97-.1 1.45-.2.47-.1.93-.23 1.38-.4a4.39 4.39 0 0 0 1.17-.67 3.22 3.22 0 0 0 1.18-2.4 1.25 1.25 0 0 0-.33-.67 1.81 1.81 0 0 0-.6-.42 2.61 2.61 0 0 0-.74-.2c-.1-.01-.2-.01-.3-.01-.16 0-.3.01-.47.04-.72.18-1.4.5-2 .93a13.34 13.34 0 0 0-2.26 2.05v-.01l-.17.2-.25.3-.43.56-.7.93zm7.78-10.7l-1.28 1.28-1.28-1.28 1.28-1.28 1.28 1.28zm3.03 10.7l2.14-.08c.55-.04 1.1-.14 1.6-.28a4.23 4.23 0 0 0 1.17-.52c.32-.2.6-.48.8-.8l-1.1.05a9.04 9.04 0 0 1-1.27-.09c-.47-.06-.9-.22-1.3-.47a2.13 2.13 0 0 1-.87-1.07 2.78 2.78 0 0 1-.16-1.03 5.52 5.52 0 0 1 .05-.71 4.85 4.85 0 0 1 .3-1.07c.14-.36.33-.7.56-1 .22-.3.5-.54.8-.74.3-.2.64-.3 1-.3a2.28 2.28 0 0 1 1.02.24c.32.16.6.38.85.63.26.28.48.6.66.92a7.18 7.18 0 0 1 .48 1.1 7.72 7.72 0 0 1 .3 1.17 6.94 6.94 0 0 1 .1 1.11c0 .52-.1 1.03-.28 1.5-.16.42-.4.8-.73 1.13-.32.32-.7.6-1.1.8a7.13 7.13 0 0 1-1.43.5 10.42 10.42 0 0 1-1.66.26l-1.82.08h-.3v-1.36l.2.01zm3.72-6.7a.81.81 0 0 0-.37.12c-.17.1-.32.2-.45.35-.17.18-.3.38-.42.6-.14.26-.23.55-.28.84-.03.14-.04.28-.04.43a1.19 1.19 0 0 0 .18.64c.14.2.35.37.6.46.3.12.62.2.94.2l1.02.03h.42a5.29 5.29 0 0 0 .53-.03c-.01-.23-.04-.46-.08-.7a5.41 5.41 0 0 0-.21-.79 7.68 7.68 0 0 0-.32-.79 4.38 4.38 0 0 0-.42-.69c-.14-.2-.3-.35-.5-.5a1.06 1.06 0 0 0-.59-.19h0zm1.2-4.64l-1.28 1.28-1.28-1.28 1.28-1.28 1.28 1.28zm8.7 12.7c-.48.01-.95-.05-1.42-.17a2.67 2.67 0 0 1-1.06-.54c-.3-.26-.53-.6-.67-.97-.16-.46-.24-.96-.23-1.45V224l-.01-1.73-.04-1.7-.08-1.57-.13-1.32 1.36-.24.13 1.1.1 1.35.05 1.5.01 1.53.01 2.06v.67l-.01 1.32a3.67 3.67 0 0 0 .09.93c.05.22.16.42.3.6.16.16.37.26.6.3.3.06.6.1.92.1h.25v1.35l-.16-.02zm-.17-1.36h1.9c.8 0 1.6-.08 2.37-.24a19.87 19.87 0 0 0 2.38-.63c.8-.26 1.56-.56 2.32-.9l2.2-1.04-2.6-1.08-.8-.35-.76-.33-.7-.24c-.2-.06-.4-.1-.62-.1a1.72 1.72 0 0 0-.63.12 2.29 2.29 0 0 0-.55.31 3.2 3.2 0 0 0-.47.43c-.14.15-.27.3-.4.47l-.3.44-.2.33-1.17-.7.27-.5a5.58 5.58 0 0 1 .51-.69 4.65 4.65 0 0 1 1.39-1.18c.47-.26 1-.4 1.53-.4.28 0 .56.04.83.1l.86.25c.3.1.58.23.88.36l.9.42.92.45.8.4.83.4.97.4.14.7.14.67-.5.2c-.13.05-.25.1-.36.16l-.36.18-.5.26-2.04.94-2.3.87c-.8.26-1.64.47-2.47.63a13.6 13.6 0 0 1-2.55.24h-1.9v-1.36zm28.67 1.36c-.57 0-1.14-.02-1.72-.07-.56-.04-1.12-.12-1.68-.24a10.7 10.7 0 0 1-1.54-.43 5.18 5.18 0 0 1-1.28-.66 3.54 3.54 0 0 1-.92-.93 2.74 2.74 0 0 1-.45-1.23 3.11 3.11 0 0 1-.03-.43c.01-.42.07-.84.18-1.25a7.71 7.71 0 0 1 .78-1.79l1.1.82-.17.3-.22.46c-.08.18-.14.36-.2.55s-.1.4-.13.6c-.02.1-.03.2-.03.32s.01.22.03.32c.02.15.1.3.18.4a2.93 2.93 0 0 0 .83.74c.4.25.84.45 1.3.6.57.18 1.16.32 1.76.4a14.69 14.69 0 0 0 2.2.14l1.55-.06a14.19 14.19 0 0 0 1.72-.22c.6-.1 1.18-.25 1.75-.43s1.12-.4 1.65-.7a4.97 4.97 0 0 0-.14-.77c-.07-.26-.16-.52-.26-.78l-.32-.74-.34-.66-.3-.53-.22-.37 1.16-.75.24.42.36.65.4.8.36.88.26.87c.04.22.07.45.07.68v.12a1.55 1.55 0 0 1-.3.83 2.78 2.78 0 0 1-.71.66 5.44 5.44 0 0 1-1.02.52c-.4.15-.8.28-1.22.38a11.5 11.5 0 0 1-1.3.26l-1.28.16-1.16.1c-.35.05-.67.07-.94.08h0zm-.13-8.37l-1.27 1.27-1.3-1.28 1.27-1.28 1.3 1.3zm3.08.02l-1.26 1.27-1.3-1.3 1.27-1.27 1.28 1.3zm10.1 3.08l.32 1.02.33 1.18.27 1.24c.07.4.1.8.1 1.2 0 .48-.07.96-.2 1.4a5.99 5.99 0 0 1-.59 1.32c-.26.43-.56.84-.9 1.2-.35.4-.73.75-1.13 1.1-.4.34-.84.66-1.3.95s-.9.56-1.4.8l-.6-1.22a15.21 15.21 0 0 0 1.77-1.08c.55-.4 1.05-.83 1.5-1.3.42-.45.78-.96 1.06-1.5a3.66 3.66 0 0 0 .4-1.66c0-.34-.04-.67-.1-1l-.24-1.08-.32-1.1-.33-1.06 1.32-.4zm7.67 5.26c-.48.01-.95-.05-1.42-.17a2.67 2.67 0 0 1-1.06-.54c-.3-.26-.53-.6-.67-.97a4.14 4.14 0 0 1-.23-1.44V224l-.01-1.73-.04-1.7-.08-1.57-.13-1.32 1.36-.24.13 1.1.1 1.35.05 1.5.01 1.53.01 2.06v.67l-.01 1.32a3.67 3.67 0 0 0 .09.93c.05.22.16.42.3.6.16.16.37.26.6.3.3.06.6.1.92.1h.25v1.35h-.16zm-.17-1.35h1.1l1.02-.01a8.44 8.44 0 0 0 1-.09c.3-.05.6-.12.9-.22a2.31 2.31 0 0 0 .74-.4c.2-.18.38-.4.5-.65a2.25 2.25 0 0 0 .18-.96c0-.47-.12-.93-.34-1.35a7.19 7.19 0 0 0-.91-1.34c-.42-.5-.87-.96-1.35-1.4l-1.62-1.48.18-1.58 6.9-2.95.28.64.27.62-6.33 2.66 1.06.9c.38.33.73.7 1.07 1.07a10.68 10.68 0 0 1 .98 1.24c.24.36.46.74.64 1.14a5.3 5.3 0 0 1 .35 1.04c.07.3.1.6.1.92.01.5-.1 1-.32 1.44-.2.43-.5.82-.88 1.13-.4.32-.85.57-1.33.73-.54.18-1.1.27-1.67.26H408v-1.38zm28.12-5.63c.2 0 .4.01.6.04l.54.1.43.12.3.1-.16.34-.15.3-.14.3-.16.34c-.17-.06-.34-.1-.5-.14-.24-.05-.48-.08-.73-.07h-.1c-.3 0-.6.05-.9.14a3.85 3.85 0 0 0-.87.41c-.28.18-.54.4-.78.64a4.42 4.42 0 0 0-.61.76c-.17.26-.3.54-.4.83a2.45 2.45 0 0 0-.14.8 1.35 1.35 0 0 0 .21.78c.14.2.32.37.53.5.22.13.47.23.72.3l.77.2.94.26c.3.08.57.2.82.37a1.89 1.89 0 0 1 .57.59c.16.28.24.6.22.93.01.5-.1 1-.33 1.47-.22.42-.52.8-.88 1.1-.38.32-.8.58-1.27.77a8.8 8.8 0 0 1-1.5.5c-.52.12-1.05.2-1.58.26l-1.5.08a8.4 8.4 0 0 1-2.39-.32c-.7-.2-1.33-.5-1.9-.95a4.31 4.31 0 0 1-1.26-1.58 5.02 5.02 0 0 1-.45-2.22c0-.28.02-.56.05-.84l.18-1.02.23-1.04.25-1 .25-.88.2-.7.15-.45.68.24.65.24-.36 1.16-.33 1.2-.28 1.22-.2 1.18-.03.32c-.01.1-.01.24-.01.36a3.64 3.64 0 0 0 .35 1.62c.22.45.55.84.96 1.14.44.3.93.54 1.45.66.6.15 1.2.22 1.82.22.77.01 1.54-.06 2.3-.2a7.22 7.22 0 0 0 1.76-.56 3.76 3.76 0 0 0 1.14-.79c.25-.24.4-.57.46-.9v-.04c0-.12-.05-.24-.13-.33-.1-.1-.23-.2-.36-.26-.17-.08-.35-.15-.53-.2l-.6-.17a9.85 9.85 0 0 1-1.3-.42 3.36 3.36 0 0 1-.97-.56c-.27-.22-.47-.5-.6-.82a3.07 3.07 0 0 1-.21-1.2c0-.45.07-.9.2-1.34s.32-.84.55-1.23.5-.74.83-1.07a5.56 5.56 0 0 1 1.05-.83c.37-.23.77-.4 1.2-.54.4-.15.82-.2 1.25-.2h0zm7.15 6.97c-.3 0-.62-.03-.93-.1l-1.07-.23a8.68 8.68 0 0 1-.98-.33c-.24-.1-.47-.2-.67-.37l.58-1.33c.23.13.47.25.7.35l.84.3.9.2a5.62 5.62 0 0 0 .92.08c.2 0 .42-.01.63-.04a2.98 2.98 0 0 0 .59-.14c.18-.06.36-.15.53-.25a2 2 0 0 0 .43-.39 1.15 1.15 0 0 0 .26-.76c0-.05-.01-.17-.04-.37a2.9 2.9 0 0 0-.33-.89c-.2-.42-.46-.82-.75-1.2-.3-.4-.63-.78-.97-1.14-.32-.33-.66-.65-1-.94a5.81 5.81 0 0 0-.86-.61l.57-1.27a7.74 7.74 0 0 1 .97.64 9.62 9.62 0 0 1 .96.84 10.57 10.57 0 0 1 .9.99c.28.34.54.7.78 1.07a7.82 7.82 0 0 1 .6 1.1 5.67 5.67 0 0 1 .38 1.07l.1.6c.01.1.01.18.01.27a2.73 2.73 0 0 1-.03.41c-.02.18-.07.36-.14.53a1.67 1.67 0 0 1-.32.53c-.2.25-.45.46-.72.64s-.56.32-.87.43a5.5 5.5 0 0 1-.97.24c-.33.05-.67.07-1 .07h0zm5.93 4.75c.82-.17 1.62-.44 2.38-.8.65-.3 1.26-.7 1.82-1.15.47-.4.88-.85 1.2-1.36.28-.43.47-.92.56-1.43h-.57c-.27 0-.6-.01-.94-.02a10.64 10.64 0 0 1-1.12-.12 4.85 4.85 0 0 1-1.07-.3c-.3-.12-.6-.3-.83-.53s-.42-.5-.54-.82c-.14-.37-.2-.77-.2-1.16.01-.3.04-.6.1-.88.06-.3.15-.62.26-.92s.25-.6.4-.87a2.83 2.83 0 0 1 .57-.72 2.9 2.9 0 0 1 .71-.49c.27-.13.56-.2.86-.2.4-.01.8.1 1.16.28s.67.45.93.75c.3.33.53.7.72 1.08.2.4.37.84.5 1.28a10 10 0 0 1 .3 1.34 8.66 8.66 0 0 1 .1 1.25 6.42 6.42 0 0 1-.27 1.85c-.17.57-.42 1.1-.74 1.6-.3.5-.7.95-1.12 1.34-.44.4-.92.76-1.44 1.07a9.26 9.26 0 0 1-1.66.77c-.6.2-1.2.36-1.8.46l-.3-1.33zm3.63-10.4c-.24.01-.46.1-.64.26-.22.2-.4.4-.56.66a3.82 3.82 0 0 0-.4.87c-.1.3-.15.6-.15.9a1.29 1.29 0 0 0 .27.7c.16.2.35.34.57.45a3.11 3.11 0 0 0 .78.26c.3.06.58.1.88.1l.87.03h.76c0-.3-.03-.57-.07-.86-.05-.32-.12-.63-.2-.93-.1-.3-.2-.62-.35-.9-.13-.28-.3-.54-.47-.78-.16-.2-.36-.4-.6-.54-.2-.14-.44-.2-.7-.2zm9.05.4l.32 1.02.34 1.18.26 1.24c.07.4.1.8.1 1.2 0 .48-.07.96-.2 1.4a5.99 5.99 0 0 1-.59 1.32c-.26.43-.56.84-.9 1.2-.35.4-.73.75-1.13 1.1a11.18 11.18 0 0 1-1.3.96c-.45.3-.9.56-1.4.8l-.6-1.22c.6-.32 1.2-.68 1.76-1.08.55-.4 1.05-.83 1.5-1.3.42-.45.78-.96 1.06-1.5a3.66 3.66 0 0 0 .4-1.66c0-.34-.04-.67-.1-1l-.24-1.08-.32-1.1-.33-1.06 1.34-.4zm3.12 10c.82-.17 1.62-.44 2.38-.8.65-.3 1.26-.7 1.82-1.15.47-.4.88-.85 1.2-1.36.28-.43.47-.92.55-1.43h-.57c-.27 0-.6-.01-.94-.02a10.64 10.64 0 0 1-1.12-.12 4.85 4.85 0 0 1-1.07-.3c-.3-.12-.6-.3-.83-.53s-.42-.5-.54-.82c-.14-.37-.2-.77-.2-1.16a5.04 5.04 0 0 1 .1-.87c.06-.3.15-.62.26-.92s.25-.6.4-.87a3.03 3.03 0 0 1 .56-.72 2.94 2.94 0 0 1 .71-.5c.27-.13.56-.2.86-.2a2.38 2.38 0 0 1 1.17.28c.35.2.67.45.93.75.3.33.53.7.72 1.08.2.4.37.84.5 1.28s.23.88.3 1.33a8.66 8.66 0 0 1 .1 1.25 6.42 6.42 0 0 1-.27 1.85 6.69 6.69 0 0 1-.73 1.61c-.3.5-.7.95-1.12 1.34-.44.4-.92.76-1.43 1.07a9.26 9.26 0 0 1-1.66.77c-.6.2-1.2.36-1.8.46l-.3-1.32zm3.63-10.4c-.24.01-.46.1-.63.26-.22.2-.4.4-.56.66a3.82 3.82 0 0 0-.4.87c-.1.3-.15.6-.15.9a1.29 1.29 0 0 0 .27.7c.16.2.35.34.57.45a3.04 3.04 0 0 0 .77.26c.3.06.58.1.88.1l.87.03h.76c0-.3-.03-.57-.07-.86a7.51 7.51 0 0 0-.21-.94 7.83 7.83 0 0 0-.34-.92c-.13-.28-.3-.54-.47-.78-.16-.2-.36-.4-.6-.54-.2-.12-.45-.2-.7-.2z"/><path d="M174.84 218.15v9.7c.02.88-.2 1.74-.63 2.5-.4.7-1.03 1.28-1.76 1.63-.8.4-1.7.6-2.6.57-1.3.07-2.6-.37-3.6-1.22a4.49 4.49 0 0 1-1.4-3.4v-9.8h1.2v9.62a3.7 3.7 0 0 0 1.03 2.79c.76.7 1.76 1.05 2.78 1 1.02.05 2.02-.3 2.78-1 .7-.74 1.08-1.75 1.02-2.78v-9.63l1.2.02zm11.4 10.72c.03-.72-.28-1.4-.83-1.87-.92-.62-1.95-1.07-3.04-1.3-1.14-.27-2.23-.73-3.22-1.35a3.17 3.17 0 0 1-1.45-2.71 3.19 3.19 0 0 1 1.34-2.66c1-.7 2.2-1.07 3.44-1.02.88-.02 1.74.17 2.54.55.7.33 1.3.86 1.73 1.53.4.65.62 1.4.6 2.18h-1.2c.03-.9-.33-1.75-1-2.34-.75-.62-1.7-.94-2.67-.9-.92-.05-1.84.2-2.6.73-.62.43-.98 1.15-.96 1.9a2.16 2.16 0 0 0 .87 1.77c.84.57 1.8.98 2.78 1.2a12.53 12.53 0 0 1 2.9 1.09 4.06 4.06 0 0 1 1.48 1.34c.34.55.52 1.2.5 1.85a3.2 3.2 0 0 1-1.34 2.7c-1.04.72-2.28 1.07-3.54 1a7.03 7.03 0 0 1-2.76-.53c-.77-.3-1.43-.82-1.9-1.5-.44-.66-.66-1.43-.65-2.22h1.2c-.04.93.38 1.8 1.12 2.37.87.62 1.92.92 3 .87.94.05 1.88-.2 2.66-.74.65-.44 1.02-1.18 1-1.95zm3.8 3.5v-14.22h4.2a5.5 5.5 0 0 1 3.46.94 3.33 3.33 0 0 1 1.18 2.77 3.15 3.15 0 0 1-.6 1.92 3.33 3.33 0 0 1-1.64 1.17c.8.16 1.5.6 2 1.22a3.44 3.44 0 0 1 .76 2.2c.06 1.1-.4 2.2-1.22 2.94-.96.76-2.16 1.13-3.38 1.06h-4.76zm1.2-6.84v5.82h3.6a3.62 3.62 0 0 0 2.45-.78c.6-.55.94-1.35.9-2.18.04-.8-.28-1.55-.86-2.1a3.45 3.45 0 0 0-2.39-.76l-3.7-.01zm0-1h3.28a3.67 3.67 0 0 0 2.33-.7c.57-.5.88-1.23.83-1.98.06-.77-.26-1.52-.86-2-.77-.5-1.67-.7-2.58-.65h-3v5.34zm25.88-2.3c.2 0 .4.01.6.04l.53.1.44.12.3.1-.16.34-.15.3-.14.3-.16.33c-.17-.06-.34-.1-.5-.14-.24-.05-.48-.08-.73-.07h-.1c-.3 0-.6.05-.9.14-.3.1-.6.24-.86.4-.28.18-.54.4-.78.63a4.42 4.42 0 0 0-.61.76c-.17.26-.3.54-.4.83a2.45 2.45 0 0 0-.14.8 1.35 1.35 0 0 0 .21.78 1.59 1.59 0 0 0 .54.49c.22.13.47.23.72.3l.76.2.94.26a3.01 3.01 0 0 1 .82.36c.23.15.43.35.57.6.16.28.24.6.22.93.01.5-.1 1-.33 1.47-.22.42-.52.8-.88 1.1-.38.32-.8.58-1.27.77a8.8 8.8 0 0 1-1.5.5c-.52.12-1.05.2-1.58.26l-1.5.08a8.4 8.4 0 0 1-2.39-.32c-.7-.2-1.33-.5-1.9-.95a4.31 4.31 0 0 1-1.26-1.58 5.02 5.02 0 0 1-.45-2.22c0-.28.02-.56.05-.84l.18-1.02.23-1.04.25-1 .25-.88.2-.7.15-.45.68.24.65.24-.36 1.16-.33 1.2-.28 1.22-.2 1.18-.03.32c-.01.1-.01.24-.01.36a3.64 3.64 0 0 0 .35 1.62c.22.45.55.84.96 1.14.44.3.93.54 1.45.66.6.15 1.2.22 1.82.22.77.01 1.54-.06 2.3-.2a7.22 7.22 0 0 0 1.76-.56 3.76 3.76 0 0 0 1.14-.79c.25-.24.4-.57.46-.9v-.04c0-.12-.05-.24-.13-.33-.1-.1-.23-.2-.36-.26-.17-.08-.35-.15-.53-.2l-.6-.17a9.85 9.85 0 0 1-1.3-.42 3.36 3.36 0 0 1-.97-.56c-.27-.22-.47-.5-.6-.82a3.07 3.07 0 0 1-.21-1.2c0-.45.07-.9.2-1.34s.32-.84.55-1.23.5-.74.83-1.07a5.56 5.56 0 0 1 1.05-.83c.37-.23.77-.4 1.2-.54.4-.12.82-.18 1.24-.18zm7.15 6.97c-.3 0-.62-.03-.93-.1l-1.06-.23a8.68 8.68 0 0 1-.98-.33c-.24-.1-.47-.2-.67-.37l.58-1.33c.23.13.47.25.7.35l.84.3.9.2a5.62 5.62 0 0 0 .92.08c.2 0 .42-.01.63-.04a2.98 2.98 0 0 0 .59-.14c.2-.06.36-.15.53-.25a2 2 0 0 0 .43-.39 1.15 1.15 0 0 0 .26-.76c0-.05-.01-.17-.04-.37a2.9 2.9 0 0 0-.33-.89c-.2-.42-.46-.82-.75-1.2-.3-.4-.63-.78-.97-1.14-.32-.33-.66-.65-1-.94a5.81 5.81 0 0 0-.86-.61l.56-1.27a7.74 7.74 0 0 1 .97.64 9.62 9.62 0 0 1 .96.84 10.57 10.57 0 0 1 .9.99c.28.34.54.7.78 1.07a7.82 7.82 0 0 1 .6 1.1 5.67 5.67 0 0 1 .38 1.07l.1.6c.01.1.01.18.01.27a2.73 2.73 0 0 1-.03.41c-.02.18-.07.36-.14.53a1.67 1.67 0 0 1-.32.53c-.2.25-.45.46-.72.64s-.56.32-.87.43a5.5 5.5 0 0 1-.97.24 6.54 6.54 0 0 1-1 .07zm5.94 4.75c.82-.17 1.62-.44 2.38-.8.65-.3 1.26-.7 1.82-1.15.47-.4.88-.85 1.2-1.36.28-.43.47-.92.56-1.43h-.57c-.27 0-.6-.01-.94-.02a10.64 10.64 0 0 1-1.12-.12 4.85 4.85 0 0 1-1.07-.3c-.3-.12-.6-.3-.83-.53s-.42-.5-.54-.82c-.14-.37-.2-.77-.2-1.16.01-.3.04-.6.1-.88.06-.3.15-.62.26-.92s.25-.6.4-.87a2.83 2.83 0 0 1 .57-.72 2.9 2.9 0 0 1 .71-.49c.27-.13.56-.2.86-.2.4-.01.8.1 1.16.28s.67.45.93.75c.3.33.53.7.72 1.08.2.4.37.84.5 1.28a10 10 0 0 1 .3 1.34 8.66 8.66 0 0 1 .1 1.25 6.42 6.42 0 0 1-.27 1.85c-.17.57-.42 1.1-.74 1.6-.3.5-.7.95-1.12 1.34-.44.4-.92.76-1.43 1.07a9.26 9.26 0 0 1-1.66.77c-.6.2-1.2.36-1.8.46l-.3-1.33zm3.63-10.4c-.24.01-.46.1-.63.26-.22.2-.4.4-.56.66a3.82 3.82 0 0 0-.4.87c-.1.3-.15.6-.15.9a1.29 1.29 0 0 0 .27.7c.16.2.35.34.57.45a3.11 3.11 0 0 0 .78.26c.3.06.58.1.88.1l.87.03h.76c0-.3-.03-.57-.07-.86-.05-.32-.12-.63-.2-.93-.1-.3-.2-.62-.35-.9-.13-.28-.3-.54-.47-.78-.16-.2-.36-.4-.6-.54a1.3 1.3 0 0 0-.7-.21zm9.05.4l.32 1.02.34 1.18.26 1.24c.07.4.1.8.1 1.2 0 .48-.07.96-.2 1.4a5.99 5.99 0 0 1-.59 1.32c-.26.43-.56.84-.9 1.2-.35.4-.73.75-1.13 1.1a11.18 11.18 0 0 1-1.3.96c-.45.3-.9.56-1.4.8l-.6-1.22c.6-.32 1.2-.68 1.76-1.08.55-.4 1.05-.83 1.5-1.3.42-.45.78-.96 1.06-1.5a3.66 3.66 0 0 0 .4-1.66c0-.34-.04-.67-.1-1l-.24-1.08-.32-1.1-.33-1.06 1.34-.4zm3.12 10c.82-.17 1.62-.44 2.38-.8.65-.3 1.26-.7 1.82-1.15.47-.4.88-.85 1.2-1.36.28-.43.47-.92.55-1.43h-.57c-.27 0-.6-.01-.94-.02a10.64 10.64 0 0 1-1.12-.12 4.85 4.85 0 0 1-1.07-.3c-.3-.12-.6-.3-.83-.53s-.42-.5-.54-.82c-.14-.37-.2-.77-.2-1.16a5.04 5.04 0 0 1 .1-.87c.06-.3.15-.62.26-.92s.25-.6.4-.87a3.03 3.03 0 0 1 .56-.72 2.94 2.94 0 0 1 .71-.5c.27-.13.56-.2.86-.2a2.38 2.38 0 0 1 1.17.28c.35.2.67.45.93.75.3.33.53.7.72 1.08.2.4.37.84.5 1.28s.23.88.3 1.33a8.66 8.66 0 0 1 .1 1.25 6.42 6.42 0 0 1-.27 1.85c-.17.57-.42 1.1-.74 1.6-.3.5-.7.95-1.12 1.34-.44.4-.92.76-1.43 1.07a9.26 9.26 0 0 1-1.66.77c-.6.2-1.2.36-1.8.46l-.3-1.32zm3.63-10.4c-.24.01-.46.1-.63.26-.22.2-.4.4-.56.66a3.82 3.82 0 0 0-.4.87c-.1.3-.15.6-.15.9a1.29 1.29 0 0 0 .27.7c.16.2.35.34.57.45a3.04 3.04 0 0 0 .77.26c.3.06.58.1.88.1l.87.03h.76c0-.3-.03-.57-.07-.86a7.51 7.51 0 0 0-.21-.94 7.83 7.83 0 0 0-.34-.92c-.13-.28-.3-.54-.47-.78-.16-.2-.36-.4-.6-.54a1.44 1.44 0 0 0-.7-.19z"/></g><defs ><path id="B" d="M443.2 67.66c0-2.02-1.64-3.66-3.66-3.66v.93a2.73 2.73 0 0 1 2.73 2.73h.93z"/><path id="C" d="M523.24 65.9a1.74 1.74 0 0 0-1.74 1.74h.93l.24-.57.57-.24v-.93z"/><path id="D" d="M216.1 98.8l.33-.13.2-.38.05-.36-.92-.1-.04.26h0l.25.1-.22-.15-.03.06.25.1-.22-.15.35.25v-.43l-.35.18.35.25v.5z"/><path id="E" d="M217.4 95.26l-.1-.3-.7-.2-.2.25-.1.53.92.1.04-.26v-.02l-.34-.14.22.3.12-.15-.34-.14.22.3-.28-.37-.43.16.1.3.87-.34z"/><path id="F" d="M223.3 98.75c.85-.33 1.47-1.07 1.66-1.96l-.92-.13a1.81 1.81 0 0 1-1.14 1.25l.4.84z"/><path id="G" d="M211.8 100.74h-2.44v.93h2.44v-.93"/></defs></svg>