<svg xmlns="http://www.w3.org/2000/svg" width="37.439" height="42.414"><path d="M36.197 5.242c-4.13-.025-8.22-.83-12.054-2.37-1.647-.638-3.228-1.437-4.718-2.386L18.72 0l-.706.487C12.966 3.58 7.164 5.225 1.243 5.242H0v12.734a25.3 25.3 0 0 0 18.375 24.341l.34.1.34-.1a25.3 25.3 0 0 0 18.379-24.34V5.242zm-1.243 12.734c0 10.067-6.596 18.945-16.234 21.85C9.08 36.92 2.485 28.043 2.485 17.976V7.7c5.716-.222 11.3-1.842 16.234-4.72 4.944 2.877 10.52 4.497 16.235 4.72v10.276z" fill="#919191"/><path d="M11.915 19.874l5.157 5.157 10.623-10.623" fill="none" stroke="#919191" stroke-width="3"/></svg>